SplineFontDB: 3.0
FontName: Oswald
FullName: Oswald 
FamilyName: Oswald
Weight: Book
Copyright: Copyright (c) 2011 by vernon adams. All rights reserved.
Version: 1.000
ItalicAngle: 0
UnderlinePosition: -103
UnderlineWidth: 102
Ascent: 1638
Descent: 410
sfntRevision: 0x00010000
LayerCount: 2
Layer: 0 1 "Back"  1
Layer: 1 1 "Fore"  0
XUID: [1021 14 500265001 8362195]
FSType: 0
OS2Version: 3
OS2_WeightWidthSlopeOnly: 0
OS2_UseTypoMetrics: 1
CreationTime: 1329995292
ModificationTime: 1329995656
PfmFamily: 17
TTFWeight: 400
TTFWidth: 5
LineGap: 0
VLineGap: 0
Panose: 2 0 5 6 0 0 0 2 0 4
OS2TypoAscent: 3367
OS2TypoAOffset: 1
OS2TypoDescent: -913
OS2TypoDOffset: 1
OS2TypoLinegap: 0
OS2WinAscent: -12
OS2WinAOffset: 1
OS2WinDescent: -79
OS2WinDOffset: 1
HheadAscent: 2561
HheadAOffset: 1
HheadDescent: -732
HheadDOffset: 1
OS2SubXSize: 2937
OS2SubYSize: 2726
OS2SubXOff: 0
OS2SubYOff: 588
OS2SupXSize: 2937
OS2SupYSize: 2726
OS2SupXOff: 0
OS2SupYOff: 2001
OS2StrikeYSize: 209
OS2StrikeYPos: 1049
OS2Vendor: 'newt'
OS2CodePages: 00000001.00000000
OS2UnicodeRanges: 8000002f.4000204b.00000000.00000000
Lookup: 258 0 0 "'kern' Horizontal Kerning lookup 0"  {"'kern' Horizontal Kerning lookup 0 per glyph data 0"  "'kern' Horizontal Kerning lookup 0 kerning class 1"  } ['kern' ('DFLT' <'dflt' > 'latn' <'dflt' > ) ]
MarkAttachClasses: 1
DEI: 91125
KernClass2: 78 58 "'kern' Horizontal Kerning lookup 0 kerning class 1" 
 81 A Aacute Abreve Acircumflex Adieresis Agrave Amacron Aogonek Aring Atilde uni0202
 1 B
 75 D Eth O Oacute Ocircumflex Odieresis Ograve Oslash Otilde Q uni020C uni020E
 6 Dcaron
 1 E
 6 Eacute
 6 Ecaron
 11 Ecircumflex
 9 Edieresis
 6 Egrave
 7 Eogonek
 1 F
 1 J
 11 Jcircumflex
 1 K
 1 L
 6 Lacute
 6 Lcaron
 13 Ohungarumlaut
 1 P
 44 R Racute Rcaron Rcommaaccent uni0210 uni0212
 22 T Tcommaaccent uni021A
 6 Tcaron
 45 U Uacute Ucircumflex Udieresis Ugrave uni0216
 6 Ubreve
 13 Uhungarumlaut
 5 Uring
 1 V
 1 W
 18 Y Yacute Ydieresis
 1 a
 6 aacute
 6 abreve
 11 acircumflex

StartChar: .notdef
Encoding: 65536 -1 0
Width: 748
Flags: W
LayerCount: 2
Fore
SplineSet
68 0 m 1,0,-1
 68 1365 l 1,1,-1
 612 1365 l 1,2,-1
 612 0 l 1,3,-1
 68 0 l 1,0,-1
136 68 m 1,4,-1
 544 68 l 1,5,-1
 544 1297 l 1,6,-1
 136 1297 l 1,7,-1
 136 68 l 1,4,-1
EndSplineSet
EndChar

StartChar: exclam
Encoding: 33 33 2
Width: 375
Flags: W
LayerCount: 2
Fore
SplineSet
64 1792 m 1,0,-1
 320 1792 l 1,1,-1
 320 384 l 1,2,-1
 128 384 l 1,3,-1
 64 1792 l 1,0,-1
64 256 m 1,4,-1
 320 256 l 1,5,-1
 320 0 l 1,6,-1
 64 0 l 1,7,-1
 64 256 l 1,4,-1
EndSplineSet
EndChar

StartChar: quotedbl
Encoding: 34 34 3
Width: 704
Flags: W
LayerCount: 2
Fore
SplineSet
62 1792 m 1,0,-1
 318 1792 l 1,1,-1
 254 1408 l 1,2,-1
 126 1408 l 1,3,-1
 62 1792 l 1,0,-1
385 1792 m 1,4,-1
 641 1792 l 1,5,-1
 577 1408 l 1,6,-1
 449 1408 l 1,7,-1
 385 1792 l 1,4,-1
EndSplineSet
EndChar

StartChar: numbersign
Encoding: 35 35 4
Width: 1088
Flags: W
LayerCount: 2
Fore
SplineSet
1024 1024 m 1,0,-1
 913 1024 l 1,1,-1
 885 832 l 1,2,-1
 1024 832 l 1,3,-1
 1024 640 l 1,4,-1
 858 640 l 1,5,-1
 768 0 l 1,6,-1
 512 0 l 1,7,-1
 602 640 l 1,8,-1
 410 640 l 1,9,-1
 320 0 l 1,10,-1
 64 0 l 1,11,-1
 154 640 l 1,12,-1
 64 640 l 1,13,-1
 64 832 l 1,14,-1
 181 832 l 1,15,-1
 209 1024 l 1,16,-1
 64 1024 l 1,17,-1
 64 1216 l 1,18,-1
 236 1216 l 1,19,-1
 318 1792 l 1,20,-1
 574 1792 l 1,21,-1
 492 1216 l 1,22,-1
 684 1216 l 1,23,-1
 766 1792 l 1,24,-1
 1022 1792 l 1,25,-1
 940 1216 l 1,26,-1
 1024 1216 l 1,27,-1
 1024 1024 l 1,0,-1
437 832 m 1,28,-1
 630 832 l 1,29,-1
 657 1024 l 1,30,-1
 465 1024 l 1,31,-1
 437 832 l 1,28,-1
EndSplineSet
EndChar

StartChar: dollar
Encoding: 36 36 5
Width: 1216
Flags: W
LayerCount: 2
Fore
SplineSet
576 1920 m 1,0,-1
 704 1920 l 1,1,-1
 704 1799 l 1,2,-1
 745 1790 l 1,3,4
 841 1764 841 1764 904.5 1716.5 c 128,-1,5
 968 1669 968 1669 1007 1609 c 128,-1,6
 1046 1549 1046 1549 1064.5 1480.5 c 128,-1,7
 1083 1412 1083 1412 1088 1344 c 1,8,-1
 832 1280 l 1,9,10
 830 1321 830 1321 823.5 1359.5 c 128,-1,11
 817 1398 817 1398 804 1432.5 c 128,-1,12
 791 1467 791 1467 771.5 1496.5 c 128,-1,13
 752 1526 752 1526 724 1549 c 1,14,-1
 704 1564 l 1,15,-1
 704 998 l 1,16,-1
 832 896 l 2,17,18
 893 848 893 848 940.5 789 c 128,-1,19
 988 730 988 730 1021 666 c 128,-1,20
 1054 602 1054 602 1071 534.5 c 128,-1,21
 1088 467 1088 467 1088 401 c 0,22,23
 1088 324 1088 324 1064.5 253.5 c 128,-1,24
 1041 183 1041 183 993.5 126.5 c 128,-1,25
 946 70 946 70 873.5 32.5 c 128,-1,26
 801 -5 801 -5 704 -15 c 1,27,-1
 704 -128 l 1,28,-1
 576 -128 l 1,29,-1
 576 -15 l 1,30,31
 496 -9 496 -9 434.5 16 c 128,-1,32
 373 41 373 41 326.5 77.5 c 128,-1,33
 280 114 280 114 247 158 c 128,-1,34
 214 202 214 202 192 247 c 0,35,36
 164 305 164 305 148 371 c 128,-1,37
 132 437 132 437 128 512 c 1,38,-1
 384 576 l 1,39,40
 386 517 386 517 395.5 460.5 c 128,-1,41
 405 404 405 404 424.5 355 c 128,-1,42
 444 306 444 306 476 268 c 128,-1,43
 508 230 508 230 555 208 c 1,44,-1
 576 200 l 1,45,-1
 576 755 l 1,46,-1
 320 960 l 2,47,48
 270 1000 270 1000 234 1049.5 c 128,-1,49
 198 1099 198 1099 174 1153.5 c 128,-1,50
 150 1208 150 1208 138.5 1265 c 128,-1,51
 127 1322 127 1322 127 1378 c 0,52,53
 127 1464 127 1464 156 1542.5 c 128,-1,54
 185 1621 185 1621 241.5 1680.5 c 128,-1,55
 298 1740 298 1740 382 1775 c 128,-1,56
 466 1810 466 1810 576 1810 c 1,57,-1
 576 1920 l 1,0,-1
489 1584 m 1,58,59
 433 1561 433 1561 408.5 1513 c 128,-1,60
 384 1465 384 1465 384 1405 c 0,61,62
 384 1339 384 1339 415 1271.5 c 128,-1,63
 446 1204 446 1204 512 1152 c 2,64,-1
 576 1101 l 1,65,-1
 576 1600 l 1,66,67
 525 1600 525 1600 489 1584 c 1,58,59
832 384 m 0,68,69
 832 456 832 456 805 515 c 128,-1,70
 778 574 778 574 724 628 c 2,71,-1
 704 648 l 1,72,-1
 704 198 l 1,73,74
 832 227 832 227 832 384 c 0,68,69
EndSplineSet
EndChar

StartChar: percent
Encoding: 37 37 6
Width: 1999
Flags: W
LayerCount: 2
Fore
SplineSet
78 1032 m 0,0,1
 78 1143 78 1143 98 1222 c 128,-1,2
 118 1301 118 1301 150 1355 c 128,-1,3
 182 1409 182 1409 222.5 1441 c 128,-1,4
 263 1473 263 1473 303.5 1489.5 c 128,-1,5
 344 1506 344 1506 381 1511 c 128,-1,6
 418 1516 418 1516 444 1516 c 256,7,8
 470 1516 470 1516 507 1511 c 128,-1,9
 544 1506 544 1506 585 1489.5 c 128,-1,10
 626 1473 626 1473 666.5 1441 c 128,-1,11
 707 1409 707 1409 739 1355 c 128,-1,12
 771 1301 771 1301 791 1222 c 128,-1,13
 811 1143 811 1143 811 1032 c 0,14,15
 811 899 811 899 780 806 c 128,-1,16
 749 713 749 713 697.5 654 c 128,-1,17
 646 595 646 595 580 568 c 128,-1,18
 514 541 514 541 444 541 c 256,19,20
 374 541 374 541 308 568 c 128,-1,21
 242 595 242 595 191 654 c 128,-1,22
 140 713 140 713 109 806 c 128,-1,23
 78 899 78 899 78 1032 c 0,0,1
311 1032 m 0,24,25
 311 1006 311 1006 313 973.5 c 128,-1,26
 315 941 315 941 320.5 908 c 128,-1,27
 326 875 326 875 335.5 844 c 128,-1,28
 345 813 345 813 360 788.5 c 128,-1,29
 375 764 375 764 395.5 749.5 c 128,-1,30
 416 735 416 735 444 735 c 0,31,32
 486 735 486 735 512.5 766 c 128,-1,33
 539 797 539 797 553.5 843 c 128,-1,34
 568 889 568 889 573 940 c 128,-1,35
 578 991 578 991 578 1032 c 0,36,37
 578 1072 578 1072 574 1122 c 128,-1,38
 570 1172 570 1172 556 1216.5 c 128,-1,39
 542 1261 542 1261 515.5 1291 c 128,-1,40
 489 1321 489 1321 444 1321 c 0,41,42
 400 1321 400 1321 373.5 1291 c 128,-1,43
 347 1261 347 1261 333 1216.5 c 128,-1,44
 319 1172 319 1172 315 1122 c 128,-1,45
 311 1072 311 1072 311 1032 c 0,24,25
1188 492 m 0,46,47
 1188 603 1188 603 1208 682 c 128,-1,48
 1228 761 1228 761 1260 814.5 c 128,-1,49
 1292 868 1292 868 1332.5 900 c 128,-1,50
 1373 932 1373 932 1413.5 948.5 c 128,-1,51
 1454 965 1454 965 1491 970 c 128,-1,52
 1528 975 1528 975 1554 975 c 256,53,54
 1580 975 1580 975 1617 970 c 128,-1,55
 1654 965 1654 965 1695 948.5 c 128,-1,56
 1736 932 1736 932 1776.5 900 c 128,-1,57
 1817 868 1817 868 1849 814.5 c 128,-1,58
 1881 761 1881 761 1901 682 c 128,-1,59
 1921 603 1921 603 1921 492 c 0,60,61
 1921 359 1921 359 1890 265.5 c 128,-1,62
 1859 172 1859 172 1807.5 113 c 128,-1,63
 1756 54 1756 54 1690 27 c 128,-1,64
 1624 0 1624 0 1554 0 c 256,65,66
 1484 0 1484 0 1418 27 c 128,-1,67
 1352 54 1352 54 1301 113 c 128,-1,68
 1250 172 1250 172 1219 265.5 c 128,-1,69
 1188 359 1188 359 1188 492 c 0,46,47
1421 492 m 256,70,71
 1421 452 1421 452 1426 400.5 c 128,-1,72
 1431 349 1431 349 1445.5 303.5 c 128,-1,73
 1460 258 1460 258 1486 226.5 c 128,-1,74
 1512 195 1512 195 1554 195 c 256,75,76
 1596 195 1596 195 1622.5 226 c 128,-1,77
 1649 257 1649 257 1663.5 302.5 c 128,-1,78
 1678 348 1678 348 1683 399.5 c 128,-1,79
 1688 451 1688 451 1688 492 c 0,80,81
 1688 532 1688 532 1684 582 c 128,-1,82
 1680 632 1680 632 1666 676 c 128,-1,83
 1652 720 1652 720 1625.5 750 c 128,-1,84
 1599 780 1599 780 1554 780 c 0,85,86
 1510 780 1510 780 1483.5 750 c 128,-1,87
 1457 720 1457 720 1443 676 c 128,-1,88
 1429 632 1429 632 1425 582 c 128,-1,89
 1421 532 1421 532 1421 492 c 256,70,71
1034 1518 m 1,90,-1
 1253 1518 l 1,91,-1
 971 0 l 1,92,-1
 751 0 l 1,93,-1
 1034 1518 l 1,90,-1
EndSplineSet
EndChar

StartChar: ampersand
Encoding: 38 38 7
Width: 1344
Flags: W
LayerCount: 2
Fore
SplineSet
512 -18 m 0,0,1
 420 -18 420 -18 348.5 13.5 c 128,-1,2
 277 45 277 45 228 99 c 128,-1,3
 179 153 179 153 153.5 226.5 c 128,-1,4
 128 300 128 300 128 384 c 0,5,6
 128 446 128 446 143 512 c 128,-1,7
 158 578 158 578 189.5 644 c 128,-1,8
 221 710 221 710 269.5 774 c 128,-1,9
 318 838 318 838 384 896 c 1,10,11
 354 957 354 957 320 1024 c 128,-1,12
 286 1091 286 1091 257.5 1157.5 c 128,-1,13
 229 1224 229 1224 210.5 1288 c 128,-1,14
 192 1352 192 1352 192 1408 c 0,15,16
 192 1491 192 1491 218 1564 c 128,-1,17
 244 1637 244 1637 293 1692 c 128,-1,18
 342 1747 342 1747 413.5 1778.5 c 128,-1,19
 485 1810 485 1810 576 1810 c 0,20,21
 655 1810 655 1810 725 1785.5 c 128,-1,22
 795 1761 795 1761 847.5 1717 c 128,-1,23
 900 1673 900 1673 930 1610.5 c 128,-1,24
 960 1548 960 1548 960 1472 c 0,25,26
 960 1425 960 1425 946 1374 c 128,-1,27
 932 1323 932 1323 908 1271 c 128,-1,28
 884 1219 884 1219 852.5 1167 c 128,-1,29
 821 1115 821 1115 785.5 1066.5 c 128,-1,30
 750 1018 750 1018 712.5 974.5 c 128,-1,31
 675 931 675 931 640 896 c 1,32,-1
 896 512 l 1,33,34
 916 557 916 557 931 635.5 c 128,-1,35
 946 714 946 714 960 832 c 1,36,-1
 1216 832 l 1,37,38
 1216 783 1216 783 1201.5 717 c 128,-1,39
 1187 651 1187 651 1163.5 583.5 c 128,-1,40
 1140 516 1140 516 1112 453.5 c 128,-1,41
 1084 391 1084 391 1057 350 c 1,42,43
 1067 337 1067 337 1084 320.5 c 128,-1,44
 1101 304 1101 304 1122.5 290 c 128,-1,45
 1144 276 1144 276 1168 266 c 128,-1,46
 1192 256 1192 256 1216 256 c 1,47,-1
 1216 -18 l 1,48,49
 1168 -18 1168 -18 1125.5 -3.5 c 128,-1,50
 1083 11 1083 11 1044 35 c 128,-1,51
 1005 59 1005 59 968.5 90.5 c 128,-1,52
 932 122 932 122 896 157 c 1,53,54
 863 115 863 115 820 82 c 128,-1,55
 777 49 777 49 727.5 27 c 128,-1,56
 678 5 678 5 623.5 -6.5 c 128,-1,57
 569 -18 569 -18 512 -18 c 0,0,1
545 1024 m 1,58,59
 561 1044 561 1044 579 1076.5 c 128,-1,60
 597 1109 597 1109 615 1148 c 128,-1,61
 633 1187 633 1187 649 1231 c 128,-1,62
 665 1275 665 1275 677 1318 c 128,-1,63
 689 1361 689 1361 696.5 1400.5 c 128,-1,64
 704 1440 704 1440 704 1472 c 0,65,66
 704 1529 704 1529 670 1564.5 c 128,-1,67
 636 1600 636 1600 576 1600 c 0,68,69
 544 1600 544 1600 520 1584 c 128,-1,70
 496 1568 496 1568 480 1541.5 c 128,-1,71
 464 1515 464 1515 456 1480 c 128,-1,72
 448 1445 448 1445 448 1408 c 0,73,74
 448 1373 448 1373 456.5 1325.5 c 128,-1,75
 465 1278 465 1278 478.5 1225.5 c 128,-1,76
 492 1173 492 1173 509.5 1120.5 c 128,-1,77
 527 1068 527 1068 545 1024 c 1,58,59
481 704 m 1,78,79
 460 676 460 676 442 638 c 128,-1,80
 424 600 424 600 411.5 557 c 128,-1,81
 399 514 399 514 391.5 469.5 c 128,-1,82
 384 425 384 425 384 384 c 0,83,84
 384 345 384 345 391 310.5 c 128,-1,85
 398 276 398 276 413 249.5 c 128,-1,86
 428 223 428 223 452.5 207.5 c 128,-1,87
 477 192 477 192 512 192 c 0,88,89
 551 192 551 192 584.5 204.5 c 128,-1,90
 618 217 618 217 646.5 236 c 128,-1,91
 675 255 675 255 697.5 277.5 c 128,-1,92
 720 300 720 300 736 320 c 1,93,-1
 613 503 l 2,94,95
 590 538 590 538 567.5 572 c 128,-1,96
 545 606 545 606 526 634 c 128,-1,97
 507 662 507 662 495 680.5 c 128,-1,98
 483 699 483 699 481 704 c 1,78,79
EndSplineSet
EndChar

StartChar: quotesingle
Encoding: 39 39 8
Width: 384
Flags: W
LayerCount: 2
Fore
SplineSet
62 1792 m 1,0,-1
 318 1792 l 1,1,-1
 254 1408 l 1,2,-1
 126 1408 l 1,3,-1
 62 1792 l 1,0,-1
EndSplineSet
EndChar

StartChar: parenleft
Encoding: 40 40 9
Width: 640
Flags: W
LayerCount: 2
Fore
SplineSet
128 896 m 256,0,1
 128 1091 128 1091 141 1238 c 128,-1,2
 154 1385 154 1385 179.5 1491.5 c 128,-1,3
 205 1598 205 1598 243 1668.5 c 128,-1,4
 281 1739 281 1739 330.5 1780.5 c 128,-1,5
 380 1822 380 1822 441.5 1839 c 128,-1,6
 503 1856 503 1856 576 1856 c 1,7,-1
 576 1664 l 1,8,9
 538 1664 538 1664 509 1650 c 128,-1,10
 480 1636 480 1636 459 1602 c 128,-1,11
 438 1568 438 1568 423.5 1511 c 128,-1,12
 409 1454 409 1454 400 1369 c 128,-1,13
 391 1284 391 1284 387.5 1167 c 128,-1,14
 384 1050 384 1050 384 896 c 256,15,16
 384 742 384 742 387.5 625 c 128,-1,17
 391 508 391 508 400 423 c 128,-1,18
 409 338 409 338 423.5 281 c 128,-1,19
 438 224 438 224 459 190 c 128,-1,20
 480 156 480 156 509 142 c 128,-1,21
 538 128 538 128 576 128 c 1,22,-1
 576 -64 l 1,23,24
 503 -64 503 -64 441.5 -47 c 128,-1,25
 380 -30 380 -30 330.5 11.5 c 128,-1,26
 281 53 281 53 243 123.5 c 128,-1,27
 205 194 205 194 179.5 300.5 c 128,-1,28
 154 407 154 407 141 554 c 128,-1,29
 128 701 128 701 128 896 c 256,0,1
EndSplineSet
EndChar

StartChar: parenright
Encoding: 41 41 10
Width: 640
Flags: W
LayerCount: 2
Fore
SplineSet
512 896 m 256,0,1
 512 701 512 701 499 554 c 128,-1,2
 486 407 486 407 460.5 300.5 c 128,-1,3
 435 194 435 194 397 123.5 c 128,-1,4
 359 53 359 53 309.5 11.5 c 128,-1,5
 260 -30 260 -30 198.5 -47 c 128,-1,6
 137 -64 137 -64 64 -64 c 1,7,-1
 64 128 l 1,8,9
 102 128 102 128 131 142 c 128,-1,10
 160 156 160 156 181 190 c 128,-1,11
 202 224 202 224 216.5 281 c 128,-1,12
 231 338 231 338 240 423 c 128,-1,13
 249 508 249 508 252.5 625 c 128,-1,14
 256 742 256 742 256 896 c 256,15,16
 256 1050 256 1050 252.5 1167 c 128,-1,17
 249 1284 249 1284 240 1369 c 128,-1,18
 231 1454 231 1454 216.5 1511 c 128,-1,19
 202 1568 202 1568 181 1602 c 128,-1,20
 160 1636 160 1636 131 1650 c 128,-1,21
 102 1664 102 1664 64 1664 c 1,22,-1
 64 1856 l 1,23,24
 137 1856 137 1856 198.5 1839 c 128,-1,25
 260 1822 260 1822 309.5 1780.5 c 128,-1,26
 359 1739 359 1739 397 1668.5 c 128,-1,27
 435 1598 435 1598 460.5 1491.5 c 128,-1,28
 486 1385 486 1385 499 1238 c 128,-1,29
 512 1091 512 1091 512 896 c 256,0,1
EndSplineSet
EndChar

StartChar: asterisk
Encoding: 42 42 11
Width: 896
Flags: W
LayerCount: 2
Fore
SplineSet
343 904 m 1,0,-1
 191 994 l 1,1,-1
 363 1237 l 1,2,-1
 106 1335 l 1,3,-1
 167 1496 l 1,4,-1
 412 1364 l 1,5,-1
 384 1664 l 1,6,-1
 576 1664 l 1,7,-1
 547 1364 l 1,8,-1
 793 1496 l 1,9,-1
 854 1335 l 1,10,-1
 597 1236 l 1,11,-1
 769 994 l 1,12,-1
 617 904 l 1,13,-1
 480 1181 l 1,14,-1
 343 904 l 1,0,-1
EndSplineSet
EndChar

StartChar: plus
Encoding: 43 43 12
Width: 704
Flags: W
LayerCount: 2
Fore
SplineSet
256 384 m 1,0,-1
 256 576 l 1,1,-1
 64 576 l 1,2,-1
 64 768 l 1,3,-1
 256 768 l 1,4,-1
 256 960 l 1,5,-1
 448 960 l 1,6,-1
 448 768 l 1,7,-1
 640 768 l 1,8,-1
 640 576 l 1,9,-1
 448 576 l 1,10,-1
 448 384 l 1,11,-1
 256 384 l 1,0,-1
EndSplineSet
EndChar

StartChar: comma
Encoding: 44 44 13
Width: 408
Flags: W
LayerCount: 2
Fore
SplineSet
76 256 m 1,0,-1
 332 256 l 1,1,2
 332 112 332 112 329 14 c 128,-1,3
 326 -84 326 -84 308 -144 c 128,-1,4
 290 -204 290 -204 251 -230 c 128,-1,5
 212 -256 212 -256 140 -256 c 1,6,-1
 76 -128 l 1,7,8
 124 -128 124 -128 150 -114.5 c 128,-1,9
 176 -101 176 -101 188 -81 c 128,-1,10
 200 -61 200 -61 202 -39 c 128,-1,11
 204 -17 204 -17 204 0 c 1,12,-1
 76 0 l 1,13,-1
 76 256 l 1,0,-1
EndSplineSet
EndChar

StartChar: hyphen
Encoding: 45 45 14
Width: 384
Flags: W
LayerCount: 2
Fore
SplineSet
0 640 m 1,0,-1
 384 640 l 1,1,-1
 384 448 l 1,2,-1
 0 448 l 1,3,-1
 0 640 l 1,0,-1
EndSplineSet
EndChar

StartChar: period
Encoding: 46 46 15
Width: 384
Flags: W
LayerCount: 2
Fore
SplineSet
64 256 m 1,0,-1
 320 256 l 1,1,-1
 320 0 l 1,2,-1
 64 0 l 1,3,-1
 64 256 l 1,0,-1
EndSplineSet
EndChar

StartChar: slash
Encoding: 47 47 16
Width: 832
Flags: W
LayerCount: 2
Fore
SplineSet
575 1792 m 1,0,-1
 832 1792 l 1,1,-1
 256 0 l 1,2,-1
 0 0 l 1,3,-1
 575 1792 l 1,0,-1
EndSplineSet
EndChar

StartChar: zero
Encoding: 48 48 17
Width: 1152
Flags: W
LayerCount: 2
Fore
SplineSet
576 -18 m 256,0,1
 490 -18 490 -18 409 11.5 c 128,-1,2
 328 41 328 41 265.5 105 c 128,-1,3
 203 169 203 169 165.5 269.5 c 128,-1,4
 128 370 128 370 128 512 c 2,5,-1
 128 1280 l 2,6,7
 128 1401 128 1401 152.5 1487 c 128,-1,8
 177 1573 177 1573 216 1632 c 128,-1,9
 255 1691 255 1691 304 1726 c 128,-1,10
 353 1761 353 1761 403 1780 c 128,-1,11
 453 1799 453 1799 498.5 1804.5 c 128,-1,12
 544 1810 544 1810 576 1810 c 256,13,14
 608 1810 608 1810 653.5 1804.5 c 128,-1,15
 699 1799 699 1799 749 1780 c 128,-1,16
 799 1761 799 1761 848 1726 c 128,-1,17
 897 1691 897 1691 936 1632 c 128,-1,18
 975 1573 975 1573 999.5 1487 c 128,-1,19
 1024 1401 1024 1401 1024 1280 c 2,20,-1
 1024 512 l 2,21,22
 1024 370 1024 370 986.5 269.5 c 128,-1,23
 949 169 949 169 886.5 105 c 128,-1,24
 824 41 824 41 743 11.5 c 128,-1,25
 662 -18 662 -18 576 -18 c 256,0,1
576 192 m 256,26,27
 618 192 618 192 649 208 c 128,-1,28
 680 224 680 224 701 250 c 128,-1,29
 722 276 722 276 735.5 310 c 128,-1,30
 749 344 749 344 756 379.5 c 128,-1,31
 763 415 763 415 765.5 449.5 c 128,-1,32
 768 484 768 484 768 512 c 2,33,-1
 768 1280 l 2,34,35
 768 1309 768 1309 766.5 1344 c 128,-1,36
 765 1379 765 1379 758.5 1414.5 c 128,-1,37
 752 1450 752 1450 740 1483.5 c 128,-1,38
 728 1517 728 1517 706.5 1543 c 128,-1,39
 685 1569 685 1569 653 1584.5 c 128,-1,40
 621 1600 621 1600 576 1600 c 256,41,42
 531 1600 531 1600 499 1584.5 c 128,-1,43
 467 1569 467 1569 445.5 1543 c 128,-1,44
 424 1517 424 1517 412 1483.5 c 128,-1,45
 400 1450 400 1450 393.5 1414.5 c 128,-1,46
 387 1379 387 1379 385.5 1344 c 128,-1,47
 384 1309 384 1309 384 1280 c 2,48,-1
 384 512 l 2,49,50
 384 484 384 484 386.5 449.5 c 128,-1,51
 389 415 389 415 396 379.5 c 128,-1,52
 403 344 403 344 416.5 310 c 128,-1,53
 430 276 430 276 451 250 c 128,-1,54
 472 224 472 224 503 208 c 128,-1,55
 534 192 534 192 576 192 c 256,26,27
EndSplineSet
EndChar

StartChar: one
Encoding: 49 49 18
Width: 640
Flags: W
LayerCount: 2
Fore
SplineSet
64 1600 m 1,0,1
 95 1611 95 1611 131.5 1627.5 c 128,-1,2
 168 1644 168 1644 203.5 1667.5 c 128,-1,3
 239 1691 239 1691 269.5 1722 c 128,-1,4
 300 1753 300 1753 320 1792 c 1,5,-1
 512 1792 l 1,6,-1
 512 0 l 1,7,-1
 256 0 l 1,8,-1
 256 1408 l 1,9,-1
 64 1408 l 1,10,-1
 64 1600 l 1,0,1
EndSplineSet
EndChar

StartChar: two
Encoding: 50 50 19
Width: 1089
Flags: W
LayerCount: 2
Fore
SplineSet
97 1216 m 1,0,-1
 97 1280 l 2,1,2
 97 1400 97 1400 122 1498 c 128,-1,3
 147 1596 147 1596 201 1665 c 128,-1,4
 255 1734 255 1734 340 1772 c 128,-1,5
 425 1810 425 1810 545 1810 c 256,6,7
 665 1810 665 1810 750 1773 c 128,-1,8
 835 1736 835 1736 889 1673 c 128,-1,9
 943 1610 943 1610 968 1525 c 128,-1,10
 993 1440 993 1440 993 1344 c 0,11,12
 993 1272 993 1272 981.5 1209 c 128,-1,13
 970 1146 970 1146 946 1085.5 c 128,-1,14
 922 1025 922 1025 886 963.5 c 128,-1,15
 850 902 850 902 801 832 c 1,16,-1
 353 256 l 1,17,-1
 993 256 l 1,18,-1
 993 0 l 1,19,-1
 96 0 l 1,20,-1
 96 256 l 1,21,-1
 545 896 l 2,22,23
 613 993 613 993 651.5 1062 c 128,-1,24
 690 1131 690 1131 709 1182.5 c 128,-1,25
 728 1234 728 1234 732.5 1272 c 128,-1,26
 737 1310 737 1310 737 1344 c 0,27,28
 737 1392 737 1392 725 1438 c 128,-1,29
 713 1484 713 1484 689 1520 c 128,-1,30
 665 1556 665 1556 629 1578 c 128,-1,31
 593 1600 593 1600 545 1600 c 256,32,33
 497 1600 497 1600 461 1577 c 128,-1,34
 425 1554 425 1554 401 1512 c 128,-1,35
 377 1470 377 1470 365 1411 c 128,-1,36
 353 1352 353 1352 353 1280 c 2,37,-1
 353 1216 l 1,38,-1
 97 1216 l 1,0,-1
EndSplineSet
EndChar

StartChar: three
Encoding: 51 51 20
Width: 1088
Flags: W
LayerCount: 2
Fore
SplineSet
544 -18 m 256,0,1
 424 -18 424 -18 339 19 c 128,-1,2
 254 56 254 56 200 119 c 128,-1,3
 146 182 146 182 121 267 c 128,-1,4
 96 352 96 352 96 448 c 2,5,-1
 96 512 l 1,6,-1
 352 512 l 1,7,8
 352 416 352 416 364 354 c 128,-1,9
 376 292 376 292 400 256 c 128,-1,10
 424 220 424 220 460 206 c 128,-1,11
 496 192 496 192 544 192 c 256,12,13
 592 192 592 192 628 206 c 128,-1,14
 664 220 664 220 688 256 c 128,-1,15
 712 292 712 292 724 354 c 128,-1,16
 736 416 736 416 736 512 c 0,17,18
 736 584 736 584 723 643 c 128,-1,19
 710 702 710 702 680 744 c 128,-1,20
 650 786 650 786 601 809 c 128,-1,21
 552 832 552 832 480 832 c 1,22,-1
 480 1088 l 1,23,24
 552 1088 552 1088 601 1101 c 128,-1,25
 650 1114 650 1114 680 1144 c 128,-1,26
 710 1174 710 1174 723 1223 c 128,-1,27
 736 1272 736 1272 736 1344 c 256,28,29
 736 1416 736 1416 724 1465 c 128,-1,30
 712 1514 712 1514 688 1544 c 128,-1,31
 664 1574 664 1574 628 1587 c 128,-1,32
 592 1600 592 1600 544 1600 c 256,33,34
 496 1600 496 1600 460 1586 c 128,-1,35
 424 1572 424 1572 400 1536 c 128,-1,36
 376 1500 376 1500 364 1438 c 128,-1,37
 352 1376 352 1376 352 1280 c 1,38,-1
 96 1280 l 1,39,-1
 96 1344 l 2,40,41
 96 1440 96 1440 121 1525 c 128,-1,42
 146 1610 146 1610 200 1673 c 128,-1,43
 254 1736 254 1736 339 1773 c 128,-1,44
 424 1810 424 1810 544 1810 c 256,45,46
 664 1810 664 1810 749 1773 c 128,-1,47
 834 1736 834 1736 888 1673 c 128,-1,48
 942 1610 942 1610 967 1525 c 128,-1,49
 992 1440 992 1440 992 1344 c 256,50,51
 992 1248 992 1248 966.5 1180.5 c 128,-1,52
 941 1113 941 1113 902.5 1068 c 128,-1,53
 864 1023 864 1023 819.5 997.5 c 128,-1,54
 775 972 775 972 736 960 c 1,55,56
 775 947 775 947 819.5 918.5 c 128,-1,57
 864 890 864 890 902.5 838.5 c 128,-1,58
 941 787 941 787 966.5 707 c 128,-1,59
 992 627 992 627 992 512 c 0,60,61
 992 392 992 392 967 294 c 128,-1,62
 942 196 942 196 888 127 c 128,-1,63
 834 58 834 58 749 20 c 128,-1,64
 664 -18 664 -18 544 -18 c 256,0,1
EndSplineSet
EndChar

StartChar: four
Encoding: 52 52 21
Width: 1126
Flags: W
LayerCount: 2
Fore
SplineSet
608 460 m 1,0,-1
 96 460 l 1,1,-1
 96 745 l 1,2,-1
 544 1793 l 1,3,-1
 864 1793 l 1,4,-1
 864 702 l 1,5,-1
 1062 702 l 1,6,-1
 1062 460 l 1,7,-1
 864 460 l 1,8,-1
 864 0 l 1,9,-1
 608 0 l 1,10,-1
 608 460 l 1,0,-1
608 702 m 1,11,-1
 608 1472 l 1,12,-1
 352 702 l 1,13,-1
 608 702 l 1,11,-1
EndSplineSet
EndChar

StartChar: five
Encoding: 53 53 22
Width: 1152
Flags: W
LayerCount: 2
Fore
SplineSet
960 1536 m 1,0,-1
 400 1536 l 1,1,-1
 384 1102 l 1,2,3
 401 1112 401 1112 424.5 1123.5 c 128,-1,4
 448 1135 448 1135 479.5 1144.5 c 128,-1,5
 511 1154 511 1154 551 1160 c 128,-1,6
 591 1166 591 1166 640 1166 c 0,7,8
 747 1166 747 1166 820.5 1127.5 c 128,-1,9
 894 1089 894 1089 939 1019 c 128,-1,10
 984 949 984 949 1004 852.5 c 128,-1,11
 1024 756 1024 756 1024 640 c 0,12,13
 1024 567 1024 567 1018 490 c 128,-1,14
 1012 413 1012 413 995 340 c 128,-1,15
 978 267 978 267 947 201.5 c 128,-1,16
 916 136 916 136 865.5 87.5 c 128,-1,17
 815 39 815 39 742.5 10.5 c 128,-1,18
 670 -18 670 -18 571 -18 c 0,19,20
 435 -18 435 -18 349 24 c 128,-1,21
 263 66 263 66 214 138 c 128,-1,22
 165 210 165 210 146.5 306.5 c 128,-1,23
 128 403 128 403 128 512 c 1,24,-1
 384 512 l 1,25,-1
 384 472 l 2,26,27
 384 420 384 420 389 369 c 128,-1,28
 394 318 394 318 411.5 277.5 c 128,-1,29
 429 237 429 237 463.5 211.5 c 128,-1,30
 498 186 498 186 557 186 c 0,31,32
 629 186 629 186 670.5 215.5 c 128,-1,33
 712 245 712 245 734 304.5 c 128,-1,34
 756 364 756 364 762 452.5 c 128,-1,35
 768 541 768 541 768 658 c 0,36,37
 768 724 768 724 763.5 781.5 c 128,-1,38
 759 839 759 839 740.5 882 c 128,-1,39
 722 925 722 925 683.5 949.5 c 128,-1,40
 645 974 645 974 577 974 c 0,41,42
 541 974 541 974 510 959.5 c 128,-1,43
 479 945 479 945 454.5 923 c 128,-1,44
 430 901 430 901 412.5 875 c 128,-1,45
 395 849 395 849 386 826 c 1,46,-1
 168 826 l 1,47,-1
 168 1792 l 1,48,-1
 960 1792 l 1,49,-1
 960 1536 l 1,0,-1
EndSplineSet
EndChar

StartChar: six
Encoding: 54 54 23
Width: 1152
Flags: W
LayerCount: 2
Fore
SplineSet
576 -18 m 0,0,1
 480 -18 480 -18 398 21 c 128,-1,2
 316 60 316 60 256 135 c 128,-1,3
 196 210 196 210 162 321 c 128,-1,4
 128 432 128 432 128 576 c 2,5,-1
 128 1152 l 2,6,7
 128 1296 128 1296 153 1417 c 128,-1,8
 178 1538 178 1538 232 1625 c 128,-1,9
 286 1712 286 1712 371 1761 c 128,-1,10
 456 1810 456 1810 576 1810 c 0,11,12
 672 1810 672 1810 754 1782 c 128,-1,13
 836 1754 836 1754 896 1697 c 128,-1,14
 956 1640 956 1640 990 1552 c 128,-1,15
 1024 1464 1024 1464 1024 1344 c 1,16,-1
 768 1344 l 1,17,18
 768 1416 768 1416 756.5 1465 c 128,-1,19
 745 1514 745 1514 721 1544 c 128,-1,20
 697 1574 697 1574 661 1587 c 128,-1,21
 625 1600 625 1600 576 1600 c 0,22,23
 384 1600 384 1600 384 1216 c 2,24,-1
 384 960 l 1,25,26
 395 979 395 979 414.5 1001.5 c 128,-1,27
 434 1024 434 1024 465 1043.5 c 128,-1,28
 496 1063 496 1063 539 1075.5 c 128,-1,29
 582 1088 582 1088 640 1088 c 0,30,31
 760 1088 760 1088 835 1044 c 128,-1,32
 910 1000 910 1000 952 928 c 128,-1,33
 994 856 994 856 1009 764 c 128,-1,34
 1024 672 1024 672 1024 576 c 0,35,36
 1024 456 1024 456 999 348 c 128,-1,37
 974 240 974 240 920 159 c 128,-1,38
 866 78 866 78 781 30 c 128,-1,39
 696 -18 696 -18 576 -18 c 0,0,1
384 512 m 2,40,41
 384 440 384 440 396 381 c 128,-1,42
 408 322 408 322 432 280 c 128,-1,43
 456 238 456 238 492 215 c 128,-1,44
 528 192 528 192 576 192 c 256,45,46
 624 192 624 192 660 215 c 128,-1,47
 696 238 696 238 720 280 c 128,-1,48
 744 322 744 322 756 381 c 128,-1,49
 768 440 768 440 768 512 c 256,50,51
 768 584 768 584 765 653 c 128,-1,52
 762 722 762 722 744 776 c 128,-1,53
 726 830 726 830 687 863 c 128,-1,54
 648 896 648 896 576 896 c 0,55,56
 537 896 537 896 506.5 883.5 c 128,-1,57
 476 871 476 871 452 851.5 c 128,-1,58
 428 832 428 832 411 809.5 c 128,-1,59
 394 787 394 787 384 768 c 1,60,-1
 384 512 l 2,40,41
EndSplineSet
EndChar

StartChar: seven
Encoding: 55 55 24
Width: 845
Flags: W
LayerCount: 2
Fore
SplineSet
64 1792 m 1,0,-1
 781 1792 l 1,1,-1
 781 1669 l 1,2,-1
 455 0 l 1,3,-1
 209 0 l 1,4,-1
 537 1579 l 1,5,-1
 64 1579 l 1,6,-1
 64 1792 l 1,0,-1
EndSplineSet
EndChar

StartChar: eight
Encoding: 56 56 25
Width: 1088
Flags: W
LayerCount: 2
Fore
SplineSet
545 1600 m 0,0,1
 494 1600 494 1600 462.5 1577 c 128,-1,2
 431 1554 431 1554 413.5 1517.5 c 128,-1,3
 396 1481 396 1481 389.5 1435.5 c 128,-1,4
 383 1390 383 1390 383 1344 c 0,5,6
 383 1296 383 1296 388 1246 c 128,-1,7
 393 1196 393 1196 410 1155.5 c 128,-1,8
 427 1115 427 1115 459 1089 c 128,-1,9
 491 1063 491 1063 545 1063 c 256,10,11
 599 1063 599 1063 630.5 1089 c 128,-1,12
 662 1115 662 1115 678.5 1155.5 c 128,-1,13
 695 1196 695 1196 700 1246 c 128,-1,14
 705 1296 705 1296 705 1344 c 0,15,16
 705 1390 705 1390 698.5 1435.5 c 128,-1,17
 692 1481 692 1481 674.5 1517.5 c 128,-1,18
 657 1554 657 1554 625.5 1577 c 128,-1,19
 594 1600 594 1600 545 1600 c 0,0,1
545 1810 m 0,20,21
 651 1810 651 1810 730.5 1777.5 c 128,-1,22
 810 1745 810 1745 862 1684.5 c 128,-1,23
 914 1624 914 1624 940 1538 c 128,-1,24
 966 1452 966 1452 966 1344 c 0,25,26
 966 1285 966 1285 959.5 1230 c 128,-1,27
 953 1175 953 1175 934.5 1125 c 128,-1,28
 916 1075 916 1075 883.5 1030 c 128,-1,29
 851 985 851 985 799 946 c 1,30,31
 844 916 844 916 879.5 881 c 128,-1,32
 915 846 915 846 940 796.5 c 128,-1,33
 965 747 965 747 978.5 677.5 c 128,-1,34
 992 608 992 608 992 511 c 0,35,36
 992 391 992 391 969 293.5 c 128,-1,37
 946 196 946 196 893 127 c 128,-1,38
 840 58 840 58 754.5 20 c 128,-1,39
 669 -18 669 -18 545 -18 c 0,40,41
 420 -18 420 -18 334.5 20 c 128,-1,42
 249 58 249 58 196 127 c 128,-1,43
 143 196 143 196 119.5 293.5 c 128,-1,44
 96 391 96 391 96 511 c 0,45,46
 96 608 96 608 109.5 677 c 128,-1,47
 123 746 123 746 148 796.5 c 128,-1,48
 173 847 173 847 209 882 c 128,-1,49
 245 917 245 917 290 946 c 1,50,51
 238 985 238 985 205.5 1029.5 c 128,-1,52
 173 1074 173 1074 154.5 1124.5 c 128,-1,53
 136 1175 136 1175 129 1230 c 128,-1,54
 122 1285 122 1285 122 1344 c 0,55,56
 122 1452 122 1452 148 1538 c 128,-1,57
 174 1624 174 1624 226.5 1684.5 c 128,-1,58
 279 1745 279 1745 358.5 1777.5 c 128,-1,59
 438 1810 438 1810 545 1810 c 0,20,21
545 192 m 256,60,61
 617 192 617 192 655.5 224 c 128,-1,62
 694 256 694 256 712 304 c 128,-1,63
 730 352 730 352 733 407.5 c 128,-1,64
 736 463 736 463 736 511 c 0,65,66
 736 558 736 558 730 612 c 128,-1,67
 724 666 724 666 704.5 711.5 c 128,-1,68
 685 757 685 757 647 787.5 c 128,-1,69
 609 818 609 818 545 818 c 0,70,71
 480 818 480 818 442 787.5 c 128,-1,72
 404 757 404 757 384 711.5 c 128,-1,73
 364 666 364 666 358 612 c 128,-1,74
 352 558 352 558 352 511 c 0,75,76
 352 463 352 463 355 407.5 c 128,-1,77
 358 352 358 352 376 304 c 128,-1,78
 394 256 394 256 433.5 224 c 128,-1,79
 473 192 473 192 545 192 c 256,60,61
EndSplineSet
EndChar

StartChar: nine
Encoding: 57 57 26
Width: 1152
Flags: W
LayerCount: 2
Fore
SplineSet
576 1810 m 0,0,1
 672 1810 672 1810 754 1771 c 128,-1,2
 836 1732 836 1732 896 1657 c 128,-1,3
 956 1582 956 1582 990 1471 c 128,-1,4
 1024 1360 1024 1360 1024 1216 c 2,5,-1
 1024 640 l 2,6,7
 1024 496 1024 496 999 375 c 128,-1,8
 974 254 974 254 920 167 c 128,-1,9
 866 80 866 80 781 31 c 128,-1,10
 696 -18 696 -18 576 -18 c 0,11,12
 480 -18 480 -18 398 10 c 128,-1,13
 316 38 316 38 256 95 c 128,-1,14
 196 152 196 152 162 240 c 128,-1,15
 128 328 128 328 128 448 c 1,16,-1
 384 448 l 1,17,18
 384 376 384 376 395.5 327 c 128,-1,19
 407 278 407 278 431 248 c 128,-1,20
 455 218 455 218 491 205 c 128,-1,21
 527 192 527 192 576 192 c 0,22,23
 768 192 768 192 768 576 c 2,24,-1
 768 832 l 1,25,26
 756 812 756 812 736.5 790 c 128,-1,27
 717 768 717 768 686 748.5 c 128,-1,28
 655 729 655 729 612.5 716.5 c 128,-1,29
 570 704 570 704 512 704 c 0,30,31
 392 704 392 704 317 748 c 128,-1,32
 242 792 242 792 200 864 c 128,-1,33
 158 936 158 936 143 1028 c 128,-1,34
 128 1120 128 1120 128 1216 c 0,35,36
 128 1336 128 1336 153 1444 c 128,-1,37
 178 1552 178 1552 232 1633 c 128,-1,38
 286 1714 286 1714 371 1762 c 128,-1,39
 456 1810 456 1810 576 1810 c 0,0,1
768 1280 m 2,40,41
 768 1352 768 1352 756 1411 c 128,-1,42
 744 1470 744 1470 720 1512 c 128,-1,43
 696 1554 696 1554 660 1577 c 128,-1,44
 624 1600 624 1600 576 1600 c 256,45,46
 528 1600 528 1600 492 1577 c 128,-1,47
 456 1554 456 1554 432 1512 c 128,-1,48
 408 1470 408 1470 396 1411 c 128,-1,49
 384 1352 384 1352 384 1280 c 256,50,51
 384 1208 384 1208 387 1139 c 128,-1,52
 390 1070 390 1070 408 1016 c 128,-1,53
 426 962 426 962 465 929 c 128,-1,54
 504 896 504 896 576 896 c 0,55,56
 614 896 614 896 645 908.5 c 128,-1,57
 676 921 676 921 699.5 940 c 128,-1,58
 723 959 723 959 740 981.5 c 128,-1,59
 757 1004 757 1004 768 1024 c 1,60,-1
 768 1280 l 2,40,41
EndSplineSet
EndChar

StartChar: colon
Encoding: 58 58 27
Width: 439
Flags: W
LayerCount: 2
Fore
SplineSet
128 1088 m 1,0,-1
 384 1088 l 1,1,-1
 384 832 l 1,2,-1
 128 832 l 1,3,-1
 128 1088 l 1,0,-1
128 512 m 1,4,-1
 384 512 l 1,5,-1
 384 256 l 1,6,-1
 128 256 l 1,7,-1
 128 512 l 1,4,-1
EndSplineSet
EndChar

StartChar: semicolon
Encoding: 59 59 28
Width: 384
Flags: W
LayerCount: 2
Fore
SplineSet
64 1088 m 1,0,-1
 320 1088 l 1,1,-1
 320 832 l 1,2,-1
 64 832 l 1,3,-1
 64 1088 l 1,0,-1
64 512 m 1,4,-1
 320 512 l 1,5,6
 320 368 320 368 317 270 c 128,-1,7
 314 172 314 172 296 112 c 128,-1,8
 278 52 278 52 239 26 c 128,-1,9
 200 0 200 0 128 0 c 1,10,-1
 64 128 l 1,11,12
 112 128 112 128 138 141.5 c 128,-1,13
 164 155 164 155 176 175 c 128,-1,14
 188 195 188 195 190 217 c 128,-1,15
 192 239 192 239 192 256 c 1,16,-1
 64 256 l 1,17,-1
 64 512 l 1,4,-1
EndSplineSet
EndChar

StartChar: less
Encoding: 60 60 29
Width: 832
Flags: W
LayerCount: 2
Fore
SplineSet
64 768 m 1,0,-1
 704 1216 l 1,1,-1
 704 960 l 1,2,-1
 256 641 l 1,3,-1
 704 320 l 1,4,-1
 704 64 l 1,5,-1
 64 512 l 1,6,-1
 64 768 l 1,0,-1
EndSplineSet
EndChar

StartChar: equal
Encoding: 61 61 30
Width: 704
Flags: W
LayerCount: 2
Fore
SplineSet
64 576 m 1,0,-1
 64 768 l 1,1,-1
 640 768 l 1,2,-1
 640 576 l 1,3,-1
 64 576 l 1,0,-1
64 255 m 1,4,-1
 64 447 l 1,5,-1
 640 447 l 1,6,-1
 640 255 l 1,7,-1
 64 255 l 1,4,-1
EndSplineSet
EndChar

StartChar: greater
Encoding: 62 62 31
Width: 832
Flags: W
LayerCount: 2
Fore
SplineSet
768 512 m 1,0,-1
 128 64 l 1,1,-1
 128 320 l 1,2,-1
 576 641 l 1,3,-1
 128 960 l 1,4,-1
 128 1216 l 1,5,-1
 768 768 l 1,6,-1
 768 512 l 1,0,-1
EndSplineSet
EndChar

StartChar: question
Encoding: 63 63 32
Width: 1152
Flags: W
LayerCount: 2
Fore
SplineSet
384 384 m 1,0,-1
 384 704 l 1,1,2
 504 776 504 776 579 847 c 128,-1,3
 654 918 654 918 696 984 c 128,-1,4
 738 1050 738 1050 753 1109 c 128,-1,5
 768 1168 768 1168 768 1216 c 0,6,7
 768 1408 768 1408 576 1408 c 0,8,9
 528 1408 528 1408 492 1395 c 128,-1,10
 456 1382 456 1382 432 1352 c 128,-1,11
 408 1322 408 1322 396 1273 c 128,-1,12
 384 1224 384 1224 384 1152 c 1,13,-1
 128 1152 l 1,14,-1
 128 1216 l 2,15,16
 128 1336 128 1336 162 1421 c 128,-1,17
 196 1506 196 1506 256 1560 c 128,-1,18
 316 1614 316 1614 398 1639 c 128,-1,19
 480 1664 480 1664 576 1664 c 0,20,21
 696 1664 696 1664 781.5 1630 c 128,-1,22
 867 1596 867 1596 921 1536 c 128,-1,23
 975 1476 975 1476 1000 1394 c 128,-1,24
 1025 1312 1025 1312 1025 1216 c 0,25,26
 1025 1022 1025 1022 930 878 c 128,-1,27
 835 734 835 734 640 640 c 1,28,-1
 640 384 l 1,29,-1
 384 384 l 1,0,-1
384 256 m 1,30,-1
 640 256 l 1,31,-1
 640 0 l 1,32,-1
 384 0 l 1,33,-1
 384 256 l 1,30,-1
EndSplineSet
EndChar

StartChar: at
Encoding: 64 64 33
Width: 1782
Flags: W
LayerCount: 2
Fore
SplineSet
958 945 m 1,0,1
 956 961 956 961 945.5 978.5 c 128,-1,2
 935 996 935 996 904 996 c 0,3,4
 856 996 856 996 828.5 971 c 128,-1,5
 801 946 801 946 787.5 904 c 128,-1,6
 774 862 774 862 771 807 c 128,-1,7
 768 752 768 752 768 693 c 0,8,9
 768 640 768 640 777 604 c 128,-1,10
 786 568 786 568 802 545 c 128,-1,11
 818 522 818 522 839 512 c 128,-1,12
 860 502 860 502 884 502 c 0,13,14
 927 502 927 502 941.5 515 c 128,-1,15
 956 528 956 528 958 542 c 1,16,-1
 958 945 l 1,0,1
1011 420 m 1,17,18
 1002 400 1002 400 987.5 378 c 128,-1,19
 973 356 973 356 952 336.5 c 128,-1,20
 931 317 931 317 903.5 304.5 c 128,-1,21
 876 292 876 292 840 292 c 0,22,23
 778 292 778 292 729.5 311 c 128,-1,24
 681 330 681 330 644.5 362 c 128,-1,25
 608 394 608 394 582.5 435.5 c 128,-1,26
 557 477 557 477 541.5 521.5 c 128,-1,27
 526 566 526 566 519 610.5 c 128,-1,28
 512 655 512 655 512 693 c 0,29,30
 512 822 512 822 537 917 c 128,-1,31
 562 1012 562 1012 604 1074.5 c 128,-1,32
 646 1137 646 1137 701 1167 c 128,-1,33
 756 1197 756 1197 816 1197 c 0,34,35
 858 1197 858 1197 885.5 1183 c 128,-1,36
 913 1169 913 1169 928.5 1148.5 c 128,-1,37
 944 1128 944 1128 950.5 1104.5 c 128,-1,38
 957 1081 957 1081 958 1061 c 1,39,-1
 958 1188 l 1,40,-1
 1214 1188 l 1,41,-1
 1214 620 l 2,42,43
 1214 601 1214 601 1215 580 c 128,-1,44
 1216 559 1216 559 1222 542 c 128,-1,45
 1228 525 1228 525 1242 513.5 c 128,-1,46
 1256 502 1256 502 1282 502 c 0,47,48
 1305 502 1305 502 1326 516.5 c 128,-1,49
 1347 531 1347 531 1363 563 c 128,-1,50
 1379 595 1379 595 1388.5 645.5 c 128,-1,51
 1398 696 1398 696 1398 768 c 0,52,53
 1398 938 1398 938 1364.5 1055 c 128,-1,54
 1331 1172 1331 1172 1266.5 1244 c 128,-1,55
 1202 1316 1202 1316 1109 1348 c 128,-1,56
 1016 1380 1016 1380 896 1380 c 0,57,58
 848 1380 848 1380 791 1370 c 128,-1,59
 734 1360 734 1360 677 1335 c 128,-1,60
 620 1310 620 1310 567 1266 c 128,-1,61
 514 1222 514 1222 473.5 1154 c 128,-1,62
 433 1086 433 1086 408.5 991 c 128,-1,63
 384 896 384 896 384 768 c 0,64,65
 384 608 384 608 408.5 493.5 c 128,-1,66
 433 379 433 379 475.5 301 c 128,-1,67
 518 223 518 223 575 176 c 128,-1,68
 632 129 632 129 695.5 104 c 128,-1,69
 759 79 759 79 826.5 71.5 c 128,-1,70
 894 64 894 64 958 64 c 0,71,72
 1032 64 1032 64 1110 81 c 128,-1,73
 1188 98 1188 98 1254 119 c 1,74,-1
 1348 -77 l 1,75,76
 1304 -87 1304 -87 1255.5 -96 c 128,-1,77
 1207 -105 1207 -105 1157 -112 c 128,-1,78
 1107 -119 1107 -119 1056.5 -123.5 c 128,-1,79
 1006 -128 1006 -128 958 -128 c 0,80,81
 751 -128 751 -128 595.5 -78 c 128,-1,82
 440 -28 440 -28 336 80 c 128,-1,83
 232 188 232 188 180 358 c 128,-1,84
 128 528 128 528 128 768 c 0,85,86
 128 960 128 960 184.5 1109.5 c 128,-1,87
 241 1259 241 1259 343 1362 c 128,-1,88
 445 1465 445 1465 586 1518.5 c 128,-1,89
 727 1572 727 1572 896 1572 c 0,90,91
 1076 1572 1076 1572 1217 1518.5 c 128,-1,92
 1358 1465 1358 1465 1455 1362 c 128,-1,93
 1552 1259 1552 1259 1603 1109.5 c 128,-1,94
 1654 960 1654 960 1654 768 c 0,95,96
 1654 656 1654 656 1631 577 c 128,-1,97
 1608 498 1608 498 1572.5 445.5 c 128,-1,98
 1537 393 1537 393 1494 362 c 128,-1,99
 1451 331 1451 331 1410 315.5 c 128,-1,100
 1369 300 1369 300 1335.5 296 c 128,-1,101
 1302 292 1302 292 1286 292 c 0,102,103
 1226 292 1226 292 1180 304.5 c 128,-1,104
 1134 317 1134 317 1100.5 336.5 c 128,-1,105
 1067 356 1067 356 1045 378 c 128,-1,106
 1023 400 1023 400 1011 420 c 1,17,18
EndSplineSet
EndChar

StartChar: A
Encoding: 65 65 34
Width: 1140
Flags: W
LayerCount: 2
Fore
SplineSet
410 448 m 1,0,-1
 314 0 l 1,1,-1
 58 0 l 1,2,-1
 442 1792 l 1,3,-1
 698 1792 l 1,4,-1
 1082 0 l 1,5,-1
 826 0 l 1,6,-1
 730 448 l 1,7,-1
 410 448 l 1,0,-1
698 640 m 1,8,-1
 570 1408 l 1,9,-1
 442 640 l 1,10,-1
 698 640 l 1,8,-1
EndSplineSet
EndChar

StartChar: B
Encoding: 66 66 35
Width: 1184
Flags: W
LayerCount: 2
Fore
SplineSet
512 1792 m 2,0,1
 624 1792 624 1792 708 1772 c 128,-1,2
 792 1752 792 1752 852.5 1718.5 c 128,-1,3
 913 1685 913 1685 953 1640 c 128,-1,4
 993 1595 993 1595 1016 1545.5 c 128,-1,5
 1039 1496 1039 1496 1048.5 1444 c 128,-1,6
 1058 1392 1058 1392 1058 1344 c 0,7,8
 1058 1272 1058 1272 1045.5 1212 c 128,-1,9
 1033 1152 1033 1152 1000 1104 c 128,-1,10
 967 1056 967 1056 911 1020 c 128,-1,11
 855 984 855 984 768 960 c 1,12,13
 840 936 840 936 899 902 c 128,-1,14
 958 868 958 868 1000 816.5 c 128,-1,15
 1042 765 1042 765 1065 691 c 128,-1,16
 1088 617 1088 617 1088 512 c 0,17,18
 1088 399 1088 399 1053 305 c 128,-1,19
 1018 211 1018 211 952 143.5 c 128,-1,20
 886 76 886 76 791 38 c 128,-1,21
 696 0 696 0 576 0 c 2,22,-1
 128 0 l 1,23,-1
 128 1792 l 1,24,-1
 512 1792 l 2,0,1
384 192 m 1,25,-1
 512 192 l 2,26,27
 584 192 584 192 643 206 c 128,-1,28
 702 220 702 220 744 256 c 128,-1,29
 786 292 786 292 809 354 c 128,-1,30
 832 416 832 416 832 512 c 256,31,32
 832 608 832 608 809 670 c 128,-1,33
 786 732 786 732 744 768 c 128,-1,34
 702 804 702 804 643 818 c 128,-1,35
 584 832 584 832 512 832 c 2,36,-1
 384 832 l 1,37,-1
 384 192 l 1,25,-1
384 1024 m 1,38,-1
 512 1024 l 2,39,40
 544 1024 544 1024 580 1028 c 128,-1,41
 616 1032 616 1032 651.5 1043.5 c 128,-1,42
 687 1055 687 1055 720 1076.5 c 128,-1,43
 753 1098 753 1098 777.5 1133.5 c 128,-1,44
 802 1169 802 1169 817 1220.5 c 128,-1,45
 832 1272 832 1272 832 1344 c 0,46,47
 832 1440 832 1440 798 1492 c 128,-1,48
 764 1544 764 1544 704 1568 c 128,-1,49
 644 1592 644 1592 562 1596 c 128,-1,50
 480 1600 480 1600 384 1600 c 1,51,-1
 384 1024 l 1,38,-1
EndSplineSet
EndChar

StartChar: C
Encoding: 67 67 36
Width: 1216
Flags: W
LayerCount: 2
Fore
SplineSet
1120 640 m 1,0,-1
 1120 576 l 2,1,2
 1120 456 1120 456 1094 348 c 128,-1,3
 1068 240 1068 240 1008 159 c 128,-1,4
 948 78 948 78 850 30 c 128,-1,5
 752 -18 752 -18 608 -18 c 256,6,7
 464 -18 464 -18 366 31 c 128,-1,8
 268 80 268 80 208 167.5 c 128,-1,9
 148 255 148 255 122 376 c 128,-1,10
 96 497 96 497 96 641 c 2,11,-1
 96 1152 l 2,12,13
 96 1296 96 1296 122 1417 c 128,-1,14
 148 1538 148 1538 208 1625 c 128,-1,15
 268 1712 268 1712 366 1761 c 128,-1,16
 464 1810 464 1810 608 1810 c 0,17,18
 744 1810 744 1810 841.5 1766.5 c 128,-1,19
 939 1723 939 1723 1000.5 1645 c 128,-1,20
 1062 1567 1062 1567 1091 1457.5 c 128,-1,21
 1120 1348 1120 1348 1120 1216 c 1,22,-1
 864 1216 l 1,23,24
 864 1312 864 1312 851 1384 c 128,-1,25
 838 1456 838 1456 808 1504 c 128,-1,26
 778 1552 778 1552 729 1576 c 128,-1,27
 680 1600 680 1600 608 1600 c 256,28,29
 536 1600 536 1600 487 1576 c 128,-1,30
 438 1552 438 1552 408 1504 c 128,-1,31
 378 1456 378 1456 365 1384 c 128,-1,32
 352 1312 352 1312 352 1216 c 2,33,-1
 352 576 l 2,34,35
 352 504 352 504 365 435 c 128,-1,36
 378 366 378 366 408 312 c 128,-1,37
 438 258 438 258 487 225 c 128,-1,38
 536 192 536 192 608 192 c 256,39,40
 680 192 680 192 729 225 c 128,-1,41
 778 258 778 258 808 312 c 128,-1,42
 838 366 838 366 851 435 c 128,-1,43
 864 504 864 504 864 576 c 2,44,-1
 864 640 l 1,45,-1
 1120 640 l 1,0,-1
EndSplineSet
EndChar

StartChar: D
Encoding: 68 68 37
Width: 1120
Flags: W
LayerCount: 2
Fore
SplineSet
128 0 m 1,0,-1
 128 1792 l 1,1,-1
 512 1792 l 2,2,3
 656 1792 656 1792 754 1766 c 128,-1,4
 852 1740 852 1740 912 1680 c 128,-1,5
 972 1620 972 1620 998 1522 c 128,-1,6
 1024 1424 1024 1424 1024 1280 c 2,7,-1
 1024 576 l 2,8,9
 1024 432 1024 432 998 324 c 128,-1,10
 972 216 972 216 912 144 c 128,-1,11
 852 72 852 72 753.5 36 c 128,-1,12
 655 0 655 0 510 0 c 2,13,-1
 128 0 l 1,0,-1
512 192 m 2,14,15
 608 192 608 192 660 217 c 128,-1,16
 712 242 712 242 736 296 c 128,-1,17
 760 350 760 350 764 435 c 128,-1,18
 768 520 768 520 768 640 c 2,19,-1
 768 1216 l 2,20,21
 768 1312 768 1312 764 1384 c 128,-1,22
 760 1456 760 1456 735.5 1504 c 128,-1,23
 711 1552 711 1552 658 1576 c 128,-1,24
 605 1600 605 1600 507 1600 c 2,25,-1
 384 1600 l 1,26,-1
 384 192 l 1,27,-1
 512 192 l 2,14,15
EndSplineSet
EndChar

StartChar: E
Encoding: 69 69 38
Width: 896
Flags: W
LayerCount: 2
Fore
SplineSet
704 832 m 1,0,-1
 384 832 l 1,1,-1
 384 192 l 1,2,-1
 832 192 l 1,3,-1
 832 0 l 1,4,-1
 128 0 l 1,5,-1
 128 1792 l 1,6,-1
 832 1792 l 1,7,-1
 832 1600 l 1,8,-1
 384 1600 l 1,9,-1
 384 1024 l 1,10,-1
 704 1024 l 1,11,-1
 704 832 l 1,0,-1
EndSplineSet
EndChar

StartChar: F
Encoding: 70 70 39
Width: 896
Flags: W
LayerCount: 2
Fore
SplineSet
832 1600 m 1,0,-1
 384 1600 l 1,1,-1
 384 1024 l 1,2,-1
 704 1024 l 1,3,-1
 704 832 l 1,4,-1
 384 832 l 1,5,-1
 384 0 l 1,6,-1
 128 0 l 1,7,-1
 128 1792 l 1,8,-1
 832 1792 l 1,9,-1
 832 1600 l 1,0,-1
EndSplineSet
EndChar

StartChar: G
Encoding: 71 71 40
Width: 1216
Flags: W
LayerCount: 2
Fore
SplineSet
864 1216 m 1,0,1
 864 1312 864 1312 851 1384 c 128,-1,2
 838 1456 838 1456 808 1504 c 128,-1,3
 778 1552 778 1552 729 1576 c 128,-1,4
 680 1600 680 1600 608 1600 c 256,5,6
 536 1600 536 1600 487 1576 c 128,-1,7
 438 1552 438 1552 408 1504 c 128,-1,8
 378 1456 378 1456 365 1384 c 128,-1,9
 352 1312 352 1312 352 1216 c 2,10,-1
 352 640 l 2,11,12
 352 496 352 496 374 408 c 128,-1,13
 396 320 396 320 432 272 c 128,-1,14
 468 224 468 224 514 208 c 128,-1,15
 560 192 560 192 608 192 c 256,16,17
 656 192 656 192 702 208 c 128,-1,18
 748 224 748 224 784 272 c 128,-1,19
 820 320 820 320 842 408 c 128,-1,20
 864 496 864 496 864 640 c 2,21,-1
 864 704 l 1,22,-1
 608 704 l 1,23,-1
 608 896 l 1,24,-1
 1120 896 l 1,25,-1
 1120 0 l 1,26,-1
 928 0 l 1,27,-1
 864 192 l 1,28,29
 852 159 852 159 832 122.5 c 128,-1,30
 812 86 812 86 781.5 54.5 c 128,-1,31
 751 23 751 23 708 2.5 c 128,-1,32
 665 -18 665 -18 608 -18 c 0,33,34
 528 -18 528 -18 459 -4.5 c 128,-1,35
 390 9 390 9 333 41 c 128,-1,36
 276 73 276 73 232 126 c 128,-1,37
 188 179 188 179 157.5 259 c 128,-1,38
 127 339 127 339 111.5 447 c 128,-1,39
 96 555 96 555 96 698 c 2,40,-1
 96 1152 l 2,41,42
 96 1296 96 1296 122 1417 c 128,-1,43
 148 1538 148 1538 208 1625 c 128,-1,44
 268 1712 268 1712 366 1761 c 128,-1,45
 464 1810 464 1810 608 1810 c 0,46,47
 735 1810 735 1810 830.5 1770.5 c 128,-1,48
 926 1731 926 1731 990.5 1655.5 c 128,-1,49
 1055 1580 1055 1580 1087.5 1469 c 128,-1,50
 1120 1358 1120 1358 1120 1216 c 1,51,-1
 864 1216 l 1,0,1
EndSplineSet
EndChar

StartChar: H
Encoding: 72 72 41
Width: 1216
Flags: W
LayerCount: 2
Fore
SplineSet
832 832 m 1,0,-1
 384 832 l 1,1,-1
 384 0 l 1,2,-1
 128 0 l 1,3,-1
 128 1792 l 1,4,-1
 384 1792 l 1,5,-1
 384 1024 l 1,6,-1
 832 1024 l 1,7,-1
 832 1792 l 1,8,-1
 1088 1792 l 1,9,-1
 1088 0 l 1,10,-1
 832 0 l 1,11,-1
 832 832 l 1,0,-1
EndSplineSet
EndChar

StartChar: I
Encoding: 73 73 42
Width: 542
Flags: W
LayerCount: 2
Fore
SplineSet
140 1792 m 1,0,-1
 396 1792 l 1,1,-1
 396 0 l 1,2,-1
 140 0 l 1,3,-1
 140 1792 l 1,0,-1
EndSplineSet
EndChar

StartChar: J
Encoding: 74 74 43
Width: 640
Flags: W
LayerCount: 2
Fore
SplineSet
512 1792 m 1,0,-1
 512 448 l 2,1,2
 512 328 512 328 497 243 c 128,-1,3
 482 158 482 158 440 104 c 128,-1,4
 398 50 398 50 323 25 c 128,-1,5
 248 0 248 0 128 0 c 2,6,-1
 0 0 l 1,7,-1
 0 192 l 1,8,9
 72 192 72 192 121 196 c 128,-1,10
 170 200 170 200 200 224 c 128,-1,11
 230 248 230 248 243 300 c 128,-1,12
 256 352 256 352 256 448 c 2,13,-1
 256 1792 l 1,14,-1
 512 1792 l 1,0,-1
EndSplineSet
EndChar

StartChar: K
Encoding: 75 75 44
Width: 1216
Flags: W
LayerCount: 2
Fore
SplineSet
1152 0 m 1,0,-1
 832 0 l 1,1,-1
 512 832 l 1,2,-1
 384 576 l 1,3,-1
 384 0 l 1,4,-1
 128 0 l 1,5,-1
 128 1792 l 1,6,-1
 384 1792 l 1,7,-1
 384 1024 l 1,8,-1
 768 1792 l 1,9,-1
 1088 1792 l 1,10,-1
 703 1088 l 1,11,-1
 1152 0 l 1,0,-1
EndSplineSet
EndChar

StartChar: L
Encoding: 76 76 45
Width: 896
Flags: W
LayerCount: 2
Fore
SplineSet
128 0 m 1,0,-1
 128 1792 l 1,1,-1
 384 1792 l 1,2,-1
 384 192 l 1,3,-1
 832 192 l 1,4,-1
 832 0 l 1,5,-1
 128 0 l 1,0,-1
EndSplineSet
EndChar

StartChar: M
Encoding: 77 77 46
Width: 1472
Flags: W
LayerCount: 2
Fore
SplineSet
640 0 m 1,0,-1
 384 1414 l 1,1,-1
 384 0 l 1,2,-1
 128 0 l 1,3,-1
 128 1792 l 1,4,-1
 482 1792 l 1,5,-1
 736 420 l 1,6,-1
 990 1792 l 1,7,-1
 1344 1792 l 1,8,-1
 1344 0 l 1,9,-1
 1088 0 l 1,10,-1
 1088 1414 l 1,11,-1
 832 0 l 1,12,-1
 640 0 l 1,0,-1
EndSplineSet
EndChar

StartChar: N
Encoding: 78 78 47
Width: 1152
Flags: W
LayerCount: 2
Fore
SplineSet
842 0 m 1,0,-1
 384 1192 l 1,1,-1
 384 0 l 1,2,-1
 128 0 l 1,3,-1
 128 1792 l 1,4,-1
 320 1792 l 1,5,-1
 768 684 l 1,6,-1
 768 1792 l 1,7,-1
 1024 1792 l 1,8,-1
 1024 0 l 1,9,-1
 842 0 l 1,0,-1
EndSplineSet
EndChar

StartChar: O
Encoding: 79 79 48
Width: 1216
Flags: W
LayerCount: 2
Fore
SplineSet
1120 576 m 2,0,1
 1120 456 1120 456 1095 348 c 128,-1,2
 1070 240 1070 240 1011 159 c 128,-1,3
 952 78 952 78 853.5 30 c 128,-1,4
 755 -18 755 -18 608 -18 c 0,5,6
 508 -18 508 -18 431 4 c 128,-1,7
 354 26 354 26 297.5 65 c 128,-1,8
 241 104 241 104 202 159 c 128,-1,9
 163 214 163 214 139.5 280 c 128,-1,10
 116 346 116 346 106 421 c 128,-1,11
 96 496 96 496 96 576 c 2,12,-1
 96 1216 l 2,13,14
 96 1296 96 1296 106 1371 c 128,-1,15
 116 1446 116 1446 139.5 1512 c 128,-1,16
 163 1578 163 1578 202 1633 c 128,-1,17
 241 1688 241 1688 297.5 1727 c 128,-1,18
 354 1766 354 1766 431 1788 c 128,-1,19
 508 1810 508 1810 608 1810 c 0,20,21
 755 1810 755 1810 853.5 1762 c 128,-1,22
 952 1714 952 1714 1011 1633 c 128,-1,23
 1070 1552 1070 1552 1095 1444 c 128,-1,24
 1120 1336 1120 1336 1120 1216 c 2,25,-1
 1120 576 l 2,0,1
352 512 m 2,26,27
 352 440 352 440 365 381 c 128,-1,28
 378 322 378 322 408 280 c 128,-1,29
 438 238 438 238 487 215 c 128,-1,30
 536 192 536 192 608 192 c 256,31,32
 680 192 680 192 729 215 c 128,-1,33
 778 238 778 238 808 280 c 128,-1,34
 838 322 838 322 851 381 c 128,-1,35
 864 440 864 440 864 512 c 2,36,-1
 864 1280 l 2,37,38
 864 1352 864 1352 851 1411 c 128,-1,39
 838 1470 838 1470 808 1512 c 128,-1,40
 778 1554 778 1554 729 1577 c 128,-1,41
 680 1600 680 1600 608 1600 c 256,42,43
 536 1600 536 1600 487 1577 c 128,-1,44
 438 1554 438 1554 408 1512 c 128,-1,45
 378 1470 378 1470 365 1411 c 128,-1,46
 352 1352 352 1352 352 1280 c 2,47,-1
 352 512 l 2,26,27
EndSplineSet
EndChar

StartChar: P
Encoding: 80 80 49
Width: 1088
Flags: W
LayerCount: 2
Fore
SplineSet
576 1792 m 2,0,1
 696 1792 696 1792 781 1757 c 128,-1,2
 866 1722 866 1722 920 1656 c 128,-1,3
 974 1590 974 1590 999 1495 c 128,-1,4
 1024 1400 1024 1400 1024 1280 c 256,5,6
 1024 1160 1024 1160 990 1075 c 128,-1,7
 956 990 956 990 896 936 c 128,-1,8
 836 882 836 882 754 857 c 128,-1,9
 672 832 672 832 576 832 c 2,10,-1
 384 832 l 1,11,-1
 384 0 l 1,12,-1
 128 0 l 1,13,-1
 128 1792 l 1,14,-1
 576 1792 l 2,0,1
448 1024 m 2,15,16
 544 1024 544 1024 606 1037 c 128,-1,17
 668 1050 668 1050 704 1080 c 128,-1,18
 740 1110 740 1110 754 1159 c 128,-1,19
 768 1208 768 1208 768 1280 c 256,20,21
 768 1352 768 1352 763 1411 c 128,-1,22
 758 1470 758 1470 728 1512 c 128,-1,23
 698 1554 698 1554 633 1577 c 128,-1,24
 568 1600 568 1600 448 1600 c 2,25,-1
 384 1600 l 1,26,-1
 384 1024 l 1,27,-1
 448 1024 l 2,15,16
EndSplineSet
EndChar

StartChar: Q
Encoding: 81 81 50
Width: 1216
Flags: W
LayerCount: 2
Fore
SplineSet
1120 576 m 2,0,1
 1120 495 1120 495 1109.5 420 c 128,-1,2
 1099 345 1099 345 1074.5 279 c 128,-1,3
 1050 213 1050 213 1010 158.5 c 128,-1,4
 970 104 970 104 912 64 c 1,5,6
 936 40 936 40 972 20 c 128,-1,7
 1008 0 1008 0 1056 0 c 1,8,-1
 1056 -192 l 1,9,10
 1009 -192 1009 -192 967 -178.5 c 128,-1,11
 925 -165 925 -165 886.5 -141 c 128,-1,12
 848 -117 848 -117 812 -82.5 c 128,-1,13
 776 -48 776 -48 741 -6 c 1,14,15
 679 -18 679 -18 608 -18 c 0,16,17
 508 -18 508 -18 431 4 c 128,-1,18
 354 26 354 26 297.5 65 c 128,-1,19
 241 104 241 104 202 159 c 128,-1,20
 163 214 163 214 139.5 280 c 128,-1,21
 116 346 116 346 106 421 c 128,-1,22
 96 496 96 496 96 576 c 2,23,-1
 96 1216 l 2,24,25
 96 1296 96 1296 106 1371 c 128,-1,26
 116 1446 116 1446 139.5 1512 c 128,-1,27
 163 1578 163 1578 202 1633 c 128,-1,28
 241 1688 241 1688 297.5 1727 c 128,-1,29
 354 1766 354 1766 431 1788 c 128,-1,30
 508 1810 508 1810 608 1810 c 0,31,32
 755 1810 755 1810 853.5 1762 c 128,-1,33
 952 1714 952 1714 1011 1633 c 128,-1,34
 1070 1552 1070 1552 1095 1444 c 128,-1,35
 1120 1336 1120 1336 1120 1216 c 2,36,-1
 1120 576 l 2,0,1
352 512 m 2,37,38
 352 440 352 440 365 381 c 128,-1,39
 378 322 378 322 408 280 c 128,-1,40
 438 238 438 238 487 215 c 128,-1,41
 536 192 536 192 608 192 c 256,42,43
 680 192 680 192 729 215 c 128,-1,44
 778 238 778 238 808 280 c 128,-1,45
 838 322 838 322 851 381 c 128,-1,46
 864 440 864 440 864 512 c 2,47,-1
 864 1280 l 2,48,49
 864 1352 864 1352 851 1411 c 128,-1,50
 838 1470 838 1470 808 1512 c 128,-1,51
 778 1554 778 1554 729 1577 c 128,-1,52
 680 1600 680 1600 608 1600 c 256,53,54
 536 1600 536 1600 487 1577 c 128,-1,55
 438 1554 438 1554 408 1512 c 128,-1,56
 378 1470 378 1470 365 1411 c 128,-1,57
 352 1352 352 1352 352 1280 c 2,58,-1
 352 512 l 2,37,38
EndSplineSet
EndChar

StartChar: R
Encoding: 82 82 51
Width: 1152
Flags: W
LayerCount: 2
Fore
SplineSet
834 0 m 1,0,-1
 576 832 l 1,1,-1
 384 832 l 1,2,-1
 384 0 l 1,3,-1
 128 0 l 1,4,-1
 128 1792 l 1,5,-1
 448 1792 l 2,6,7
 616 1792 616 1792 727 1757.5 c 128,-1,8
 838 1723 838 1723 904 1660 c 128,-1,9
 970 1597 970 1597 997 1508.5 c 128,-1,10
 1024 1420 1024 1420 1024 1312 c 0,11,12
 1024 1205 1024 1205 1001.5 1131.5 c 128,-1,13
 979 1058 979 1058 945 1009.5 c 128,-1,14
 911 961 911 961 872 934.5 c 128,-1,15
 833 908 833 908 800 896 c 1,16,-1
 1088 0 l 1,17,-1
 834 0 l 1,0,-1
384 1024 m 1,18,-1
 448 1024 l 2,19,20
 520 1024 520 1024 579 1037.5 c 128,-1,21
 638 1051 638 1051 680 1084 c 128,-1,22
 722 1117 722 1117 745 1172.5 c 128,-1,23
 768 1228 768 1228 768 1312 c 256,24,25
 768 1396 768 1396 745 1451.5 c 128,-1,26
 722 1507 722 1507 680 1540 c 128,-1,27
 638 1573 638 1573 579 1586.5 c 128,-1,28
 520 1600 520 1600 448 1600 c 2,29,-1
 384 1600 l 1,30,-1
 384 1024 l 1,18,-1
EndSplineSet
EndChar

StartChar: S
Encoding: 83 83 52
Width: 1132
Flags: W
LayerCount: 2
Fore
SplineSet
608 -18 m 0,0,1
 512 -18 512 -18 439 4.5 c 128,-1,2
 366 27 366 27 312 64.5 c 128,-1,3
 258 102 258 102 221 149.5 c 128,-1,4
 184 197 184 197 160 247 c 0,5,6
 132 305 132 305 116 371 c 128,-1,7
 100 437 100 437 96 512 c 1,8,-1
 352 576 l 1,9,10
 355 516 355 516 366.5 448.5 c 128,-1,11
 378 381 378 381 406.5 324 c 128,-1,12
 435 267 435 267 483.5 229.5 c 128,-1,13
 532 192 532 192 608 192 c 0,14,15
 800 192 800 192 800 384 c 0,16,17
 800 432 800 432 788 473.5 c 128,-1,18
 776 515 776 515 752 553.5 c 128,-1,19
 728 592 728 592 692 628.5 c 128,-1,20
 656 665 656 665 608 704 c 2,21,-1
 288 960 l 2,22,23
 238 999 238 999 202 1048.5 c 128,-1,24
 166 1098 166 1098 142 1153 c 128,-1,25
 118 1208 118 1208 106.5 1265 c 128,-1,26
 95 1322 95 1322 95 1378 c 0,27,28
 95 1464 95 1464 124 1542.5 c 128,-1,29
 153 1621 153 1621 209.5 1680.5 c 128,-1,30
 266 1740 266 1740 350 1775 c 128,-1,31
 434 1810 434 1810 544 1810 c 0,32,33
 638 1810 638 1810 711 1790 c 128,-1,34
 784 1770 784 1770 838.5 1737 c 128,-1,35
 893 1704 893 1704 930.5 1662 c 128,-1,36
 968 1620 968 1620 992 1577 c 0,37,38
 1020 1525 1020 1525 1035.5 1466.5 c 128,-1,39
 1051 1408 1051 1408 1056 1344 c 1,40,-1
 800 1280 l 1,41,42
 797 1329 797 1329 785.5 1385 c 128,-1,43
 774 1441 774 1441 745.5 1489 c 128,-1,44
 717 1537 717 1537 668.5 1568.5 c 128,-1,45
 620 1600 620 1600 544 1600 c 0,46,47
 493 1600 493 1600 456.5 1584.5 c 128,-1,48
 420 1569 420 1569 397 1542 c 128,-1,49
 374 1515 374 1515 363 1479.5 c 128,-1,50
 352 1444 352 1444 352 1405 c 0,51,52
 352 1339 352 1339 383.5 1271.5 c 128,-1,53
 415 1204 415 1204 480 1152 c 2,54,-1
 800 896 l 2,55,56
 861 847 861 847 908.5 788.5 c 128,-1,57
 956 730 956 730 989 666 c 128,-1,58
 1022 602 1022 602 1039 534.5 c 128,-1,59
 1056 467 1056 467 1056 401 c 0,60,61
 1056 318 1056 318 1029 242.5 c 128,-1,62
 1002 167 1002 167 946.5 109 c 128,-1,63
 891 51 891 51 807 16.5 c 128,-1,64
 723 -18 723 -18 608 -18 c 0,0,1
EndSplineSet
EndChar

StartChar: T
Encoding: 84 84 53
Width: 1024
Flags: W
LayerCount: 2
Fore
SplineSet
960 1792 m 1,0,-1
 960 1564 l 1,1,-1
 640 1564 l 1,2,-1
 640 0 l 1,3,-1
 384 0 l 1,4,-1
 384 1564 l 1,5,-1
 64 1564 l 1,6,-1
 64 1792 l 1,7,-1
 960 1792 l 1,0,-1
EndSplineSet
EndChar

StartChar: U
Encoding: 85 85 54
Width: 1280
Flags: W
LayerCount: 2
Fore
SplineSet
640 -19 m 256,0,1
 528 -19 528 -19 446.5 7.5 c 128,-1,2
 365 34 365 34 308 80.5 c 128,-1,3
 251 127 251 127 216 190.5 c 128,-1,4
 181 254 181 254 161.5 327 c 128,-1,5
 142 400 142 400 135 480 c 128,-1,6
 128 560 128 560 128 640 c 2,7,-1
 128 1792 l 1,8,-1
 384 1792 l 1,9,-1
 384 640 l 2,10,11
 384 592 384 592 385 540 c 128,-1,12
 386 488 386 488 393.5 438.5 c 128,-1,13
 401 389 401 389 416 344 c 128,-1,14
 431 299 431 299 459.5 265.5 c 128,-1,15
 488 232 488 232 532 212 c 128,-1,16
 576 192 576 192 640 192 c 256,17,18
 704 192 704 192 748 212 c 128,-1,19
 792 232 792 232 820.5 265.5 c 128,-1,20
 849 299 849 299 864 344 c 128,-1,21
 879 389 879 389 886.5 438.5 c 128,-1,22
 894 488 894 488 895 540 c 128,-1,23
 896 592 896 592 896 640 c 2,24,-1
 896 1792 l 1,25,-1
 1152 1792 l 1,26,-1
 1152 640 l 2,27,28
 1152 560 1152 560 1145 480 c 128,-1,29
 1138 400 1138 400 1118.5 327 c 128,-1,30
 1099 254 1099 254 1064 190.5 c 128,-1,31
 1029 127 1029 127 972 80.5 c 128,-1,32
 915 34 915 34 833.5 7.5 c 128,-1,33
 752 -19 752 -19 640 -19 c 256,0,1
EndSplineSet
EndChar

StartChar: V
Encoding: 86 86 55
Width: 1152
Flags: W
LayerCount: 2
Fore
SplineSet
643 832 m 1,0,-1
 832 1792 l 1,1,-1
 1088 1792 l 1,2,-1
 704 0 l 1,3,-1
 448 0 l 1,4,-1
 64 1792 l 1,5,-1
 320 1792 l 1,6,-1
 509 832 l 1,7,-1
 575 384 l 1,8,-1
 643 832 l 1,0,-1
EndSplineSet
EndChar

StartChar: W
Encoding: 87 87 56
Width: 1664
Flags: W
LayerCount: 2
Fore
SplineSet
960 1792 m 1,0,-1
 1088 960 l 1,1,-1
 1151 448 l 1,2,-1
 1216 960 l 1,3,-1
 1344 1792 l 1,4,-1
 1600 1792 l 1,5,-1
 1280 0 l 1,6,-1
 1024 0 l 1,7,-1
 896 832 l 1,8,-1
 832 1344 l 1,9,-1
 768 832 l 1,10,-1
 640 0 l 1,11,-1
 384 0 l 1,12,-1
 64 1792 l 1,13,-1
 320 1792 l 1,14,-1
 448 960 l 1,15,-1
 513 448 l 1,16,-1
 576 960 l 1,17,-1
 704 1792 l 1,18,-1
 960 1792 l 1,0,-1
EndSplineSet
EndChar

StartChar: X
Encoding: 88 88 57
Width: 1152
Flags: W
LayerCount: 2
Fore
SplineSet
576 768 m 1,0,-1
 322 0 l 1,1,-1
 66 0 l 1,2,-1
 384 929 l 1,3,-1
 64 1792 l 1,4,-1
 320 1792 l 1,5,-1
 576 1088 l 1,6,-1
 832 1792 l 1,7,-1
 1088 1792 l 1,8,-1
 768 933 l 1,9,-1
 1084 0 l 1,10,-1
 830 0 l 1,11,-1
 576 768 l 1,0,-1
EndSplineSet
EndChar

StartChar: Y
Encoding: 89 89 58
Width: 1082
Flags: W
LayerCount: 2
Fore
SplineSet
413 0 m 1,0,-1
 413 576 l 1,1,-1
 29 1792 l 1,2,-1
 285 1792 l 1,3,-1
 541 896 l 1,4,-1
 797 1792 l 1,5,-1
 1053 1792 l 1,6,-1
 669 576 l 1,7,-1
 669 0 l 1,8,-1
 413 0 l 1,0,-1
EndSplineSet
EndChar

StartChar: Z
Encoding: 90 90 59
Width: 960
Flags: W
LayerCount: 2
Fore
SplineSet
320 192 m 1,0,-1
 896 192 l 1,1,-1
 896 0 l 1,2,-1
 64 0 l 1,3,-1
 64 192 l 1,4,-1
 640 1600 l 1,5,-1
 128 1600 l 1,6,-1
 128 1792 l 1,7,-1
 896 1792 l 1,8,-1
 896 1600 l 1,9,-1
 320 192 l 1,0,-1
EndSplineSet
EndChar

StartChar: bracketleft
Encoding: 91 91 60
Width: 768
Flags: W
LayerCount: 2
Fore
SplineSet
128 1856 m 1,0,-1
 640 1856 l 1,1,-1
 640 1728 l 1,2,-1
 384 1728 l 1,3,-1
 384 64 l 1,4,-1
 640 64 l 1,5,-1
 640 -64 l 1,6,-1
 128 -64 l 1,7,-1
 128 1856 l 1,0,-1
EndSplineSet
EndChar

StartChar: backslash
Encoding: 92 92 61
Width: 576
Flags: W
LayerCount: 2
Fore
SplineSet
512 0 m 1,0,-1
 256 0 l 1,1,-1
 64 1792 l 1,2,-1
 320 1792 l 1,3,-1
 512 0 l 1,0,-1
EndSplineSet
EndChar

StartChar: bracketright
Encoding: 93 93 62
Width: 768
Flags: W
LayerCount: 2
Fore
SplineSet
640 -64 m 1,0,-1
 128 -64 l 1,1,-1
 128 64 l 1,2,-1
 384 64 l 1,3,-1
 384 1728 l 1,4,-1
 128 1728 l 1,5,-1
 128 1856 l 1,6,-1
 640 1856 l 1,7,-1
 640 -64 l 1,0,-1
EndSplineSet
EndChar

StartChar: asciicircum
Encoding: 94 94 63
Width: 896
Flags: W
LayerCount: 2
Fore
SplineSet
576 1536 m 1,0,-1
 832 896 l 1,1,-1
 576 896 l 1,2,-1
 447 1344 l 1,3,-1
 320 896 l 1,4,-1
 64 896 l 1,5,-1
 320 1536 l 1,6,-1
 576 1536 l 1,0,-1
EndSplineSet
EndChar

StartChar: underscore
Encoding: 95 95 64
Width: 768
Flags: W
LayerCount: 2
Fore
SplineSet
0 192 m 1,0,-1
 768 192 l 1,1,-1
 768 0 l 1,2,-1
 0 0 l 1,3,-1
 0 192 l 1,0,-1
EndSplineSet
EndChar

StartChar: grave
Encoding: 96 96 65
Width: 640
Flags: W
LayerCount: 2
Fore
SplineSet
128 1792 m 1,0,-1
 384 1792 l 1,1,-1
 512 1408 l 1,2,-1
 384 1408 l 1,3,-1
 128 1792 l 1,0,-1
EndSplineSet
EndChar

StartChar: a
Encoding: 97 97 66
Width: 973
Flags: W
LayerCount: 2
Fore
SplineSet
352 -18 m 256,0,1
 304 -18 304 -18 258 7 c 128,-1,2
 212 32 212 32 176 74 c 128,-1,3
 140 116 140 116 118 170 c 128,-1,4
 96 224 96 224 96 283 c 0,5,6
 96 332 96 332 101 377 c 128,-1,7
 106 422 106 422 124 464.5 c 128,-1,8
 142 507 142 507 175.5 548 c 128,-1,9
 209 589 209 589 266 630.5 c 128,-1,10
 323 672 323 672 406.5 715 c 128,-1,11
 490 758 490 758 608 804 c 1,12,-1
 608 896 l 2,13,14
 608 962 608 962 597 1002.5 c 128,-1,15
 586 1043 586 1043 568 1064.5 c 128,-1,16
 550 1086 550 1086 527 1093 c 128,-1,17
 504 1100 504 1100 480 1100 c 256,18,19
 456 1100 456 1100 433 1092.5 c 128,-1,20
 410 1085 410 1085 392 1063 c 128,-1,21
 374 1041 374 1041 363 1001 c 128,-1,22
 352 961 352 961 352 896 c 1,23,-1
 96 896 l 1,24,25
 97 987 97 987 124.5 1061.5 c 128,-1,26
 152 1136 152 1136 202 1188.5 c 128,-1,27
 252 1241 252 1241 322.5 1269.5 c 128,-1,28
 393 1298 393 1298 480 1298 c 0,29,30
 583 1298 583 1298 655.5 1262 c 128,-1,31
 728 1226 728 1226 774.5 1169 c 128,-1,32
 821 1112 821 1112 842.5 1040 c 128,-1,33
 864 968 864 968 864 896 c 2,34,-1
 864 320 l 2,35,36
 864 203 864 203 873.5 126.5 c 128,-1,37
 883 50 883 50 897 0 c 1,38,-1
 642 0 l 1,39,-1
 608 192 l 1,40,41
 584 144 584 144 559 105 c 128,-1,42
 534 66 534 66 504 39 c 128,-1,43
 474 12 474 12 437 -3 c 128,-1,44
 400 -18 400 -18 352 -18 c 256,0,1
352 351 m 0,45,46
 352 303 352 303 363 272.5 c 128,-1,47
 374 242 374 242 392 224 c 128,-1,48
 410 206 410 206 433 199 c 128,-1,49
 456 192 456 192 480 192 c 0,50,51
 499 192 499 192 517.5 201 c 128,-1,52
 536 210 536 210 552.5 223.5 c 128,-1,53
 569 237 569 237 583 254 c 128,-1,54
 597 271 597 271 608 286 c 1,55,-1
 608 640 l 1,56,57
 543 597 543 597 495 563 c 128,-1,58
 447 529 447 529 415.5 496 c 128,-1,59
 384 463 384 463 368 428.5 c 128,-1,60
 352 394 352 394 352 351 c 0,45,46
EndSplineSet
PairPos2: "'kern' Horizontal Kerning lookup 0 per glyph data 0" tcommaaccent dx=0 dy=0 dh=-34 dv=0 dx=0 dy=0 dh=0 dv=0
EndChar

StartChar: b
Encoding: 98 98 67
Width: 1056
Flags: W
LayerCount: 2
Fore
SplineSet
384 232 m 1,0,1
 441 209 441 209 493 200.5 c 128,-1,2
 545 192 545 192 576 192 c 0,3,4
 615 192 615 192 640 218.5 c 128,-1,5
 665 245 665 245 679 305.5 c 128,-1,6
 693 366 693 366 698.5 464 c 128,-1,7
 704 562 704 562 704 705 c 0,8,9
 704 789 704 789 702 859.5 c 128,-1,10
 700 930 700 930 688 980.5 c 128,-1,11
 676 1031 676 1031 650 1059.5 c 128,-1,12
 624 1088 624 1088 576 1088 c 256,13,14
 528 1088 528 1088 476 1074.5 c 128,-1,15
 424 1061 424 1061 384 1037 c 1,16,-1
 384 232 l 1,0,1
384 1153 m 1,17,18
 433 1205 433 1205 473 1234.5 c 128,-1,19
 513 1264 513 1264 544.5 1278 c 128,-1,20
 576 1292 576 1292 600.5 1295 c 128,-1,21
 625 1298 625 1298 644 1298 c 0,22,23
 734 1298 734 1298 794.5 1259.5 c 128,-1,24
 855 1221 855 1221 891.5 1135 c 128,-1,25
 928 1049 928 1049 944 912 c 128,-1,26
 960 775 960 775 960 577 c 0,27,28
 960 519 960 519 953.5 452.5 c 128,-1,29
 947 386 947 386 932.5 320 c 128,-1,30
 918 254 918 254 893.5 192.5 c 128,-1,31
 869 131 869 131 833.5 84.5 c 128,-1,32
 798 38 798 38 750 10 c 128,-1,33
 702 -18 702 -18 640 -18 c 0,34,35
 603 -18 603 -18 568 -7 c 128,-1,36
 533 4 533 4 500.5 22.5 c 128,-1,37
 468 41 468 41 438.5 65.5 c 128,-1,38
 409 90 409 90 384 116 c 1,39,-1
 384 0 l 1,40,-1
 128 0 l 1,41,-1
 128 1791 l 1,42,-1
 384 1791 l 1,43,-1
 384 1153 l 1,17,18
EndSplineSet
EndChar

StartChar: c
Encoding: 99 99 68
Width: 923
Flags: W
LayerCount: 2
Fore
SplineSet
480 -18 m 0,0,1
 384 -18 384 -18 318 13 c 128,-1,2
 252 44 252 44 209.5 95.5 c 128,-1,3
 167 147 167 147 144 215 c 128,-1,4
 121 283 121 283 110.5 356 c 128,-1,5
 100 429 100 429 98 502.5 c 128,-1,6
 96 576 96 576 96 640 c 256,7,8
 96 704 96 704 98 777.5 c 128,-1,9
 100 851 100 851 110.5 924 c 128,-1,10
 121 997 121 997 144 1065 c 128,-1,11
 167 1133 167 1133 209.5 1184.5 c 128,-1,12
 252 1236 252 1236 318 1267 c 128,-1,13
 384 1298 384 1298 480 1298 c 0,14,15
 578 1298 578 1298 644.5 1272.5 c 128,-1,16
 711 1247 711 1247 753.5 1206 c 128,-1,17
 796 1165 796 1165 819 1113 c 128,-1,18
 842 1061 842 1061 852 1009.5 c 128,-1,19
 862 958 862 958 863 911 c 128,-1,20
 864 864 864 864 864 832 c 1,21,-1
 608 832 l 1,22,23
 608 848 608 848 607.5 874 c 128,-1,24
 607 900 607 900 604 929.5 c 128,-1,25
 601 959 601 959 593.5 989.5 c 128,-1,26
 586 1020 586 1020 571.5 1044 c 128,-1,27
 557 1068 557 1068 535 1083.5 c 128,-1,28
 513 1099 513 1099 480 1099 c 0,29,30
 432 1099 432 1099 406 1063.5 c 128,-1,31
 380 1028 380 1028 368 965.5 c 128,-1,32
 356 903 356 903 354 819.5 c 128,-1,33
 352 736 352 736 352 640 c 256,34,35
 352 544 352 544 354 462 c 128,-1,36
 356 380 356 380 368 320 c 128,-1,37
 380 260 380 260 406 226 c 128,-1,38
 432 192 432 192 480 192 c 256,39,40
 528 192 528 192 554 214 c 128,-1,41
 580 236 580 236 592 272 c 128,-1,42
 604 308 604 308 606 354 c 128,-1,43
 608 400 608 400 608 448 c 1,44,-1
 864 448 l 1,45,46
 864 416 864 416 862 369 c 128,-1,47
 860 322 860 322 848.5 270.5 c 128,-1,48
 837 219 837 219 813.5 167 c 128,-1,49
 790 115 790 115 747.5 74 c 128,-1,50
 705 33 705 33 639.5 7.5 c 128,-1,51
 574 -18 574 -18 480 -18 c 0,0,1
EndSplineSet
EndChar

StartChar: d
Encoding: 100 100 69
Width: 1056
Flags: W
LayerCount: 2
Fore
SplineSet
672 1037 m 1,0,1
 632 1061 632 1061 580 1074.5 c 128,-1,2
 528 1088 528 1088 480 1088 c 256,3,4
 432 1088 432 1088 406 1059.5 c 128,-1,5
 380 1031 380 1031 368 980.5 c 128,-1,6
 356 930 356 930 354 859.5 c 128,-1,7
 352 789 352 789 352 705 c 0,8,9
 352 562 352 562 357.5 464 c 128,-1,10
 363 366 363 366 377 305.5 c 128,-1,11
 391 245 391 245 416 218.5 c 128,-1,12
 441 192 441 192 480 192 c 0,13,14
 511 192 511 192 563 200.5 c 128,-1,15
 615 209 615 209 672 232 c 1,16,-1
 672 1037 l 1,0,1
672 1791 m 1,17,-1
 928 1791 l 1,18,-1
 928 0 l 1,19,-1
 672 0 l 1,20,-1
 672 116 l 1,21,22
 647 90 647 90 617.5 65.5 c 128,-1,23
 588 41 588 41 555.5 22.5 c 128,-1,24
 523 4 523 4 488 -7 c 128,-1,25
 453 -18 453 -18 416 -18 c 0,26,27
 354 -18 354 -18 306 10 c 128,-1,28
 258 38 258 38 222.5 84.5 c 128,-1,29
 187 131 187 131 162.5 192.5 c 128,-1,30
 138 254 138 254 123.5 320 c 128,-1,31
 109 386 109 386 102.5 452.5 c 128,-1,32
 96 519 96 519 96 577 c 0,33,34
 96 775 96 775 112 912 c 128,-1,35
 128 1049 128 1049 164.5 1135 c 128,-1,36
 201 1221 201 1221 261.5 1259.5 c 128,-1,37
 322 1298 322 1298 412 1298 c 0,38,39
 431 1298 431 1298 455.5 1295 c 128,-1,40
 480 1292 480 1292 511.5 1278 c 128,-1,41
 543 1264 543 1264 582.5 1234.5 c 128,-1,42
 622 1205 622 1205 672 1153 c 1,43,-1
 672 1791 l 1,17,-1
EndSplineSet
EndChar

StartChar: e
Encoding: 101 101 70
Width: 950
Flags: W
LayerCount: 2
Fore
SplineSet
479 -18 m 0,0,1
 383 -18 383 -18 311.5 13.5 c 128,-1,2
 240 45 240 45 192 123 c 128,-1,3
 144 201 144 201 120 334 c 128,-1,4
 96 467 96 467 96 670 c 0,5,6
 96 851 96 851 120 971.5 c 128,-1,7
 144 1092 144 1092 192 1164.5 c 128,-1,8
 240 1237 240 1237 312 1267.5 c 128,-1,9
 384 1298 384 1298 480 1298 c 256,10,11
 576 1298 576 1298 648 1267.5 c 128,-1,12
 720 1237 720 1237 768 1164.5 c 128,-1,13
 816 1092 816 1092 840 971.5 c 128,-1,14
 864 851 864 851 864 670 c 2,15,-1
 864 640 l 1,16,-1
 352 640 l 1,17,-1
 352 576 l 2,18,19
 352 504 352 504 354 435 c 128,-1,20
 356 366 356 366 368 312 c 128,-1,21
 380 258 380 258 406 225 c 128,-1,22
 432 192 432 192 480 192 c 0,23,24
 529 192 529 192 555 214 c 128,-1,25
 581 236 581 236 593 272 c 128,-1,26
 605 308 605 308 607 354 c 128,-1,27
 609 400 609 400 609 448 c 1,28,-1
 864 448 l 1,29,30
 864 208 864 208 768 95 c 128,-1,31
 672 -18 672 -18 479 -18 c 0,0,1
480 1088 m 0,32,33
 432 1088 432 1088 406 1056 c 128,-1,34
 380 1024 380 1024 368 976 c 128,-1,35
 356 928 356 928 354 872 c 128,-1,36
 352 816 352 816 352 768 c 1,37,-1
 608 768 l 1,38,39
 608 816 608 816 606.5 872 c 128,-1,40
 605 928 605 928 593 976 c 128,-1,41
 581 1024 581 1024 555 1056 c 128,-1,42
 529 1088 529 1088 480 1088 c 0,32,33
EndSplineSet
EndChar

StartChar: f
Encoding: 102 102 71
Width: 641
Flags: W
LayerCount: 2
Fore
SplineSet
185 1088 m 1,0,-1
 57 1088 l 1,1,-1
 57 1280 l 1,2,-1
 185 1280 l 1,3,-1
 185 1329 l 2,4,5
 185 1372 185 1372 185.5 1418.5 c 128,-1,6
 186 1465 186 1465 193.5 1509 c 128,-1,7
 201 1553 201 1553 217.5 1593 c 128,-1,8
 234 1633 234 1633 266.5 1663 c 128,-1,9
 299 1693 299 1693 349.5 1710.5 c 128,-1,10
 400 1728 400 1728 475 1728 c 0,11,12
 511 1728 511 1728 545 1725.5 c 128,-1,13
 579 1723 579 1723 633 1716 c 1,14,-1
 633 1526 l 1,15,16
 609 1528 609 1528 585.5 1532 c 128,-1,17
 562 1536 562 1536 547 1536 c 0,18,19
 511 1536 511 1536 489.5 1523 c 128,-1,20
 468 1510 468 1510 457.5 1488 c 128,-1,21
 447 1466 447 1466 444 1437 c 128,-1,22
 441 1408 441 1408 441 1376 c 2,23,-1
 441 1280 l 1,24,-1
 633 1280 l 1,25,-1
 633 1088 l 1,26,-1
 441 1088 l 1,27,-1
 441 0 l 1,28,-1
 185 0 l 1,29,-1
 185 1088 l 1,0,-1
EndSplineSet
EndChar

StartChar: g
Encoding: 103 103 72
Width: 973
Flags: W
LayerCount: 2
Fore
SplineSet
993 1088 m 1,0,1
 963 1088 963 1088 938 1082 c 128,-1,2
 913 1076 913 1076 893 1066.5 c 128,-1,3
 873 1057 873 1057 858 1045.5 c 128,-1,4
 843 1034 843 1034 833 1024 c 1,5,6
 843 995 843 995 854 946.5 c 128,-1,7
 865 898 865 898 865 832 c 0,8,9
 865 736 865 736 841 651.5 c 128,-1,10
 817 567 817 567 769 504 c 128,-1,11
 721 441 721 441 649 404.5 c 128,-1,12
 577 368 577 368 481 368 c 0,13,14
 473 368 473 368 462 368.5 c 128,-1,15
 451 369 451 369 439.5 370 c 128,-1,16
 428 371 428 371 417.5 372.5 c 128,-1,17
 407 374 407 374 400 375 c 2,18,-1
 352 383 l 1,19,20
 341 363 341 363 329 342.5 c 128,-1,21
 317 322 317 322 317 301 c 0,22,23
 317 271 317 271 346 256 c 128,-1,24
 375 241 375 241 422.5 232.5 c 128,-1,25
 470 224 470 224 531 219 c 128,-1,26
 592 214 592 214 655 205.5 c 128,-1,27
 718 197 718 197 779 181 c 128,-1,28
 840 165 840 165 887.5 135 c 128,-1,29
 935 105 935 105 964 57 c 128,-1,30
 993 9 993 9 993 -64 c 0,31,32
 993 -136 993 -136 968.5 -187.5 c 128,-1,33
 944 -239 944 -239 904.5 -274.5 c 128,-1,34
 865 -310 865 -310 815.5 -331.5 c 128,-1,35
 766 -353 766 -353 716 -364.5 c 128,-1,36
 666 -376 666 -376 621 -379.5 c 128,-1,37
 576 -383 576 -383 545 -383 c 0,38,39
 510 -383 510 -383 458 -382 c 128,-1,40
 406 -381 406 -381 349.5 -375.5 c 128,-1,41
 293 -370 293 -370 236.5 -358.5 c 128,-1,42
 180 -347 180 -347 134.5 -326 c 128,-1,43
 89 -305 89 -305 61 -273 c 128,-1,44
 33 -241 33 -241 33 -195 c 0,45,46
 33 -171 33 -171 39.5 -137 c 128,-1,47
 46 -103 46 -103 70 -52 c 256,48,49
 94 -1 94 -1 135.5 32 c 128,-1,50
 177 65 177 65 225 89 c 1,51,52
 162 106 162 106 129.5 137.5 c 128,-1,53
 97 169 97 169 97 201 c 0,54,55
 97 228 97 228 111 262.5 c 128,-1,56
 125 297 125 297 145 331.5 c 128,-1,57
 165 366 165 366 187 397 c 128,-1,58
 209 428 209 428 225 448 c 1,59,60
 157 529 157 529 127 629 c 128,-1,61
 97 729 97 729 97 832 c 0,62,63
 97 952 97 952 130 1040 c 128,-1,64
 163 1128 163 1128 217 1185 c 128,-1,65
 271 1242 271 1242 340 1270 c 128,-1,66
 409 1298 409 1298 481 1298 c 0,67,68
 529 1298 529 1298 568 1290 c 128,-1,69
 607 1282 607 1282 640 1264.5 c 128,-1,70
 673 1247 673 1247 701.5 1218 c 128,-1,71
 730 1189 730 1189 757 1147 c 1,72,73
 770 1171 770 1171 790.5 1197.5 c 128,-1,74
 811 1224 811 1224 840 1246.5 c 128,-1,75
 869 1269 869 1269 907 1283.5 c 128,-1,76
 945 1298 945 1298 993 1298 c 1,77,-1
 993 1088 l 1,0,1
765 -66 m 1,78,79
 752 9 752 9 564 32 c 2,80,-1
 353 57 l 1,81,82
 338 46 338 46 321.5 25.5 c 128,-1,83
 305 5 305 5 291 -20.5 c 128,-1,84
 277 -46 277 -46 268 -75.5 c 128,-1,85
 259 -105 259 -105 259 -135 c 0,86,87
 259 -159 259 -159 281.5 -172 c 128,-1,88
 304 -185 304 -185 355 -188 c 0,89,90
 407 -192 407 -192 452 -193 c 128,-1,91
 497 -194 497 -194 545 -194 c 0,92,93
 561 -194 561 -194 584 -193.5 c 128,-1,94
 607 -193 607 -193 632 -190 c 128,-1,95
 657 -187 657 -187 681.5 -181 c 128,-1,96
 706 -175 706 -175 725.5 -164.5 c 128,-1,97
 745 -154 745 -154 757 -138 c 128,-1,98
 769 -122 769 -122 769 -99 c 0,99,100
 769 -82 769 -82 765 -66 c 1,78,79
321 832 m 256,101,102
 321 784 321 784 328 735.5 c 128,-1,103
 335 687 335 687 353 648 c 128,-1,104
 371 609 371 609 402 584.5 c 128,-1,105
 433 560 433 560 481 560 c 256,106,107
 529 560 529 560 560 584.5 c 128,-1,108
 591 609 591 609 609 648 c 128,-1,109
 627 687 627 687 634 735.5 c 128,-1,110
 641 784 641 784 641 832 c 256,111,112
 641 880 641 880 634 931 c 128,-1,113
 627 982 627 982 609 1024 c 128,-1,114
 591 1066 591 1066 560 1093 c 128,-1,115
 529 1120 529 1120 481 1120 c 256,116,117
 433 1120 433 1120 402 1093 c 128,-1,118
 371 1066 371 1066 353 1024 c 128,-1,119
 335 982 335 982 328 931 c 128,-1,120
 321 880 321 880 321 832 c 256,101,102
EndSplineSet
EndChar

StartChar: h
Encoding: 104 104 73
Width: 1024
Flags: W
LayerCount: 2
Fore
SplineSet
128 1792 m 1,0,-1
 384 1792 l 1,1,-1
 384 1142 l 1,2,3
 448 1200 448 1200 499 1232 c 128,-1,4
 550 1264 550 1264 589.5 1278.5 c 128,-1,5
 629 1293 629 1293 659 1295.5 c 128,-1,6
 689 1298 689 1298 712 1298 c 0,7,8
 754 1298 754 1298 788 1280.5 c 128,-1,9
 822 1263 822 1263 846 1234 c 128,-1,10
 870 1205 870 1205 883 1167.5 c 128,-1,11
 896 1130 896 1130 896 1091 c 2,12,-1
 896 0 l 1,13,-1
 640 0 l 1,14,-1
 640 960 l 2,15,16
 640 984 640 984 638.5 1007 c 128,-1,17
 637 1030 637 1030 629 1048 c 128,-1,18
 621 1066 621 1066 603 1077 c 128,-1,19
 585 1088 585 1088 552 1088 c 0,20,21
 503 1088 503 1088 461.5 1065.5 c 128,-1,22
 420 1043 420 1043 384 1013 c 1,23,-1
 384 0 l 1,24,-1
 128 0 l 1,25,-1
 128 1792 l 1,0,-1
EndSplineSet
EndChar

StartChar: i
Encoding: 105 105 74
Width: 512
Flags: W
LayerCount: 2
Fore
SplineSet
128 1280 m 1,0,-1
 384 1280 l 1,1,-1
 384 0 l 1,2,-1
 128 0 l 1,3,-1
 128 1280 l 1,0,-1
128 1728 m 1,4,-1
 384 1728 l 1,5,-1
 384 1472 l 1,6,-1
 128 1472 l 1,7,-1
 128 1728 l 1,4,-1
EndSplineSet
EndChar

StartChar: j
Encoding: 106 106 75
Width: 537
Flags: W
LayerCount: 2
Fore
SplineSet
-12 -121 m 1,0,1
 2 -124 2 -124 21 -126 c 128,-1,2
 40 -128 40 -128 52 -128 c 0,3,4
 100 -128 100 -128 126 -109.5 c 128,-1,5
 152 -91 152 -91 164 -66.5 c 128,-1,6
 176 -42 176 -42 178 -17 c 128,-1,7
 180 8 180 8 180 21 c 2,8,-1
 180 1280 l 1,9,-1
 436 1280 l 1,10,-1
 436 -7 l 2,11,12
 436 -84 436 -84 412 -142.5 c 128,-1,13
 388 -201 388 -201 345 -240.5 c 128,-1,14
 302 -280 302 -280 243.5 -300 c 128,-1,15
 185 -320 185 -320 116 -320 c 0,16,17
 103 -320 103 -320 86.5 -319 c 128,-1,18
 70 -318 70 -318 52.5 -316 c 128,-1,19
 35 -314 35 -314 18 -311 c 128,-1,20
 1 -308 1 -308 -12 -303 c 1,21,-1
 -12 -121 l 1,0,1
180 1728 m 1,22,-1
 436 1728 l 1,23,-1
 436 1472 l 1,24,-1
 180 1472 l 1,25,-1
 180 1728 l 1,22,-1
EndSplineSet
EndChar

StartChar: k
Encoding: 107 107 76
Width: 960
Flags: W
LayerCount: 2
Fore
SplineSet
384 1792 m 1,0,-1
 384 807 l 1,1,-1
 704 1280 l 1,2,-1
 960 1280 l 1,3,-1
 673 833 l 1,4,-1
 960 0 l 1,5,-1
 704 0 l 1,6,-1
 512 619 l 1,7,-1
 384 448 l 1,8,-1
 384 0 l 1,9,-1
 128 0 l 1,10,-1
 128 1792 l 1,11,-1
 384 1792 l 1,0,-1
EndSplineSet
EndChar

StartChar: l
Encoding: 108 108 77
Width: 505
Flags: W
LayerCount: 2
Fore
SplineSet
384 0 m 1,0,-1
 128 0 l 1,1,-1
 128 1792 l 1,2,-1
 384 1792 l 1,3,-1
 384 0 l 1,0,-1
EndSplineSet
EndChar

StartChar: m
Encoding: 109 109 78
Width: 1536
Flags: W
LayerCount: 2
Fore
SplineSet
640 929 m 2,0,1
 640 965 640 965 639 994 c 128,-1,2
 638 1023 638 1023 632 1044 c 128,-1,3
 626 1065 626 1065 613 1076.5 c 128,-1,4
 600 1088 600 1088 576 1088 c 0,5,6
 546 1088 546 1088 518.5 1080 c 128,-1,7
 491 1072 491 1072 466.5 1060 c 128,-1,8
 442 1048 442 1048 421 1034 c 128,-1,9
 400 1020 400 1020 384 1007 c 1,10,-1
 384 0 l 1,11,-1
 128 0 l 1,12,-1
 128 1280 l 1,13,-1
 384 1280 l 1,14,-1
 384 1135 l 1,15,16
 405 1160 405 1160 435.5 1188.5 c 128,-1,17
 466 1217 466 1217 506 1241.5 c 128,-1,18
 546 1266 546 1266 595 1282 c 128,-1,19
 644 1298 644 1298 703 1298 c 0,20,21
 740 1298 740 1298 771.5 1292 c 128,-1,22
 803 1286 803 1286 827.5 1267.5 c 128,-1,23
 852 1249 852 1249 869.5 1216 c 128,-1,24
 887 1183 887 1183 896 1129 c 1,25,26
 944 1192 944 1192 991 1226.5 c 128,-1,27
 1038 1261 1038 1261 1080 1276.5 c 128,-1,28
 1122 1292 1122 1292 1157 1295 c 128,-1,29
 1192 1298 1192 1298 1216 1298 c 0,30,31
 1288 1298 1288 1298 1327 1271.5 c 128,-1,32
 1366 1245 1366 1245 1384 1197 c 128,-1,33
 1402 1149 1402 1149 1405 1081 c 128,-1,34
 1408 1013 1408 1013 1408 931 c 2,35,-1
 1408 0 l 1,36,-1
 1152 0 l 1,37,-1
 1152 934 l 2,38,39
 1152 968 1152 968 1151 996 c 128,-1,40
 1150 1024 1150 1024 1144 1044.5 c 128,-1,41
 1138 1065 1138 1065 1125 1076.5 c 128,-1,42
 1112 1088 1112 1088 1088 1088 c 0,43,44
 1059 1088 1059 1088 1031.5 1079.5 c 128,-1,45
 1004 1071 1004 1071 979 1058.5 c 128,-1,46
 954 1046 954 1046 933 1030.5 c 128,-1,47
 912 1015 912 1015 896 1002 c 1,48,-1
 896 0 l 1,49,-1
 640 0 l 1,50,-1
 640 929 l 2,0,1
EndSplineSet
EndChar

StartChar: n
Encoding: 110 110 79
Width: 992
Flags: W
LayerCount: 2
Fore
SplineSet
128 1280 m 1,0,-1
 384 1280 l 1,1,-1
 384 1142 l 1,2,3
 448 1200 448 1200 499 1232 c 128,-1,4
 550 1264 550 1264 589.5 1278.5 c 128,-1,5
 629 1293 629 1293 659 1295.5 c 128,-1,6
 689 1298 689 1298 712 1298 c 0,7,8
 754 1298 754 1298 788 1280.5 c 128,-1,9
 822 1263 822 1263 846 1234 c 128,-1,10
 870 1205 870 1205 883 1167.5 c 128,-1,11
 896 1130 896 1130 896 1091 c 2,12,-1
 896 0 l 1,13,-1
 640 0 l 1,14,-1
 640 960 l 2,15,16
 640 984 640 984 638.5 1007 c 128,-1,17
 637 1030 637 1030 628 1048 c 128,-1,18
 619 1066 619 1066 599.5 1077 c 128,-1,19
 580 1088 580 1088 544 1088 c 0,20,21
 495 1088 495 1088 457.5 1065.5 c 128,-1,22
 420 1043 420 1043 384 1013 c 1,23,-1
 384 0 l 1,24,-1
 128 0 l 1,25,-1
 128 1280 l 1,0,-1
EndSplineSet
EndChar

StartChar: o
Encoding: 111 111 80
Width: 960
Flags: W
LayerCount: 2
Fore
SplineSet
96 832 m 2,0,1
 96 864 96 864 98 911 c 128,-1,2
 100 958 100 958 110.5 1009.5 c 128,-1,3
 121 1061 121 1061 144 1113 c 128,-1,4
 167 1165 167 1165 209.5 1206 c 128,-1,5
 252 1247 252 1247 318 1272.5 c 128,-1,6
 384 1298 384 1298 480 1298 c 256,7,8
 576 1298 576 1298 642 1272.5 c 128,-1,9
 708 1247 708 1247 750.5 1206 c 128,-1,10
 793 1165 793 1165 816 1113 c 128,-1,11
 839 1061 839 1061 849.5 1009.5 c 128,-1,12
 860 958 860 958 862 911 c 128,-1,13
 864 864 864 864 864 832 c 2,14,-1
 864 448 l 2,15,16
 864 416 864 416 862 369 c 128,-1,17
 860 322 860 322 849.5 270.5 c 128,-1,18
 839 219 839 219 816 167 c 128,-1,19
 793 115 793 115 750.5 74 c 128,-1,20
 708 33 708 33 642 7.5 c 128,-1,21
 576 -18 576 -18 480 -18 c 256,22,23
 384 -18 384 -18 318 7.5 c 128,-1,24
 252 33 252 33 209.5 74 c 128,-1,25
 167 115 167 115 144 167 c 128,-1,26
 121 219 121 219 110.5 270.5 c 128,-1,27
 100 322 100 322 98 369 c 128,-1,28
 96 416 96 416 96 448 c 2,29,-1
 96 832 l 2,0,1
352 448 m 2,30,31
 352 400 352 400 354 354 c 128,-1,32
 356 308 356 308 368 272 c 128,-1,33
 380 236 380 236 406 214 c 128,-1,34
 432 192 432 192 480 192 c 256,35,36
 528 192 528 192 554 214 c 128,-1,37
 580 236 580 236 592 272 c 128,-1,38
 604 308 604 308 606 354 c 128,-1,39
 608 400 608 400 608 448 c 2,40,-1
 608 832 l 2,41,42
 608 880 608 880 606 926 c 128,-1,43
 604 972 604 972 592 1008 c 128,-1,44
 580 1044 580 1044 554 1066 c 128,-1,45
 528 1088 528 1088 480 1088 c 256,46,47
 432 1088 432 1088 406 1066 c 128,-1,48
 380 1044 380 1044 368 1008 c 128,-1,49
 356 972 356 972 354 926 c 128,-1,50
 352 880 352 880 352 832 c 2,51,-1
 352 448 l 2,30,31
EndSplineSet
EndChar

StartChar: p
Encoding: 112 112 81
Width: 1056
Flags: W
LayerCount: 2
Fore
SplineSet
128 1280 m 1,0,-1
 384 1280 l 1,1,-1
 384 1152 l 1,2,3
 434 1205 434 1205 473.5 1234.5 c 128,-1,4
 513 1264 513 1264 544.5 1278 c 128,-1,5
 576 1292 576 1292 600 1295 c 128,-1,6
 624 1298 624 1298 644 1298 c 0,7,8
 734 1298 734 1298 794.5 1259.5 c 128,-1,9
 855 1221 855 1221 891.5 1135 c 128,-1,10
 928 1049 928 1049 944 911.5 c 128,-1,11
 960 774 960 774 960 576 c 0,12,13
 960 518 960 518 953.5 451.5 c 128,-1,14
 947 385 947 385 932.5 319 c 128,-1,15
 918 253 918 253 893.5 192 c 128,-1,16
 869 131 869 131 833.5 84.5 c 128,-1,17
 798 38 798 38 750 10 c 128,-1,18
 702 -18 702 -18 640 -18 c 0,19,20
 604 -18 604 -18 568.5 -7 c 128,-1,21
 533 4 533 4 500.5 22.5 c 128,-1,22
 468 41 468 41 438.5 65 c 128,-1,23
 409 89 409 89 384 115 c 1,24,-1
 384 -384 l 1,25,-1
 128 -384 l 1,26,-1
 128 1280 l 1,0,-1
384 244 m 1,27,28
 441 211 441 211 493 201.5 c 128,-1,29
 545 192 545 192 576 192 c 0,30,31
 615 192 615 192 640 218.5 c 128,-1,32
 665 245 665 245 679 305 c 128,-1,33
 693 365 693 365 698.5 463 c 128,-1,34
 704 561 704 561 704 704 c 0,35,36
 704 788 704 788 698.5 860.5 c 128,-1,37
 693 933 693 933 676.5 986.5 c 128,-1,38
 660 1040 660 1040 630.5 1070.5 c 128,-1,39
 601 1101 601 1101 553 1101 c 256,40,41
 505 1101 505 1101 464.5 1080.5 c 128,-1,42
 424 1060 424 1060 384 1036 c 1,43,-1
 384 244 l 1,27,28
EndSplineSet
EndChar

StartChar: q
Encoding: 113 113 82
Width: 1056
Flags: W
LayerCount: 2
Fore
SplineSet
928 -384 m 1,0,-1
 672 -384 l 1,1,-1
 672 115 l 1,2,3
 647 89 647 89 617.5 65 c 128,-1,4
 588 41 588 41 555.5 22.5 c 128,-1,5
 523 4 523 4 487.5 -7 c 128,-1,6
 452 -18 452 -18 416 -18 c 0,7,8
 354 -18 354 -18 306 10 c 128,-1,9
 258 38 258 38 222.5 84.5 c 128,-1,10
 187 131 187 131 162.5 192 c 128,-1,11
 138 253 138 253 123.5 319 c 128,-1,12
 109 385 109 385 102.5 451.5 c 128,-1,13
 96 518 96 518 96 576 c 0,14,15
 96 774 96 774 112 911.5 c 128,-1,16
 128 1049 128 1049 164.5 1135 c 128,-1,17
 201 1221 201 1221 261.5 1259.5 c 128,-1,18
 322 1298 322 1298 412 1298 c 0,19,20
 431 1298 431 1298 455.5 1295 c 128,-1,21
 480 1292 480 1292 511.5 1278 c 128,-1,22
 543 1264 543 1264 582.5 1234.5 c 128,-1,23
 622 1205 622 1205 672 1152 c 1,24,-1
 672 1280 l 1,25,-1
 928 1280 l 1,26,-1
 928 -384 l 1,0,-1
672 1036 m 1,27,28
 632 1060 632 1060 591.5 1080.5 c 128,-1,29
 551 1101 551 1101 503 1101 c 256,30,31
 455 1101 455 1101 425.5 1070.5 c 128,-1,32
 396 1040 396 1040 379.5 986.5 c 128,-1,33
 363 933 363 933 357.5 860.5 c 128,-1,34
 352 788 352 788 352 704 c 0,35,36
 352 561 352 561 357.5 463 c 128,-1,37
 363 365 363 365 377 305 c 128,-1,38
 391 245 391 245 416 218.5 c 128,-1,39
 441 192 441 192 480 192 c 0,40,41
 511 192 511 192 563 201.5 c 128,-1,42
 615 211 615 211 672 244 c 1,43,-1
 672 1036 l 1,27,28
EndSplineSet
EndChar

StartChar: r
Encoding: 114 114 83
Width: 691
Flags: W
LayerCount: 2
Fore
SplineSet
384 1280 m 1,0,-1
 384 1109 l 1,1,-1
 398 1109 l 1,2,3
 417 1146 417 1146 444.5 1180 c 128,-1,4
 472 1214 472 1214 506.5 1240 c 128,-1,5
 541 1266 541 1266 580.5 1282 c 128,-1,6
 620 1298 620 1298 663 1298 c 0,7,8
 666 1298 666 1298 675 1297 c 128,-1,9
 684 1296 684 1296 704 1294 c 1,10,-1
 704 1011 l 1,11,12
 672 1024 672 1024 634 1031.5 c 128,-1,13
 596 1039 596 1039 562 1039 c 0,14,15
 524 1039 524 1039 491.5 1026.5 c 128,-1,16
 459 1014 459 1014 435 991 c 128,-1,17
 411 968 411 968 397.5 935.5 c 128,-1,18
 384 903 384 903 384 864 c 2,19,-1
 384 0 l 1,20,-1
 128 0 l 1,21,-1
 128 1280 l 1,22,-1
 384 1280 l 1,0,-1
EndSplineSet
EndChar

StartChar: s
Encoding: 115 115 84
Width: 916
Flags: W
LayerCount: 2
Fore
SplineSet
276 384 m 1,0,1
 287 353 287 353 304.5 319.5 c 128,-1,2
 322 286 322 286 346 257.5 c 128,-1,3
 370 229 370 229 400 210.5 c 128,-1,4
 430 192 430 192 468 192 c 0,5,6
 492 192 492 192 515 198.5 c 128,-1,7
 538 205 538 205 556 220 c 128,-1,8
 574 235 574 235 585 259.5 c 128,-1,9
 596 284 596 284 596 320 c 0,10,11
 596 349 596 349 590 372 c 128,-1,12
 584 395 584 395 574.5 413.5 c 128,-1,13
 565 432 565 432 553.5 445.5 c 128,-1,14
 542 459 542 459 532 468 c 1,15,-1
 276 660 l 1,16,17
 214 703 214 703 176 743.5 c 128,-1,18
 138 784 138 784 117.5 821.5 c 128,-1,19
 97 859 97 859 90.5 893.5 c 128,-1,20
 84 928 84 928 84 960 c 0,21,22
 84 1032 84 1032 108 1094 c 128,-1,23
 132 1156 132 1156 180 1201 c 128,-1,24
 228 1246 228 1246 300 1272 c 128,-1,25
 372 1298 372 1298 468 1298 c 256,26,27
 564 1298 564 1298 631 1264.5 c 128,-1,28
 698 1231 698 1231 743 1180 c 128,-1,29
 788 1129 788 1129 814 1070 c 128,-1,30
 840 1011 840 1011 852 960 c 1,31,-1
 660 896 l 1,32,33
 649 925 649 925 632.5 958.5 c 128,-1,34
 616 992 616 992 592 1021 c 128,-1,35
 568 1050 568 1050 537.5 1069 c 128,-1,36
 507 1088 507 1088 468 1088 c 0,37,38
 444 1088 444 1088 421 1081.5 c 128,-1,39
 398 1075 398 1075 380 1060 c 128,-1,40
 362 1045 362 1045 351 1020.5 c 128,-1,41
 340 996 340 996 340 960 c 0,42,43
 340 922 340 922 361.5 895 c 128,-1,44
 383 868 383 868 404 852 c 2,45,-1
 660 660 l 1,46,47
 751 587 751 587 801.5 504.5 c 128,-1,48
 852 422 852 422 852 320 c 0,49,50
 852 248 852 248 828 186 c 128,-1,51
 804 124 804 124 756 79 c 128,-1,52
 708 34 708 34 636 8 c 128,-1,53
 564 -18 564 -18 468 -18 c 0,54,55
 408 -18 408 -18 359.5 -3.5 c 128,-1,56
 311 11 311 11 272.5 34.5 c 128,-1,57
 234 58 234 58 205.5 88.5 c 128,-1,58
 177 119 177 119 156 151 c 0,59,60
 107 224 107 224 84 320 c 1,61,-1
 276 384 l 1,0,1
EndSplineSet
EndChar

StartChar: t
Encoding: 116 116 85
Width: 669
Flags: W
LayerCount: 2
Fore
SplineSet
180 1728 m 1,0,-1
 436 1728 l 1,1,-1
 436 1280 l 1,2,-1
 628 1280 l 1,3,-1
 628 1088 l 1,4,-1
 436 1088 l 1,5,-1
 436 341 l 2,6,7
 436 309 436 309 439 281.5 c 128,-1,8
 442 254 442 254 452.5 234 c 128,-1,9
 463 214 463 214 484.5 203 c 128,-1,10
 506 192 506 192 542 192 c 0,11,12
 556 192 556 192 580.5 195 c 128,-1,13
 605 198 605 198 628 202 c 1,14,-1
 628 -6 l 1,15,16
 574 -13 574 -13 540 -15.5 c 128,-1,17
 506 -18 506 -18 470 -18 c 0,18,19
 395 -18 395 -18 344.5 -0.5 c 128,-1,20
 294 17 294 17 261.5 47 c 128,-1,21
 229 77 229 77 212.5 116.5 c 128,-1,22
 196 156 196 156 188.5 200.5 c 128,-1,23
 181 245 181 245 180.5 291.5 c 128,-1,24
 180 338 180 338 180 381 c 2,25,-1
 180 1088 l 1,26,-1
 52 1088 l 1,27,-1
 52 1280 l 1,28,-1
 180 1280 l 1,29,-1
 180 1728 l 1,0,-1
EndSplineSet
EndChar

StartChar: u
Encoding: 117 117 86
Width: 1024
Flags: W
LayerCount: 2
Fore
SplineSet
896 0 m 1,0,-1
 640 0 l 1,1,-1
 640 138 l 1,2,3
 576 80 576 80 526 48.5 c 128,-1,4
 476 17 476 17 436.5 2 c 128,-1,5
 397 -13 397 -13 367 -15.5 c 128,-1,6
 337 -18 337 -18 314 -18 c 0,7,8
 272 -18 272 -18 237.5 -0.5 c 128,-1,9
 203 17 203 17 178.5 45.5 c 128,-1,10
 154 74 154 74 141 111.5 c 128,-1,11
 128 149 128 149 128 189 c 2,12,-1
 128 1280 l 1,13,-1
 384 1280 l 1,14,-1
 384 267 l 2,15,16
 384 225 384 225 409.5 201 c 128,-1,17
 435 177 435 177 472 177 c 0,18,19
 496 177 496 177 518.5 185.5 c 128,-1,20
 541 194 541 194 562 207 c 128,-1,21
 583 220 583 220 602.5 236 c 128,-1,22
 622 252 622 252 640 267 c 1,23,-1
 640 1280 l 1,24,-1
 896 1280 l 1,25,-1
 896 0 l 1,0,-1
EndSplineSet
EndChar

StartChar: v
Encoding: 118 118 87
Width: 880
Flags: W
LayerCount: 2
Fore
SplineSet
312 0 m 1,0,-1
 24 1280 l 1,1,-1
 280 1280 l 1,2,-1
 440 320 l 1,3,-1
 600 1280 l 1,4,-1
 856 1280 l 1,5,-1
 570 0 l 1,6,-1
 312 0 l 1,0,-1
EndSplineSet
EndChar

StartChar: w
Encoding: 119 119 88
Width: 1315
Flags: W
LayerCount: 2
Fore
SplineSet
659 882 m 1,0,-1
 521 0 l 1,1,-1
 275 0 l 1,2,-1
 38 1280 l 1,3,-1
 265 1280 l 1,4,-1
 407 308 l 1,5,-1
 541 1280 l 1,6,-1
 775 1280 l 1,7,-1
 911 318 l 1,8,-1
 1051 1280 l 1,9,-1
 1279 1280 l 1,10,-1
 1031 0 l 1,11,-1
 795 0 l 1,12,-1
 659 882 l 1,0,-1
EndSplineSet
EndChar

StartChar: x
Encoding: 120 120 89
Width: 914
Flags: W
LayerCount: 2
Fore
SplineSet
297 640 m 1,0,-1
 297 704 l 1,1,-1
 41 1280 l 1,2,-1
 297 1280 l 1,3,-1
 425 896 l 1,4,-1
 457 768 l 1,5,-1
 489 896 l 1,6,-1
 617 1280 l 1,7,-1
 873 1280 l 1,8,-1
 617 704 l 1,9,-1
 617 640 l 1,10,-1
 873 0 l 1,11,-1
 617 0 l 1,12,-1
 489 384 l 1,13,-1
 457 512 l 1,14,-1
 425 384 l 1,15,-1
 297 0 l 1,16,-1
 41 0 l 1,17,-1
 297 640 l 1,0,-1
EndSplineSet
EndChar

StartChar: y
Encoding: 121 121 90
Width: 895
Flags: W
LayerCount: 2
Fore
SplineSet
462 384 m 1,0,-1
 493 576 l 1,1,-1
 621 1280 l 1,2,-1
 877 1280 l 1,3,-1
 557 -64 l 2,4,5
 540 -138 540 -138 503.5 -187.5 c 128,-1,6
 467 -237 467 -237 411.5 -266.5 c 128,-1,7
 356 -296 356 -296 280.5 -308 c 128,-1,8
 205 -320 205 -320 109 -320 c 1,9,-1
 109 -128 l 1,10,11
 168 -128 168 -128 209.5 -114 c 128,-1,12
 251 -100 251 -100 277 -75.5 c 128,-1,13
 303 -51 303 -51 314.5 -17.5 c 128,-1,14
 326 16 326 16 326 56 c 0,15,16
 326 73 326 73 324.5 91 c 128,-1,17
 323 109 323 109 318 128 c 2,18,-1
 45 1280 l 1,19,-1
 301 1280 l 1,20,-1
 429 576 l 1,21,-1
 462 384 l 1,0,-1
EndSplineSet
EndChar

StartChar: z
Encoding: 122 122 91
Width: 830
Flags: W
LayerCount: 2
Fore
SplineSet
512 1088 m 1,0,-1
 128 1088 l 1,1,-1
 128 1280 l 1,2,-1
 768 1280 l 1,3,-1
 768 1088 l 1,4,-1
 320 192 l 1,5,-1
 768 192 l 1,6,-1
 768 0 l 1,7,-1
 64 0 l 1,8,-1
 64 192 l 1,9,-1
 512 1088 l 1,0,-1
EndSplineSet
EndChar

StartChar: braceleft
Encoding: 123 123 92
Width: 704
Flags: W
LayerCount: 2
Fore
SplineSet
448 1408 m 0,0,1
 448 1271 448 1271 428.5 1179 c 128,-1,2
 409 1087 409 1087 380 1028.5 c 128,-1,3
 351 970 351 970 317.5 939.5 c 128,-1,4
 284 909 284 909 256 896 c 1,5,6
 284 884 284 884 318 859 c 128,-1,7
 352 834 352 834 380.5 789 c 128,-1,8
 409 744 409 744 428.5 676.5 c 128,-1,9
 448 609 448 609 448 512 c 0,10,11
 448 398 448 398 457 323.5 c 128,-1,12
 466 249 466 249 487.5 205.5 c 128,-1,13
 509 162 509 162 546 145 c 128,-1,14
 583 128 583 128 640 128 c 1,15,-1
 640 -64 l 1,16,17
 531 -64 531 -64 447.5 -40 c 128,-1,18
 364 -16 364 -16 307 48.5 c 128,-1,19
 250 113 250 113 221 224.5 c 128,-1,20
 192 336 192 336 192 512 c 0,21,22
 192 605 192 605 186.5 656.5 c 128,-1,23
 181 708 181 708 166.5 733 c 128,-1,24
 152 758 152 758 127.5 763 c 128,-1,25
 103 768 103 768 64 768 c 1,26,-1
 64 1024 l 1,27,28
 103 1024 103 1024 127.5 1041 c 128,-1,29
 152 1058 152 1058 166.5 1101.5 c 128,-1,30
 181 1145 181 1145 186.5 1219.5 c 128,-1,31
 192 1294 192 1294 192 1408 c 0,32,33
 192 1511 192 1511 205 1584 c 128,-1,34
 218 1657 218 1657 243.5 1707 c 128,-1,35
 269 1757 269 1757 307 1786.5 c 128,-1,36
 345 1816 345 1816 394.5 1831.5 c 128,-1,37
 444 1847 444 1847 505.5 1851.5 c 128,-1,38
 567 1856 567 1856 640 1856 c 1,39,-1
 640 1664 l 1,40,41
 583 1664 583 1664 546 1659 c 128,-1,42
 509 1654 509 1654 487.5 1629 c 128,-1,43
 466 1604 466 1604 457 1552.5 c 128,-1,44
 448 1501 448 1501 448 1408 c 0,0,1
EndSplineSet
EndChar

StartChar: bar
Encoding: 124 124 93
Width: 384
Flags: W
LayerCount: 2
Fore
SplineSet
128 1920 m 1,0,-1
 320 1920 l 1,1,-1
 320 -128 l 1,2,-1
 128 -128 l 1,3,-1
 128 1920 l 1,0,-1
EndSplineSet
EndChar

StartChar: braceright
Encoding: 125 125 94
Width: 704
Flags: W
LayerCount: 2
Fore
SplineSet
256 1408 m 0,0,1
 256 1501 256 1501 247 1552.5 c 128,-1,2
 238 1604 238 1604 216.5 1629 c 128,-1,3
 195 1654 195 1654 158 1659 c 128,-1,4
 121 1664 121 1664 64 1664 c 1,5,-1
 64 1856 l 1,6,7
 137 1856 137 1856 198.5 1851.5 c 128,-1,8
 260 1847 260 1847 309.5 1831.5 c 128,-1,9
 359 1816 359 1816 397 1786.5 c 128,-1,10
 435 1757 435 1757 460.5 1707 c 128,-1,11
 486 1657 486 1657 499 1584 c 128,-1,12
 512 1511 512 1511 512 1408 c 0,13,14
 512 1294 512 1294 517.5 1219.5 c 128,-1,15
 523 1145 523 1145 537.5 1101.5 c 128,-1,16
 552 1058 552 1058 576.5 1041 c 128,-1,17
 601 1024 601 1024 640 1024 c 1,18,-1
 640 768 l 1,19,20
 601 768 601 768 576.5 763 c 128,-1,21
 552 758 552 758 537.5 733 c 128,-1,22
 523 708 523 708 517.5 656.5 c 128,-1,23
 512 605 512 605 512 512 c 0,24,25
 512 336 512 336 483 224.5 c 128,-1,26
 454 113 454 113 397 48.5 c 128,-1,27
 340 -16 340 -16 256.5 -40 c 128,-1,28
 173 -64 173 -64 64 -64 c 1,29,-1
 64 128 l 1,30,31
 121 128 121 128 158 145 c 128,-1,32
 195 162 195 162 216.5 205.5 c 128,-1,33
 238 249 238 249 247 323.5 c 128,-1,34
 256 398 256 398 256 512 c 0,35,36
 256 608 256 608 275 675.5 c 128,-1,37
 294 743 294 743 322.5 788 c 128,-1,38
 351 833 351 833 385 858.5 c 128,-1,39
 419 884 419 884 448 896 c 1,40,41
 419 909 419 909 385.5 940 c 128,-1,42
 352 971 352 971 323 1030 c 128,-1,43
 294 1089 294 1089 275 1181 c 128,-1,44
 256 1273 256 1273 256 1408 c 0,0,1
EndSplineSet
EndChar

StartChar: asciitilde
Encoding: 126 126 95
Width: 960
Flags: W
LayerCount: 2
Fore
SplineSet
347 1105 m 0,0,1
 386 1105 386 1105 425.5 1091.5 c 128,-1,2
 465 1078 465 1078 502 1062 c 128,-1,3
 539 1046 539 1046 571.5 1032.5 c 128,-1,4
 604 1019 604 1019 628 1019 c 0,5,6
 651 1019 651 1019 665 1034.5 c 128,-1,7
 679 1050 679 1050 679 1088 c 1,8,-1
 832 1088 l 1,9,10
 832 1086 832 1086 832.5 1082.5 c 128,-1,11
 833 1079 833 1079 833 1074 c 0,12,13
 833 1059 833 1059 830.5 1034 c 128,-1,14
 828 1009 828 1009 819.5 980 c 128,-1,15
 811 951 811 951 796.5 921 c 128,-1,16
 782 891 782 891 757.5 867 c 128,-1,17
 733 843 733 843 697.5 827.5 c 128,-1,18
 662 812 662 812 613 812 c 0,19,20
 571 812 571 812 530 825.5 c 128,-1,21
 489 839 489 839 452.5 855.5 c 128,-1,22
 416 872 416 872 384.5 885.5 c 128,-1,23
 353 899 353 899 329 899 c 0,24,25
 306 899 306 899 293.5 884.5 c 128,-1,26
 281 870 281 870 281 832 c 1,27,-1
 128 832 l 1,28,29
 127 834 127 834 127 846 c 0,30,31
 127 861 127 861 129.5 886 c 128,-1,32
 132 911 132 911 140.5 939.5 c 128,-1,33
 149 968 149 968 163.5 997.5 c 128,-1,34
 178 1027 178 1027 202.5 1051 c 128,-1,35
 227 1075 227 1075 262.5 1090 c 128,-1,36
 298 1105 298 1105 347 1105 c 0,0,1
EndSplineSet
EndChar

StartChar: exclamdown
Encoding: 161 161 96
Width: 384
Flags: W
LayerCount: 2
Fore
SplineSet
128 1152 m 1,0,-1
 256 1152 l 1,1,-1
 256 0 l 1,2,-1
 64 0 l 1,3,-1
 128 1152 l 1,0,-1
64 1536 m 1,4,-1
 320 1536 l 1,5,-1
 320 1280 l 1,6,-1
 64 1280 l 1,7,-1
 64 1536 l 1,4,-1
EndSplineSet
EndChar

StartChar: cent
Encoding: 162 162 97
Width: 1027
Flags: W
LayerCount: 2
Fore
SplineSet
479 -15 m 1,0,1
 396 -8 396 -8 338 15.5 c 128,-1,2
 280 39 280 39 241.5 76.5 c 128,-1,3
 203 114 203 114 180.5 163 c 128,-1,4
 158 212 158 212 146.5 270.5 c 128,-1,5
 135 329 135 329 132 395 c 128,-1,6
 129 461 129 461 129 532 c 2,7,-1
 129 733 l 2,8,9
 129 795 129 795 132 859 c 128,-1,10
 135 923 135 923 146.5 982.5 c 128,-1,11
 158 1042 158 1042 180.5 1095 c 128,-1,12
 203 1148 203 1148 241.5 1189.5 c 128,-1,13
 280 1231 280 1231 338 1258.5 c 128,-1,14
 396 1286 396 1286 479 1294 c 1,15,-1
 479 1408 l 1,16,-1
 557 1408 l 1,17,-1
 557 1294 l 1,18,19
 644 1284 644 1284 703 1252.5 c 128,-1,20
 762 1221 762 1221 799.5 1177.5 c 128,-1,21
 837 1134 837 1134 857 1083.5 c 128,-1,22
 877 1033 877 1033 886 985 c 128,-1,23
 895 937 895 937 896 896 c 128,-1,24
 897 855 897 855 897 831 c 1,25,-1
 641 832 l 1,26,27
 641 869 641 869 639.5 906 c 128,-1,28
 638 943 638 943 630.5 975.5 c 128,-1,29
 623 1008 623 1008 605.5 1033.5 c 128,-1,30
 588 1059 588 1059 557 1073 c 1,31,-1
 557 207 l 1,32,33
 588 222 588 222 605.5 248.5 c 128,-1,34
 623 275 623 275 630.5 309.5 c 128,-1,35
 638 344 638 344 639.5 385.5 c 128,-1,36
 641 427 641 427 641 473 c 1,37,-1
 897 473 l 1,38,39
 897 470 897 470 897.5 458.5 c 128,-1,40
 898 447 898 447 898 430 c 0,41,42
 898 402 898 402 894.5 360.5 c 128,-1,43
 891 319 891 319 879 272.5 c 128,-1,44
 867 226 867 226 844.5 179 c 128,-1,45
 822 132 822 132 784.5 92 c 128,-1,46
 747 52 747 52 691 23.5 c 128,-1,47
 635 -5 635 -5 557 -14 c 1,48,-1
 557 -128 l 1,49,-1
 479 -128 l 1,50,-1
 479 -15 l 1,0,1
385 640 m 0,51,52
 385 535 385 535 386.5 459.5 c 128,-1,53
 388 384 388 384 397 332 c 128,-1,54
 406 280 406 280 425 250 c 128,-1,55
 444 220 444 220 479 206 c 1,56,-1
 479 1071 l 1,57,58
 444 1054 444 1054 425 1020.5 c 128,-1,59
 406 987 406 987 397 934 c 128,-1,60
 388 881 388 881 386.5 808 c 128,-1,61
 385 735 385 735 385 640 c 0,51,52
EndSplineSet
EndChar

StartChar: sterling
Encoding: 163 163 98
Width: 896
Flags: W
LayerCount: 2
Fore
SplineSet
0 960 m 1,0,-1
 128 960 l 1,1,-1
 128 1152 l 2,2,3
 128 1216 128 1216 130 1289.5 c 128,-1,4
 132 1363 132 1363 142.5 1436 c 128,-1,5
 153 1509 153 1509 176 1577 c 128,-1,6
 199 1645 199 1645 241.5 1696.5 c 128,-1,7
 284 1748 284 1748 350 1779 c 128,-1,8
 416 1810 416 1810 512 1810 c 0,9,10
 595 1810 595 1810 651 1784.5 c 128,-1,11
 707 1759 707 1759 743 1717.5 c 128,-1,12
 779 1676 779 1676 797 1624.5 c 128,-1,13
 815 1573 815 1573 823 1521 c 128,-1,14
 831 1469 831 1469 831.5 1422.5 c 128,-1,15
 832 1376 832 1376 832 1344 c 1,16,-1
 640 1344 l 1,17,18
 640 1360 640 1360 639.5 1385 c 128,-1,19
 639 1410 639 1410 636 1438.5 c 128,-1,20
 633 1467 633 1467 625.5 1496 c 128,-1,21
 618 1525 618 1525 603.5 1548 c 128,-1,22
 589 1571 589 1571 567 1585.5 c 128,-1,23
 545 1600 545 1600 512 1600 c 0,24,25
 464 1600 464 1600 438 1566 c 128,-1,26
 412 1532 412 1532 400 1472 c 128,-1,27
 388 1412 388 1412 386 1330 c 128,-1,28
 384 1248 384 1248 384 1152 c 2,29,-1
 384 960 l 1,30,-1
 640 960 l 1,31,-1
 640 768 l 1,32,-1
 384 768 l 1,33,-1
 384 192 l 1,34,-1
 832 192 l 1,35,-1
 832 0 l 1,36,-1
 0 0 l 1,37,-1
 0 128 l 1,38,-1
 128 191 l 1,39,-1
 128 768 l 1,40,-1
 0 768 l 1,41,-1
 0 960 l 1,0,-1
EndSplineSet
EndChar

StartChar: yen
Encoding: 165 165 99
Width: 1024
Flags: W
LayerCount: 2
Fore
SplineSet
384 0 m 1,0,-1
 384 256 l 1,1,-1
 192 256 l 1,2,-1
 192 424 l 1,3,-1
 384 424 l 1,4,-1
 384 553 l 1,5,-1
 192 553 l 1,6,-1
 192 719 l 1,7,-1
 341 719 l 1,8,-1
 48 1792 l 1,9,-1
 308 1792 l 1,10,-1
 512 848 l 1,11,-1
 714 1792 l 1,12,-1
 974 1792 l 1,13,-1
 679 719 l 1,14,-1
 832 719 l 1,15,-1
 832 553 l 1,16,-1
 640 553 l 1,17,-1
 640 424 l 1,18,-1
 832 424 l 1,19,-1
 832 256 l 1,20,-1
 640 256 l 1,21,-1
 640 0 l 1,22,-1
 384 0 l 1,0,-1
EndSplineSet
EndChar

StartChar: section
Encoding: 167 167 100
Width: 960
Flags: W
LayerCount: 2
Fore
SplineSet
288 385 m 1,0,1
 299 354 299 354 316.5 320.5 c 128,-1,2
 334 287 334 287 358 258.5 c 128,-1,3
 382 230 382 230 412.5 211.5 c 128,-1,4
 443 193 443 193 480 193 c 0,5,6
 504 193 504 193 527 199.5 c 128,-1,7
 550 206 550 206 568 221 c 128,-1,8
 586 236 586 236 597 260.5 c 128,-1,9
 608 285 608 285 608 321 c 0,10,11
 608 379 608 379 587.5 417 c 128,-1,12
 567 455 567 455 544 469 c 2,13,-1
 288 625 l 2,14,15
 223 664 223 664 185 704 c 128,-1,16
 147 744 147 744 127 782.5 c 128,-1,17
 107 821 107 821 101.5 857 c 128,-1,18
 96 893 96 893 96 925 c 0,19,20
 96 1027 96 1027 142 1105.5 c 128,-1,21
 188 1184 188 1184 282 1226 c 1,22,23
 222 1261 222 1261 185 1294 c 128,-1,24
 148 1327 148 1327 128.5 1358 c 128,-1,25
 109 1389 109 1389 102.5 1417.5 c 128,-1,26
 96 1446 96 1446 96 1472 c 0,27,28
 96 1544 96 1544 120 1606 c 128,-1,29
 144 1668 144 1668 192 1713 c 128,-1,30
 240 1758 240 1758 312 1784 c 128,-1,31
 384 1810 384 1810 480 1810 c 0,32,33
 575 1810 575 1810 642.5 1776.5 c 128,-1,34
 710 1743 710 1743 755 1692 c 128,-1,35
 800 1641 800 1641 826 1582 c 128,-1,36
 852 1523 852 1523 864 1472 c 1,37,-1
 672 1408 l 1,38,39
 661 1437 661 1437 644.5 1470.5 c 128,-1,40
 628 1504 628 1504 604.5 1533 c 128,-1,41
 581 1562 581 1562 550 1581 c 128,-1,42
 519 1600 519 1600 480 1600 c 0,43,44
 456 1600 456 1600 433 1593.5 c 128,-1,45
 410 1587 410 1587 392 1572 c 128,-1,46
 374 1557 374 1557 363 1532.5 c 128,-1,47
 352 1508 352 1508 352 1472 c 0,48,49
 352 1434 352 1434 373.5 1407 c 128,-1,50
 395 1380 395 1380 416 1364 c 1,51,52
 563 1283 563 1283 651.5 1216.5 c 128,-1,53
 740 1150 740 1150 787 1092.5 c 128,-1,54
 834 1035 834 1035 849 984 c 128,-1,55
 864 933 864 933 864 882 c 0,56,57
 864 788 864 788 824.5 714.5 c 128,-1,58
 785 641 785 641 706 596 c 1,59,60
 781 536 781 536 822.5 469 c 128,-1,61
 864 402 864 402 864 321 c 0,62,63
 864 249 864 249 840 187 c 128,-1,64
 816 125 816 125 768 80 c 128,-1,65
 720 35 720 35 648 9 c 128,-1,66
 576 -17 576 -17 480 -17 c 0,67,68
 420 -17 420 -17 371.5 -2.5 c 128,-1,69
 323 12 323 12 284.5 35.5 c 128,-1,70
 246 59 246 59 217.5 89.5 c 128,-1,71
 189 120 189 120 168 152 c 0,72,73
 118 226 118 226 96 321 c 1,74,-1
 288 385 l 1,0,1
608 882 m 0,75,76
 608 905 608 905 592.5 930.5 c 128,-1,77
 577 956 577 956 553.5 981 c 128,-1,78
 530 1006 530 1006 502 1030 c 128,-1,79
 474 1054 474 1054 448 1074 c 1,80,81
 433 1065 433 1065 416.5 1051.5 c 128,-1,82
 400 1038 400 1038 385.5 1019.5 c 128,-1,83
 371 1001 371 1001 361.5 977.5 c 128,-1,84
 352 954 352 954 352 925 c 0,85,86
 352 887 352 887 373 859 c 128,-1,87
 394 831 394 831 416 817 c 2,88,-1
 512 754 l 1,89,90
 527 761 527 761 544 772 c 128,-1,91
 561 783 561 783 575.5 798.5 c 128,-1,92
 590 814 590 814 599 834.5 c 128,-1,93
 608 855 608 855 608 882 c 0,75,76
EndSplineSet
EndChar

StartChar: dieresis
Encoding: 168 168 101
Width: 896
Flags: W
LayerCount: 2
Fore
SplineSet
128 1792 m 1,0,-1
 384 1792 l 1,1,-1
 384 1536 l 1,2,-1
 128 1536 l 1,3,-1
 128 1792 l 1,0,-1
512 1792 m 1,4,-1
 768 1792 l 1,5,-1
 768 1536 l 1,6,-1
 512 1536 l 1,7,-1
 512 1792 l 1,4,-1
EndSplineSet
EndChar

StartChar: copyright
Encoding: 169 169 102
Width: 1528
Flags: W
LayerCount: 2
Fore
SplineSet
768 217 m 0,0,1
 695 217 695 217 644.5 237.5 c 128,-1,2
 594 258 594 258 561.5 293.5 c 128,-1,3
 529 329 529 329 511.5 377 c 128,-1,4
 494 425 494 425 486 481.5 c 128,-1,5
 478 538 478 538 476.5 599.5 c 128,-1,6
 475 661 475 661 475 723 c 0,7,8
 475 776 475 776 477 830 c 128,-1,9
 479 884 479 884 488 935 c 128,-1,10
 497 986 497 986 515.5 1030.5 c 128,-1,11
 534 1075 534 1075 567 1108.5 c 128,-1,12
 600 1142 600 1142 650.5 1161 c 128,-1,13
 701 1180 701 1180 774 1180 c 0,14,15
 844 1180 844 1180 892.5 1160 c 128,-1,16
 941 1140 941 1140 972 1108 c 128,-1,17
 1003 1076 1003 1076 1020 1037 c 128,-1,18
 1037 998 1037 998 1044.5 960.5 c 128,-1,19
 1052 923 1052 923 1053.5 890.5 c 128,-1,20
 1055 858 1055 858 1055 840 c 1,21,-1
 872 840 l 1,22,23
 872 885 872 885 867.5 921.5 c 128,-1,24
 863 958 863 958 851.5 983.5 c 128,-1,25
 840 1009 840 1009 821.5 1022.5 c 128,-1,26
 803 1036 803 1036 776 1036 c 0,27,28
 741 1036 741 1036 717.5 1028.5 c 128,-1,29
 694 1021 694 1021 680 989.5 c 128,-1,30
 666 958 666 958 660.5 895 c 128,-1,31
 655 832 655 832 655 721 c 0,32,33
 655 622 655 622 657.5 554 c 128,-1,34
 660 486 660 486 671.5 444 c 128,-1,35
 683 402 683 402 705.5 383.5 c 128,-1,36
 728 365 728 365 768 365 c 0,37,38
 805 365 805 365 826.5 385 c 128,-1,39
 848 405 848 405 858.5 436.5 c 128,-1,40
 869 468 869 468 871.5 505.5 c 128,-1,41
 874 543 874 543 874 578 c 1,42,-1
 1053 578 l 1,43,-1
 1053 562 l 2,44,45
 1053 544 1053 544 1050.5 511.5 c 128,-1,46
 1048 479 1048 479 1039 440.5 c 128,-1,47
 1030 402 1030 402 1012 362.5 c 128,-1,48
 994 323 994 323 962.5 290.5 c 128,-1,49
 931 258 931 258 883.5 237.5 c 128,-1,50
 836 217 836 217 768 217 c 0,0,1
242 696 m 0,51,52
 242 579 242 579 283 476.5 c 128,-1,53
 324 374 324 374 394.5 297.5 c 128,-1,54
 465 221 465 221 560.5 177 c 128,-1,55
 656 133 656 133 764 133 c 256,56,57
 872 133 872 133 967.5 177 c 128,-1,58
 1063 221 1063 221 1133.5 297.5 c 128,-1,59
 1204 374 1204 374 1245 476.5 c 128,-1,60
 1286 579 1286 579 1286 696 c 0,61,62
 1286 774 1286 774 1267.5 846 c 128,-1,63
 1249 918 1249 918 1215 981 c 128,-1,64
 1181 1044 1181 1044 1133.5 1095 c 128,-1,65
 1086 1146 1086 1146 1028 1183 c 128,-1,66
 970 1220 970 1220 903 1240 c 128,-1,67
 836 1260 836 1260 764 1260 c 256,68,69
 692 1260 692 1260 625 1240 c 128,-1,70
 558 1220 558 1220 500 1183 c 128,-1,71
 442 1146 442 1146 394.5 1095 c 128,-1,72
 347 1044 347 1044 313 981 c 128,-1,73
 279 918 279 918 260.5 846 c 128,-1,74
 242 774 242 774 242 696 c 0,51,52
70 700 m 256,75,76
 70 799 70 799 95 890.5 c 128,-1,77
 120 982 120 982 165 1061.5 c 128,-1,78
 210 1141 210 1141 273.5 1206 c 128,-1,79
 337 1271 337 1271 414 1317.5 c 128,-1,80
 491 1364 491 1364 579.5 1389.5 c 128,-1,81
 668 1415 668 1415 764 1415 c 256,82,83
 860 1415 860 1415 948.5 1389.5 c 128,-1,84
 1037 1364 1037 1364 1114 1317.5 c 128,-1,85
 1191 1271 1191 1271 1254.5 1206 c 128,-1,86
 1318 1141 1318 1141 1363 1061.5 c 128,-1,87
 1408 982 1408 982 1433 890.5 c 128,-1,88
 1458 799 1458 799 1458 700 c 256,89,90
 1458 601 1458 601 1433 510 c 128,-1,91
 1408 419 1408 419 1363 339.5 c 128,-1,92
 1318 260 1318 260 1254.5 195 c 128,-1,93
 1191 130 1191 130 1114 83.5 c 128,-1,94
 1037 37 1037 37 948.5 11.5 c 128,-1,95
 860 -14 860 -14 764 -14 c 256,96,97
 668 -14 668 -14 579.5 11.5 c 128,-1,98
 491 37 491 37 414 83.5 c 128,-1,99
 337 130 337 130 273.5 195 c 128,-1,100
 210 260 210 260 165 339.5 c 128,-1,101
 120 419 120 419 95 510 c 128,-1,102
 70 601 70 601 70 700 c 256,75,76
EndSplineSet
EndChar

StartChar: ordfeminine
Encoding: 170 170 103
Width: 842
Flags: W
LayerCount: 2
Fore
SplineSet
430 766 m 1,0,1
 395 701 395 701 345.5 673 c 128,-1,2
 296 645 296 645 246 645 c 0,3,4
 208 645 208 645 173 659.5 c 128,-1,5
 138 674 138 674 111.5 699.5 c 128,-1,6
 85 725 85 725 69 760.5 c 128,-1,7
 53 796 53 796 53 838 c 0,8,9
 53 866 53 866 57 892 c 128,-1,10
 61 918 61 918 74 942.5 c 128,-1,11
 87 967 87 967 112 991 c 128,-1,12
 137 1015 137 1015 178.5 1039.5 c 128,-1,13
 220 1064 220 1064 281.5 1089 c 128,-1,14
 343 1114 343 1114 430 1141 c 1,15,-1
 430 1235 l 2,16,17
 430 1283 430 1283 422 1310.5 c 128,-1,18
 414 1338 414 1338 402 1352 c 128,-1,19
 390 1366 390 1366 377 1370 c 128,-1,20
 364 1374 364 1374 354 1374 c 0,21,22
 305 1374 305 1374 284.5 1333 c 128,-1,23
 264 1292 264 1292 264 1223 c 1,24,-1
 86 1223 l 1,25,26
 87 1293 87 1293 108 1347.5 c 128,-1,27
 129 1402 129 1402 165 1440 c 128,-1,28
 201 1478 201 1478 250.5 1498 c 128,-1,29
 300 1518 300 1518 358 1518 c 0,30,31
 437 1518 437 1518 488.5 1496.5 c 128,-1,32
 540 1475 540 1475 570 1432 c 128,-1,33
 600 1389 600 1389 611.5 1325 c 128,-1,34
 623 1261 623 1261 623 1176 c 2,35,-1
 623 883 l 2,36,37
 623 833 623 833 623.5 799 c 128,-1,38
 624 765 624 765 625.5 740 c 128,-1,39
 627 715 627 715 629.5 695.5 c 128,-1,40
 632 676 632 676 637 655 c 1,41,-1
 446 655 l 1,42,-1
 430 766 l 1,0,1
248 883 m 0,43,44
 248 838 248 838 269 818.5 c 128,-1,45
 290 799 290 799 319 799 c 0,46,47
 350 799 350 799 381.5 819 c 128,-1,48
 413 839 413 839 430 874 c 1,49,-1
 430 1063 l 1,50,51
 339 1013 339 1013 293.5 972.5 c 128,-1,52
 248 932 248 932 248 883 c 0,43,44
EndSplineSet
EndChar

StartChar: guillemotleft
Encoding: 171 171 104
Width: 1024
Flags: W
LayerCount: 2
Fore
SplineSet
64 704 m 1,0,-1
 512 1216 l 1,1,-1
 512 896 l 1,2,-1
 256 641 l 1,3,-1
 512 384 l 1,4,-1
 512 64 l 1,5,-1
 64 576 l 1,6,-1
 64 704 l 1,0,-1
512 704 m 1,7,-1
 960 1216 l 1,8,-1
 960 896 l 1,9,-1
 704 641 l 1,10,-1
 960 384 l 1,11,-1
 960 64 l 1,12,-1
 512 576 l 1,13,-1
 512 704 l 1,7,-1
EndSplineSet
EndChar

StartChar: logicalnot
Encoding: 172 172 105
Width: 768
Flags: W
LayerCount: 2
Fore
SplineSet
128 640 m 1,0,-1
 640 640 l 1,1,-1
 640 256 l 1,2,-1
 512 256 l 1,3,-1
 512 448 l 1,4,-1
 128 448 l 1,5,-1
 128 640 l 1,0,-1
EndSplineSet
EndChar

StartChar: registered
Encoding: 174 174 106
Width: 1528
Flags: W
LayerCount: 2
Fore
SplineSet
242 696 m 0,0,1
 242 579 242 579 283 476.5 c 128,-1,2
 324 374 324 374 394.5 297.5 c 128,-1,3
 465 221 465 221 560.5 177 c 128,-1,4
 656 133 656 133 764 133 c 256,5,6
 872 133 872 133 967.5 177 c 128,-1,7
 1063 221 1063 221 1133.5 297.5 c 128,-1,8
 1204 374 1204 374 1245 476.5 c 128,-1,9
 1286 579 1286 579 1286 696 c 0,10,11
 1286 774 1286 774 1267.5 846 c 128,-1,12
 1249 918 1249 918 1215 981 c 128,-1,13
 1181 1044 1181 1044 1133.5 1095 c 128,-1,14
 1086 1146 1086 1146 1028 1183 c 128,-1,15
 970 1220 970 1220 903 1240 c 128,-1,16
 836 1260 836 1260 764 1260 c 256,17,18
 692 1260 692 1260 625 1240 c 128,-1,19
 558 1220 558 1220 500 1183 c 128,-1,20
 442 1146 442 1146 394.5 1095 c 128,-1,21
 347 1044 347 1044 313 981 c 128,-1,22
 279 918 279 918 260.5 846 c 128,-1,23
 242 774 242 774 242 696 c 0,0,1
70 700 m 256,24,25
 70 799 70 799 95 890.5 c 128,-1,26
 120 982 120 982 165 1061.5 c 128,-1,27
 210 1141 210 1141 273.5 1206 c 128,-1,28
 337 1271 337 1271 414 1317.5 c 128,-1,29
 491 1364 491 1364 579.5 1389.5 c 128,-1,30
 668 1415 668 1415 764 1415 c 256,31,32
 860 1415 860 1415 948.5 1389.5 c 128,-1,33
 1037 1364 1037 1364 1114 1317.5 c 128,-1,34
 1191 1271 1191 1271 1254.5 1206 c 128,-1,35
 1318 1141 1318 1141 1363 1061.5 c 128,-1,36
 1408 982 1408 982 1433 890.5 c 128,-1,37
 1458 799 1458 799 1458 700 c 256,38,39
 1458 601 1458 601 1433 510 c 128,-1,40
 1408 419 1408 419 1363 339.5 c 128,-1,41
 1318 260 1318 260 1254.5 195 c 128,-1,42
 1191 130 1191 130 1114 83.5 c 128,-1,43
 1037 37 1037 37 948.5 11.5 c 128,-1,44
 860 -14 860 -14 764 -14 c 256,45,46
 668 -14 668 -14 579.5 11.5 c 128,-1,47
 491 37 491 37 414 83.5 c 128,-1,48
 337 130 337 130 273.5 195 c 128,-1,49
 210 260 210 260 165 339.5 c 128,-1,50
 120 419 120 419 95 510 c 128,-1,51
 70 601 70 601 70 700 c 256,24,25
881 248 m 1,52,-1
 754 633 l 1,53,-1
 672 633 l 1,54,-1
 672 248 l 1,55,-1
 516 248 l 1,56,-1
 516 1167 l 1,57,-1
 756 1167 l 2,58,59
 835 1167 835 1167 887 1145.5 c 128,-1,60
 939 1124 939 1124 970 1086.5 c 128,-1,61
 1001 1049 1001 1049 1013.5 999.5 c 128,-1,62
 1026 950 1026 950 1026 893 c 0,63,64
 1026 842 1026 842 1015 805.5 c 128,-1,65
 1004 769 1004 769 986 743 c 128,-1,66
 968 717 968 717 945.5 699.5 c 128,-1,67
 923 682 923 682 901 670 c 1,68,-1
 901 668 l 2,69,70
 901 658 901 658 907 635 c 128,-1,71
 913 612 913 612 929.5 565.5 c 128,-1,72
 946 519 946 519 974.5 442.5 c 128,-1,73
 1003 366 1003 366 1049 248 c 1,74,-1
 881 248 l 1,52,-1
672 729 m 1,75,-1
 705 729 l 2,76,77
 744 729 744 729 774 733.5 c 128,-1,78
 804 738 804 738 824.5 754.5 c 128,-1,79
 845 771 845 771 855.5 804.5 c 128,-1,80
 866 838 866 838 866 897 c 0,81,82
 866 975 866 975 836 1012 c 128,-1,83
 806 1049 806 1049 743 1049 c 2,84,-1
 672 1049 l 1,85,-1
 672 729 l 1,75,-1
EndSplineSet
EndChar

StartChar: degree
Encoding: 176 176 107
Width: 1024
Flags: W
LayerCount: 2
Fore
SplineSet
512 1810 m 0,0,1
 615 1810 615 1810 688 1777 c 128,-1,2
 761 1744 761 1744 807 1690 c 128,-1,3
 853 1636 853 1636 874.5 1567.5 c 128,-1,4
 896 1499 896 1499 896 1427 c 256,5,6
 896 1355 896 1355 874.5 1285.5 c 128,-1,7
 853 1216 853 1216 807 1162 c 128,-1,8
 761 1108 761 1108 688 1075 c 128,-1,9
 615 1042 615 1042 512 1042 c 256,10,11
 409 1042 409 1042 336 1075 c 128,-1,12
 263 1108 263 1108 217 1162 c 128,-1,13
 171 1216 171 1216 149.5 1285.5 c 128,-1,14
 128 1355 128 1355 128 1427 c 256,15,16
 128 1499 128 1499 149 1567.5 c 128,-1,17
 170 1636 170 1636 216.5 1690 c 128,-1,18
 263 1744 263 1744 335.5 1777 c 128,-1,19
 408 1810 408 1810 512 1810 c 0,0,1
512 1212 m 256,20,21
 562 1212 562 1212 598.5 1230.5 c 128,-1,22
 635 1249 635 1249 658.5 1279 c 128,-1,23
 682 1309 682 1309 693 1347.5 c 128,-1,24
 704 1386 704 1386 704 1426 c 256,25,26
 704 1466 704 1466 693 1504.5 c 128,-1,27
 682 1543 682 1543 658.5 1573 c 128,-1,28
 635 1603 635 1603 599 1621.5 c 128,-1,29
 563 1640 563 1640 512 1640 c 256,30,31
 461 1640 461 1640 425 1622 c 128,-1,32
 389 1604 389 1604 365.5 1574 c 128,-1,33
 342 1544 342 1544 331 1505.5 c 128,-1,34
 320 1467 320 1467 320 1427 c 256,35,36
 320 1387 320 1387 331 1348.5 c 128,-1,37
 342 1310 342 1310 365.5 1279.5 c 128,-1,38
 389 1249 389 1249 425.5 1230.5 c 128,-1,39
 462 1212 462 1212 512 1212 c 256,20,21
EndSplineSet
EndChar

StartChar: plusminus
Encoding: 177 177 108
Width: 832
Flags: W
LayerCount: 2
Fore
SplineSet
128 192 m 1,0,-1
 704 192 l 1,1,-1
 704 0 l 1,2,-1
 128 0 l 1,3,-1
 128 192 l 1,0,-1
320 384 m 1,4,-1
 320 576 l 1,5,-1
 128 576 l 1,6,-1
 128 768 l 1,7,-1
 320 768 l 1,8,-1
 320 960 l 1,9,-1
 512 960 l 1,10,-1
 512 768 l 1,11,-1
 704 768 l 1,12,-1
 704 576 l 1,13,-1
 512 576 l 1,14,-1
 512 384 l 1,15,-1
 320 384 l 1,4,-1
EndSplineSet
EndChar

StartChar: acute
Encoding: 180 180 109
Width: 640
Flags: W
LayerCount: 2
Fore
SplineSet
256 1408 m 1,0,-1
 128 1408 l 1,1,-1
 256 1792 l 1,2,-1
 512 1792 l 1,3,-1
 256 1408 l 1,0,-1
EndSplineSet
EndChar

StartChar: mu
Encoding: 181 181 110
Width: 1024
Flags: W
LayerCount: 2
Fore
SplineSet
128 1280 m 1,0,-1
 384 1280 l 1,1,-1
 384 267 l 2,2,3
 384 225 384 225 409.5 201 c 128,-1,4
 435 177 435 177 472 177 c 0,5,6
 496 177 496 177 518.5 185.5 c 128,-1,7
 541 194 541 194 562 207 c 128,-1,8
 583 220 583 220 602.5 236 c 128,-1,9
 622 252 622 252 640 267 c 1,10,-1
 640 1280 l 1,11,-1
 896 1280 l 1,12,-1
 896 0 l 1,13,-1
 640 0 l 1,14,-1
 640 138 l 1,15,16
 621 96 621 96 590 69.5 c 128,-1,17
 559 43 559 43 523.5 28 c 128,-1,18
 488 13 488 13 451 7 c 128,-1,19
 414 1 414 1 384 0 c 1,20,-1
 384 -256 l 1,21,-1
 128 -256 l 1,22,-1
 128 1280 l 1,0,-1
EndSplineSet
EndChar

StartChar: paragraph
Encoding: 182 182 111
Width: 952
Flags: W
LayerCount: 2
Fore
SplineSet
382 876 m 1,0,1
 305 876 305 876 238.5 897.5 c 128,-1,2
 172 919 172 919 122.5 960.5 c 128,-1,3
 73 1002 73 1002 44.5 1063 c 128,-1,4
 16 1124 16 1124 16 1204 c 0,5,6
 16 1362 16 1362 116.5 1449 c 128,-1,7
 217 1536 217 1536 423 1536 c 2,8,-1
 896 1536 l 1,9,-1
 896 0 l 1,10,-1
 718 0 l 1,11,-1
 718 876 l 1,12,-1
 579 876 l 1,13,-1
 579 0 l 1,14,-1
 382 0 l 1,15,-1
 382 876 l 1,0,1
EndSplineSet
EndChar

StartChar: cedilla
Encoding: 184 184 112
Width: 576
Flags: W
LayerCount: 2
Fore
SplineSet
64 -384 m 1,0,1
 136 -384 136 -384 185 -383 c 128,-1,2
 234 -382 234 -382 264 -376 c 128,-1,3
 294 -370 294 -370 307 -357 c 128,-1,4
 320 -344 320 -344 320 -320 c 0,5,6
 320 -301 320 -301 301 -282.5 c 128,-1,7
 282 -264 282 -264 253.5 -247.5 c 128,-1,8
 225 -231 225 -231 191.5 -217 c 128,-1,9
 158 -203 158 -203 128 -192 c 1,10,-1
 128 0 l 1,11,-1
 256 0 l 1,12,-1
 256 -128 l 1,13,14
 296 -139 296 -139 341 -156 c 128,-1,15
 386 -173 386 -173 424 -197 c 128,-1,16
 462 -221 462 -221 487 -251.5 c 128,-1,17
 512 -282 512 -282 512 -320 c 0,18,19
 512 -392 512 -392 478 -431 c 128,-1,20
 444 -470 444 -470 384 -488 c 128,-1,21
 324 -506 324 -506 242 -509 c 128,-1,22
 160 -512 160 -512 64 -512 c 1,23,-1
 64 -384 l 1,0,1
EndSplineSet
EndChar

StartChar: ordmasculine
Encoding: 186 186 113
Width: 899
Flags: W
LayerCount: 2
Fore
SplineSet
-1 729 m 2,0,1
 -1 825 -1 825 16 903 c 128,-1,2
 33 981 33 981 73.5 1036.5 c 128,-1,3
 114 1092 114 1092 181.5 1122.5 c 128,-1,4
 249 1153 249 1153 350 1153 c 0,5,6
 443 1153 443 1153 509.5 1121.5 c 128,-1,7
 576 1090 576 1090 618.5 1033.5 c 128,-1,8
 661 977 661 977 680.5 899 c 128,-1,9
 700 821 700 821 700 729 c 2,10,-1
 700 410 l 2,11,12
 700 318 700 318 680.5 240 c 128,-1,13
 661 162 661 162 618.5 105.5 c 128,-1,14
 576 49 576 49 509.5 17.5 c 128,-1,15
 443 -14 443 -14 350 -14 c 0,16,17
 249 -14 249 -14 181.5 16 c 128,-1,18
 114 46 114 46 73.5 101.5 c 128,-1,19
 33 157 33 157 16 235.5 c 128,-1,20
 -1 314 -1 314 -1 410 c 2,21,-1
 -1 729 l 2,0,1
212 451 m 2,22,23
 212 364 212 364 221 311.5 c 128,-1,24
 230 259 230 259 247 231.5 c 128,-1,25
 264 204 264 204 288.5 195 c 128,-1,26
 313 186 313 186 345 186 c 0,27,28
 378 186 378 186 402.5 194.5 c 128,-1,29
 427 203 427 203 443 230.5 c 128,-1,30
 459 258 459 258 466.5 310.5 c 128,-1,31
 474 363 474 363 474 451 c 2,32,-1
 474 688 l 2,33,34
 474 776 474 776 466.5 828 c 128,-1,35
 459 880 459 880 443 907.5 c 128,-1,36
 427 935 427 935 402.5 943.5 c 128,-1,37
 378 952 378 952 345 952 c 0,38,39
 313 952 313 952 288.5 943.5 c 128,-1,40
 264 935 264 935 247 907 c 128,-1,41
 230 879 230 879 221 827 c 128,-1,42
 212 775 212 775 212 688 c 2,43,-1
 212 451 l 2,22,23
EndSplineSet
EndChar

StartChar: guillemotright
Encoding: 187 187 114
Width: 1024
Flags: W
LayerCount: 2
Fore
SplineSet
960 576 m 1,0,-1
 512 64 l 1,1,-1
 512 384 l 1,2,-1
 768 641 l 1,3,-1
 512 896 l 1,4,-1
 512 1216 l 1,5,-1
 960 704 l 1,6,-1
 960 576 l 1,0,-1
512 576 m 1,7,-1
 64 64 l 1,8,-1
 64 384 l 1,9,-1
 320 641 l 1,10,-1
 64 896 l 1,11,-1
 64 1216 l 1,12,-1
 512 704 l 1,13,-1
 512 576 l 1,7,-1
EndSplineSet
EndChar

StartChar: questiondown
Encoding: 191 191 115
Width: 891
Flags: W
LayerCount: 2
Fore
SplineSet
565 1029 m 1,0,-1
 565 784 l 2,1,2
 565 783 565 783 546.5 759.5 c 128,-1,3
 528 736 528 736 501 698.5 c 128,-1,4
 474 661 474 661 441.5 613 c 128,-1,5
 409 565 409 565 382 514.5 c 128,-1,6
 355 464 355 464 336.5 415.5 c 128,-1,7
 318 367 318 367 318 328 c 0,8,9
 318 272 318 272 343 237 c 128,-1,10
 368 202 368 202 430 202 c 0,11,12
 474 202 474 202 501.5 221 c 128,-1,13
 529 240 529 240 544.5 270.5 c 128,-1,14
 560 301 560 301 565.5 340.5 c 128,-1,15
 571 380 571 380 571 421 c 1,16,-1
 790 421 l 1,17,-1
 790 396 l 2,18,19
 790 312 790 312 769 238.5 c 128,-1,20
 748 165 748 165 704 111 c 128,-1,21
 660 57 660 57 592 26 c 128,-1,22
 524 -5 524 -5 430 -5 c 0,23,24
 331 -5 331 -5 263.5 21.5 c 128,-1,25
 196 48 196 48 155.5 95 c 128,-1,26
 115 142 115 142 97.5 206.5 c 128,-1,27
 80 271 80 271 80 346 c 0,28,29
 80 383 80 383 91.5 422.5 c 128,-1,30
 103 462 103 462 122 501.5 c 128,-1,31
 141 541 141 541 165 579.5 c 128,-1,32
 189 618 189 618 214 653 c 0,33,34
 272 734 272 734 349 812 c 1,35,-1
 349 1029 l 1,36,-1
 565 1029 l 1,0,-1
564 1106 m 1,37,-1
 343 1106 l 1,38,-1
 343 1329 l 1,39,-1
 564 1329 l 1,40,-1
 564 1106 l 1,37,-1
EndSplineSet
EndChar

StartChar: circumflex
Encoding: 710 710 119
Width: 768
Flags: W
LayerCount: 2
Fore
SplineSet
384 1664 m 1,0,-1
 256 1408 l 1,1,-1
 64 1408 l 1,2,-1
 256 1792 l 1,3,-1
 512 1792 l 1,4,-1
 704 1408 l 1,5,-1
 512 1408 l 1,6,-1
 384 1664 l 1,0,-1
EndSplineSet
EndChar

StartChar: tilde
Encoding: 732 732 121
Width: 960
Flags: W
LayerCount: 2
Fore
SplineSet
347 1745 m 0,0,1
 386 1745 386 1745 425.5 1731.5 c 128,-1,2
 465 1718 465 1718 502 1702 c 128,-1,3
 539 1686 539 1686 571.5 1672.5 c 128,-1,4
 604 1659 604 1659 628 1659 c 0,5,6
 651 1659 651 1659 665 1674.5 c 128,-1,7
 679 1690 679 1690 679 1728 c 1,8,-1
 832 1728 l 1,9,10
 832 1726 832 1726 832.5 1722.5 c 128,-1,11
 833 1719 833 1719 833 1714 c 0,12,13
 833 1699 833 1699 830.5 1674 c 128,-1,14
 828 1649 828 1649 819.5 1620 c 128,-1,15
 811 1591 811 1591 796.5 1561 c 128,-1,16
 782 1531 782 1531 757.5 1507 c 128,-1,17
 733 1483 733 1483 697.5 1467.5 c 128,-1,18
 662 1452 662 1452 613 1452 c 0,19,20
 571 1452 571 1452 530 1465.5 c 128,-1,21
 489 1479 489 1479 452.5 1495.5 c 128,-1,22
 416 1512 416 1512 384.5 1525.5 c 128,-1,23
 353 1539 353 1539 329 1539 c 0,24,25
 306 1539 306 1539 293.5 1524.5 c 128,-1,26
 281 1510 281 1510 281 1472 c 1,27,-1
 128 1472 l 1,28,29
 127 1474 127 1474 127 1486 c 0,30,31
 127 1501 127 1501 129.5 1526 c 128,-1,32
 132 1551 132 1551 140.5 1579.5 c 128,-1,33
 149 1608 149 1608 163.5 1637.5 c 128,-1,34
 178 1667 178 1667 202.5 1691 c 128,-1,35
 227 1715 227 1715 262.5 1730 c 128,-1,36
 298 1745 298 1745 347 1745 c 0,0,1
EndSplineSet
EndChar

StartChar: ring
Encoding: 730 730 124
Width: 640
Flags: W
LayerCount: 2
Fore
SplineSet
320 1792 m 0,0,1
 285 1792 285 1792 261 1781 c 128,-1,2
 237 1770 237 1770 221.5 1752 c 128,-1,3
 206 1734 206 1734 199 1711 c 128,-1,4
 192 1688 192 1688 192 1664 c 256,5,6
 192 1640 192 1640 199 1617 c 128,-1,7
 206 1594 206 1594 221 1576 c 128,-1,8
 236 1558 236 1558 260.5 1547 c 128,-1,9
 285 1536 285 1536 320 1536 c 0,10,11
 354 1536 354 1536 378.5 1547 c 128,-1,12
 403 1558 403 1558 418.5 1576 c 128,-1,13
 434 1594 434 1594 441 1617 c 128,-1,14
 448 1640 448 1640 448 1664 c 256,15,16
 448 1688 448 1688 441 1711 c 128,-1,17
 434 1734 434 1734 418.5 1752 c 128,-1,18
 403 1770 403 1770 378.5 1781 c 128,-1,19
 354 1792 354 1792 320 1792 c 0,0,1
320 1920 m 256,20,21
 385 1920 385 1920 433.5 1898 c 128,-1,22
 482 1876 482 1876 513.5 1840 c 128,-1,23
 545 1804 545 1804 560.5 1758 c 128,-1,24
 576 1712 576 1712 576 1664 c 256,25,26
 576 1616 576 1616 560.5 1570 c 128,-1,27
 545 1524 545 1524 513.5 1488 c 128,-1,28
 482 1452 482 1452 433.5 1430 c 128,-1,29
 385 1408 385 1408 320 1408 c 256,30,31
 255 1408 255 1408 206.5 1430 c 128,-1,32
 158 1452 158 1452 126.5 1488 c 128,-1,33
 95 1524 95 1524 79.5 1570 c 128,-1,34
 64 1616 64 1616 64 1664 c 256,35,36
 64 1712 64 1712 79.5 1758 c 128,-1,37
 95 1804 95 1804 126.5 1840 c 128,-1,38
 158 1876 158 1876 206.5 1898 c 128,-1,39
 255 1920 255 1920 320 1920 c 256,20,21
EndSplineSet
EndChar

StartChar: AE
Encoding: 198 198 125
Width: 1408
Flags: W
LayerCount: 2
Fore
SplineSet
1216 832 m 1,0,-1
 896 832 l 1,1,-1
 896 192 l 1,2,-1
 1344 192 l 1,3,-1
 1344 0 l 1,4,-1
 640 0 l 1,5,-1
 640 448 l 1,6,-1
 320 448 l 1,7,-1
 129 0 l 1,8,-1
 -126 0 l 1,9,-1
 638 1792 l 1,10,-1
 1344 1792 l 1,11,-1
 1344 1600 l 1,12,-1
 896 1600 l 1,13,-1
 896 1024 l 1,14,-1
 1216 1024 l 1,15,-1
 1216 832 l 1,0,-1
640 640 m 1,16,-1
 640 1298 l 1,17,-1
 393 640 l 1,18,-1
 640 640 l 1,16,-1
EndSplineSet
EndChar

StartChar: Oslash
Encoding: 216 216 141
Width: 1280
Flags: W
LayerCount: 2
Fore
SplineSet
1152 576 m 2,0,1
 1152 456 1152 456 1127 348 c 128,-1,2
 1102 240 1102 240 1043 159 c 128,-1,3
 984 78 984 78 885.5 30 c 128,-1,4
 787 -18 787 -18 640 -18 c 0,5,6
 550 -18 550 -18 480 0 c 1,7,-1
 448 -128 l 1,8,-1
 320 -128 l 1,9,-1
 363 44 l 1,10,-1
 329 65 l 1,11,12
 272 104 272 104 233.5 159 c 128,-1,13
 195 214 195 214 171.5 280 c 128,-1,14
 148 346 148 346 138 421 c 128,-1,15
 128 496 128 496 128 576 c 2,16,-1
 128 1216 l 2,17,18
 128 1296 128 1296 138 1371 c 128,-1,19
 148 1446 148 1446 171.5 1512 c 128,-1,20
 195 1578 195 1578 234 1633 c 128,-1,21
 273 1688 273 1688 329.5 1727 c 128,-1,22
 386 1766 386 1766 463 1788 c 128,-1,23
 540 1810 540 1810 640 1810 c 0,24,25
 729 1810 729 1810 800 1792 c 1,26,-1
 832 1920 l 1,27,-1
 960 1920 l 1,28,-1
 916 1745 l 1,29,30
 983 1706 983 1706 1028 1650.5 c 128,-1,31
 1073 1595 1073 1595 1100.5 1527 c 128,-1,32
 1128 1459 1128 1459 1140 1380 c 128,-1,33
 1152 1301 1152 1301 1152 1216 c 2,34,-1
 1152 576 l 2,0,1
384 512 m 2,35,36
 384 447 384 447 394 393 c 128,-1,37
 404 339 404 339 427 300 c 1,38,-1
 747 1583 l 1,39,40
 701 1600 701 1600 640 1600 c 0,41,42
 568 1600 568 1600 519 1577 c 128,-1,43
 470 1554 470 1554 440 1512 c 128,-1,44
 410 1470 410 1470 397 1411 c 128,-1,45
 384 1352 384 1352 384 1280 c 2,46,-1
 384 512 l 2,35,36
640 192 m 0,47,48
 712 192 712 192 761 215 c 128,-1,49
 810 238 810 238 840 280 c 128,-1,50
 870 322 870 322 883 381 c 128,-1,51
 896 440 896 440 896 512 c 2,52,-1
 896 1280 l 2,53,54
 896 1344 896 1344 886 1397 c 128,-1,55
 876 1450 876 1450 853 1492 c 1,56,-1
 532 209 l 1,57,58
 578 192 578 192 640 192 c 0,47,48
EndSplineSet
EndChar

StartChar: germandbls
Encoding: 223 223 146
Width: 1152
Flags: W
LayerCount: 2
Fore
SplineSet
128 0 m 1,0,-1
 128 1354 l 2,1,2
 128 1477 128 1477 161 1563.5 c 128,-1,3
 194 1650 194 1650 248 1705 c 128,-1,4
 302 1760 302 1760 371 1785 c 128,-1,5
 440 1810 440 1810 512 1810 c 0,6,7
 608 1810 608 1810 678.5 1789 c 128,-1,8
 749 1768 749 1768 799 1732 c 128,-1,9
 849 1696 849 1696 880 1649 c 128,-1,10
 911 1602 911 1602 929 1550 c 128,-1,11
 947 1498 947 1498 953.5 1445 c 128,-1,12
 960 1392 960 1392 960 1344 c 0,13,14
 960 1200 960 1200 908.5 1101.5 c 128,-1,15
 857 1003 857 1003 741 939 c 1,16,17
 799 923 799 923 850.5 888 c 128,-1,18
 902 853 902 853 940.5 799.5 c 128,-1,19
 979 746 979 746 1001.5 674 c 128,-1,20
 1024 602 1024 602 1024 512 c 0,21,22
 1024 392 1024 392 998 294 c 128,-1,23
 972 196 972 196 912 127 c 128,-1,24
 852 58 852 58 754 20 c 128,-1,25
 656 -18 656 -18 512 -18 c 1,26,-1
 512 192 l 1,27,28
 584 192 584 192 633 206 c 128,-1,29
 682 220 682 220 712 256 c 128,-1,30
 742 292 742 292 755 354 c 128,-1,31
 768 416 768 416 768 512 c 0,32,33
 768 660 768 660 700.5 736 c 128,-1,34
 633 812 633 812 512 812 c 1,35,-1
 512 1024 l 1,36,37
 560 1024 560 1024 597.5 1047 c 128,-1,38
 635 1070 635 1070 660 1112 c 128,-1,39
 685 1154 685 1154 698 1213 c 128,-1,40
 711 1272 711 1272 711 1344 c 0,41,42
 711 1405 711 1405 703.5 1452.5 c 128,-1,43
 696 1500 696 1500 677.5 1533 c 128,-1,44
 659 1566 659 1566 626.5 1583 c 128,-1,45
 594 1600 594 1600 544 1600 c 0,46,47
 496 1600 496 1600 465 1583.5 c 128,-1,48
 434 1567 434 1567 416 1536 c 128,-1,49
 398 1505 398 1505 391 1460.5 c 128,-1,50
 384 1416 384 1416 384 1359 c 2,51,-1
 384 0 l 1,52,-1
 128 0 l 1,0,-1
EndSplineSet
EndChar

StartChar: ae
Encoding: 230 230 153
Width: 1465
Flags: W
LayerCount: 2
Fore
SplineSet
353 351 m 0,0,1
 353 303 353 303 364 272.5 c 128,-1,2
 375 242 375 242 393 224 c 128,-1,3
 411 206 411 206 434 199 c 128,-1,4
 457 192 457 192 481 192 c 0,5,6
 506 192 506 192 531 201.5 c 128,-1,7
 556 211 556 211 578 225.5 c 128,-1,8
 600 240 600 240 619 257.5 c 128,-1,9
 638 275 638 275 652 291 c 1,10,11
 642 328 642 328 633 374 c 0,12,13
 625 413 625 413 618 465.5 c 128,-1,14
 611 518 611 518 609 580 c 1,15,16
 529 559 529 559 479 533 c 128,-1,17
 429 507 429 507 401 478 c 128,-1,18
 373 449 373 449 363 417 c 128,-1,19
 353 385 353 385 353 351 c 0,0,1
353 -18 m 0,20,21
 305 -18 305 -18 259 7 c 128,-1,22
 213 32 213 32 177 74 c 128,-1,23
 141 116 141 116 119 170 c 128,-1,24
 97 224 97 224 97 283 c 0,25,26
 97 324 97 324 101 366 c 128,-1,27
 105 408 105 408 121.5 448 c 128,-1,28
 138 488 138 488 170.5 526.5 c 128,-1,29
 203 565 203 565 260 600 c 128,-1,30
 317 635 317 635 402 666.5 c 128,-1,31
 487 698 487 698 609 725 c 1,32,-1
 609 896 l 2,33,34
 609 962 609 962 598 1002.5 c 128,-1,35
 587 1043 587 1043 569 1064.5 c 128,-1,36
 551 1086 551 1086 528 1093 c 128,-1,37
 505 1100 505 1100 481 1100 c 256,38,39
 457 1100 457 1100 434 1092.5 c 128,-1,40
 411 1085 411 1085 393 1063 c 128,-1,41
 375 1041 375 1041 364 1001 c 128,-1,42
 353 961 353 961 353 896 c 1,43,-1
 97 896 l 1,44,45
 98 987 98 987 125.5 1061.5 c 128,-1,46
 153 1136 153 1136 203 1188.5 c 128,-1,47
 253 1241 253 1241 323.5 1269.5 c 128,-1,48
 394 1298 394 1298 481 1298 c 0,49,50
 523 1298 523 1298 563 1288.5 c 128,-1,51
 603 1279 603 1279 637.5 1260.5 c 128,-1,52
 672 1242 672 1242 698 1213.5 c 128,-1,53
 724 1185 724 1185 737 1146 c 1,54,55
 756 1180 756 1180 783 1208 c 128,-1,56
 810 1236 810 1236 843 1256 c 128,-1,57
 876 1276 876 1276 913.5 1287 c 128,-1,58
 951 1298 951 1298 992 1298 c 0,59,60
 1068 1298 1068 1298 1134 1273 c 128,-1,61
 1200 1248 1200 1248 1249 1196.5 c 128,-1,62
 1298 1145 1298 1145 1326 1066.5 c 128,-1,63
 1354 988 1354 988 1354 880 c 0,64,65
 1354 867 1354 867 1353.5 854.5 c 128,-1,66
 1353 842 1353 842 1352 829 c 0,67,68
 1348 759 1348 759 1310 720.5 c 128,-1,69
 1272 682 1272 682 1207 662.5 c 128,-1,70
 1142 643 1142 643 1054.5 635.5 c 128,-1,71
 967 628 967 628 864 619 c 1,72,-1
 864 576 l 2,73,74
 864 503 864 503 866 432.5 c 128,-1,75
 868 362 868 362 880 307 c 128,-1,76
 892 252 892 252 918 218.5 c 128,-1,77
 944 185 944 185 992 185 c 0,78,79
 1035 185 1035 185 1058.5 207 c 128,-1,80
 1082 229 1082 229 1093 265 c 128,-1,81
 1104 301 1104 301 1106 347.5 c 128,-1,82
 1108 394 1108 394 1108 442 c 2,83,-1
 1108 448 l 1,84,-1
 1363 448 l 1,85,86
 1363 208 1363 208 1270 95 c 128,-1,87
 1177 -18 1177 -18 991 -18 c 0,88,89
 885 -18 885 -18 806.5 28 c 128,-1,90
 728 74 728 74 684 179 c 1,91,92
 653 134 653 134 620.5 97.5 c 128,-1,93
 588 61 588 61 549 35.5 c 128,-1,94
 510 10 510 10 462.5 -4 c 128,-1,95
 415 -18 415 -18 353 -18 c 0,20,21
992 1088 m 0,96,97
 944 1088 944 1088 918 1055.5 c 128,-1,98
 892 1023 892 1023 880 974.5 c 128,-1,99
 868 926 868 926 866 869.5 c 128,-1,100
 864 813 864 813 864 764 c 1,101,-1
 981 778 l 2,102,103
 1016 783 1016 783 1042 786.5 c 128,-1,104
 1068 790 1068 790 1085.5 801.5 c 128,-1,105
 1103 813 1103 813 1111.5 836 c 128,-1,106
 1120 859 1120 859 1120 904 c 0,107,108
 1120 937 1120 937 1113.5 969.5 c 128,-1,109
 1107 1002 1107 1002 1092 1028.5 c 128,-1,110
 1077 1055 1077 1055 1052.5 1071.5 c 128,-1,111
 1028 1088 1028 1088 992 1088 c 0,96,97
EndSplineSet
EndChar

StartChar: dotlessi
Encoding: 305 305 160
Width: 512
Flags: W
LayerCount: 2
Fore
SplineSet
128 1280 m 1,0,-1
 384 1280 l 1,1,-1
 384 0 l 1,2,-1
 128 0 l 1,3,-1
 128 1280 l 1,0,-1
EndSplineSet
EndChar

StartChar: divide
Encoding: 247 247 168
Width: 640
Flags: W
LayerCount: 2
Fore
SplineSet
0 768 m 1,0,-1
 640 768 l 1,1,-1
 640 576 l 1,2,-1
 0 576 l 1,3,-1
 0 768 l 1,0,-1
192 1135 m 1,4,-1
 448 1135 l 1,5,-1
 448 879 l 1,6,-1
 192 879 l 1,7,-1
 192 1135 l 1,4,-1
192 489 m 1,8,-1
 448 489 l 1,9,-1
 448 233 l 1,10,-1
 192 233 l 1,11,-1
 192 489 l 1,8,-1
EndSplineSet
EndChar

StartChar: oslash
Encoding: 248 248 169
Width: 1024
Flags: W
LayerCount: 2
Fore
SplineSet
384 448 m 2,0,1
 384 424 384 424 384.5 400.5 c 128,-1,2
 385 377 385 377 386 354 c 1,3,-1
 386 346 l 1,4,-1
 622 1015 l 1,5,6
 609 1048 609 1048 583.5 1068 c 128,-1,7
 558 1088 558 1088 512 1088 c 0,8,9
 464 1088 464 1088 438 1066 c 128,-1,10
 412 1044 412 1044 400 1008 c 128,-1,11
 388 972 388 972 386 926 c 128,-1,12
 384 880 384 880 384 832 c 2,13,-1
 384 448 l 2,0,1
128 832 m 2,14,15
 128 864 128 864 130 910.5 c 128,-1,16
 132 957 132 957 142.5 1009 c 128,-1,17
 153 1061 153 1061 176.5 1112.5 c 128,-1,18
 200 1164 200 1164 242.5 1205 c 128,-1,19
 285 1246 285 1246 350.5 1272 c 128,-1,20
 416 1298 416 1298 512 1298 c 0,21,22
 574 1298 574 1298 619.5 1287.5 c 128,-1,23
 665 1277 665 1277 707 1258 c 1,24,-1
 779 1462 l 1,25,-1
 876 1462 l 1,26,-1
 784 1205 l 1,27,28
 825 1164 825 1164 848 1112.5 c 128,-1,29
 871 1061 871 1061 881.5 1009 c 128,-1,30
 892 957 892 957 894 910.5 c 128,-1,31
 896 864 896 864 896 832 c 2,32,-1
 896 448 l 2,33,34
 896 416 896 416 894 369 c 128,-1,35
 892 322 892 322 881.5 270.5 c 128,-1,36
 871 219 871 219 848 167 c 128,-1,37
 825 115 825 115 782.5 74 c 128,-1,38
 740 33 740 33 674 7.5 c 128,-1,39
 608 -18 608 -18 512 -18 c 0,40,41
 418 -18 418 -18 354 6 c 1,42,-1
 282 -196 l 1,43,-1
 196 -196 l 1,44,-1
 280 43 l 1,45,46
 223 80 223 80 192 135 c 128,-1,47
 161 190 161 190 147 248.5 c 128,-1,48
 133 307 133 307 130.5 360.5 c 128,-1,49
 128 414 128 414 128 448 c 2,50,-1
 128 832 l 2,14,15
431 220 m 1,51,-1
 438 214 l 2,52,53
 463 192 463 192 512 192 c 0,54,55
 560 192 560 192 586 214 c 128,-1,56
 612 236 612 236 624 272 c 128,-1,57
 636 308 636 308 638 354 c 128,-1,58
 640 400 640 400 640 448 c 2,59,-1
 640 803 l 1,60,-1
 431 220 l 1,51,-1
EndSplineSet
EndChar

StartChar: breve
Encoding: 728 728 175
Width: 768
Flags: W
LayerCount: 2
Fore
SplineSet
384 1408 m 256,0,1
 352 1408 352 1408 316 1410 c 128,-1,2
 280 1412 280 1412 244.5 1422.5 c 128,-1,3
 209 1433 209 1433 176 1456 c 128,-1,4
 143 1479 143 1479 118.5 1521.5 c 128,-1,5
 94 1564 94 1564 79 1630 c 128,-1,6
 64 1696 64 1696 64 1792 c 1,7,-1
 256 1792 l 1,8,9
 256 1720 256 1720 267 1681 c 128,-1,10
 278 1642 278 1642 296 1624 c 128,-1,11
 314 1606 314 1606 337 1603 c 128,-1,12
 360 1600 360 1600 384 1600 c 256,13,14
 408 1600 408 1600 431 1603 c 128,-1,15
 454 1606 454 1606 472 1624 c 128,-1,16
 490 1642 490 1642 501 1681 c 128,-1,17
 512 1720 512 1720 512 1792 c 1,18,-1
 704 1792 l 1,19,20
 704 1696 704 1696 689 1630 c 128,-1,21
 674 1564 674 1564 649.5 1521.5 c 128,-1,22
 625 1479 625 1479 592 1456 c 128,-1,23
 559 1433 559 1433 523.5 1422.5 c 128,-1,24
 488 1412 488 1412 452 1410 c 128,-1,25
 416 1408 416 1408 384 1408 c 256,0,1
EndSplineSet
EndChar

StartChar: ogonek
Encoding: 731 731 176
Width: 537
Flags: W
LayerCount: 2
Fore
SplineSet
338 9 m 1,0,1
 338 9 338 9 216 -151 c 0,2,3
 146 -242 146 -242 146 -317 c 0,4,5
 146 -340 146 -340 158.5 -354.5 c 128,-1,6
 171 -369 171 -369 191.5 -377 c 128,-1,7
 212 -385 212 -385 238 -388 c 128,-1,8
 264 -391 264 -391 290 -391 c 0,9,10
 325 -391 325 -391 356 -388 c 128,-1,11
 387 -385 387 -385 402 -385 c 1,12,-1
 402 -513 l 1,13,14
 161 -513 161 -513 82 -489 c 0,15,16
 -46 -451 -46 -451 -46 -321 c 0,17,18
 -46 -278 -46 -278 -31 -238 c 128,-1,19
 -16 -198 -16 -198 8 -162.5 c 128,-1,20
 32 -127 32 -127 61 -97 c 128,-1,21
 90 -67 90 -67 118.5 -44.5 c 128,-1,22
 147 -22 147 -22 171.5 -8.5 c 128,-1,23
 196 5 196 5 210 9 c 1,24,-1
 338 9 l 1,0,1
EndSplineSet
EndChar

StartChar: dotaccent
Encoding: 729 729 177
Width: 384
Flags: W
LayerCount: 2
Fore
SplineSet
64 1702 m 1,0,-1
 320 1702 l 1,1,-1
 320 1446 l 1,2,-1
 64 1446 l 1,3,-1
 64 1702 l 1,0,-1
EndSplineSet
EndChar

StartChar: caron
Encoding: 711 711 178
Width: 768
Flags: W
LayerCount: 2
Fore
SplineSet
512 1792 m 1,0,-1
 704 1792 l 1,1,-1
 512 1408 l 1,2,-1
 256 1408 l 1,3,-1
 64 1792 l 1,4,-1
 256 1792 l 1,5,-1
 384 1536 l 1,6,-1
 512 1792 l 1,0,-1
EndSplineSet
EndChar

StartChar: hungarumlaut
Encoding: 733 733 179
Width: 640
Flags: W
LayerCount: 2
Fore
SplineSet
346 1408 m 1,0,-1
 218 1408 l 1,1,-1
 306 1792 l 1,2,-1
 512 1792 l 1,3,-1
 346 1408 l 1,0,-1
640 1408 m 1,4,-1
 512 1408 l 1,5,-1
 640 1792 l 1,6,-1
 896 1792 l 1,7,-1
 640 1408 l 1,4,-1
EndSplineSet
EndChar

StartChar: OE
Encoding: 338 338 180
Width: 1664
Flags: W
LayerCount: 2
Fore
SplineSet
1472 832 m 1,0,-1
 1152 832 l 1,1,-1
 1152 192 l 1,2,-1
 1600 192 l 1,3,-1
 1600 0 l 1,4,-1
 896 0 l 1,5,-1
 896 128 l 1,6,7
 884 105 884 105 864 79.5 c 128,-1,8
 844 54 844 54 813.5 32 c 128,-1,9
 783 10 783 10 740 -4 c 128,-1,10
 697 -18 697 -18 640 -18 c 0,11,12
 540 -18 540 -18 463 4 c 128,-1,13
 386 26 386 26 329.5 65 c 128,-1,14
 273 104 273 104 234 159 c 128,-1,15
 195 214 195 214 171.5 280 c 128,-1,16
 148 346 148 346 138 421 c 128,-1,17
 128 496 128 496 128 576 c 2,18,-1
 128 1216 l 2,19,20
 128 1296 128 1296 138 1371 c 128,-1,21
 148 1446 148 1446 171.5 1512 c 128,-1,22
 195 1578 195 1578 234 1633 c 128,-1,23
 273 1688 273 1688 329.5 1727 c 128,-1,24
 386 1766 386 1766 463 1788 c 128,-1,25
 540 1810 540 1810 640 1810 c 0,26,27
 698 1810 698 1810 740.5 1795.5 c 128,-1,28
 783 1781 783 1781 814 1759 c 128,-1,29
 845 1737 845 1737 864.5 1711.5 c 128,-1,30
 884 1686 884 1686 896 1664 c 1,31,-1
 896 1792 l 1,32,-1
 1600 1792 l 1,33,-1
 1600 1600 l 1,34,-1
 1152 1600 l 1,35,-1
 1152 1024 l 1,36,-1
 1472 1024 l 1,37,-1
 1472 832 l 1,0,-1
384 512 m 2,38,39
 384 440 384 440 397 381 c 128,-1,40
 410 322 410 322 440 280 c 128,-1,41
 470 238 470 238 519 215 c 128,-1,42
 568 192 568 192 640 192 c 256,43,44
 712 192 712 192 761 215 c 128,-1,45
 810 238 810 238 840 280 c 128,-1,46
 870 322 870 322 883 381 c 128,-1,47
 896 440 896 440 896 512 c 2,48,-1
 896 1294 l 1,49,50
 895 1363 895 1363 881 1419.5 c 128,-1,51
 867 1476 867 1476 837 1516 c 128,-1,52
 807 1556 807 1556 758.5 1578 c 128,-1,53
 710 1600 710 1600 640 1600 c 0,54,55
 568 1600 568 1600 519 1577 c 128,-1,56
 470 1554 470 1554 440 1512 c 128,-1,57
 410 1470 410 1470 397 1411 c 128,-1,58
 384 1352 384 1352 384 1280 c 2,59,-1
 384 512 l 2,38,39
EndSplineSet
EndChar

StartChar: oe
Encoding: 339 339 181
Width: 1536
Flags: W
LayerCount: 2
Fore
SplineSet
128 832 m 2,0,1
 128 864 128 864 130 911 c 128,-1,2
 132 958 132 958 142.5 1009.5 c 128,-1,3
 153 1061 153 1061 176 1113 c 128,-1,4
 199 1165 199 1165 241.5 1206 c 128,-1,5
 284 1247 284 1247 350 1272.5 c 128,-1,6
 416 1298 416 1298 512 1298 c 0,7,8
 570 1298 570 1298 612.5 1283.5 c 128,-1,9
 655 1269 655 1269 686 1247 c 128,-1,10
 717 1225 717 1225 736.5 1199.5 c 128,-1,11
 756 1174 756 1174 768 1152 c 1,12,13
 779 1174 779 1174 798.5 1199.5 c 128,-1,14
 818 1225 818 1225 849 1247 c 128,-1,15
 880 1269 880 1269 923 1283.5 c 128,-1,16
 966 1298 966 1298 1025 1298 c 0,17,18
 1121 1298 1121 1298 1192.5 1267.5 c 128,-1,19
 1264 1237 1264 1237 1312 1164.5 c 128,-1,20
 1360 1092 1360 1092 1384 971.5 c 128,-1,21
 1408 851 1408 851 1408 670 c 2,22,-1
 1408 640 l 1,23,-1
 896 640 l 1,24,-1
 896 576 l 2,25,26
 896 504 896 504 898 435 c 128,-1,27
 900 366 900 366 912 312 c 128,-1,28
 924 258 924 258 950 225 c 128,-1,29
 976 192 976 192 1024 192 c 0,30,31
 1073 192 1073 192 1099 214 c 128,-1,32
 1125 236 1125 236 1137 272 c 128,-1,33
 1149 308 1149 308 1150.5 354 c 128,-1,34
 1152 400 1152 400 1152 448 c 1,35,-1
 1408 448 l 1,36,37
 1408 208 1408 208 1312.5 95 c 128,-1,38
 1217 -18 1217 -18 1024 -18 c 0,39,40
 966 -18 966 -18 923.5 -4 c 128,-1,41
 881 10 881 10 850.5 32 c 128,-1,42
 820 54 820 54 800 79.5 c 128,-1,43
 780 105 780 105 768 128 c 1,44,45
 756 105 756 105 736 79.5 c 128,-1,46
 716 54 716 54 685.5 32 c 128,-1,47
 655 10 655 10 612 -4 c 128,-1,48
 569 -18 569 -18 512 -18 c 0,49,50
 416 -18 416 -18 350 7.5 c 128,-1,51
 284 33 284 33 241.5 74 c 128,-1,52
 199 115 199 115 176 167 c 128,-1,53
 153 219 153 219 142.5 270.5 c 128,-1,54
 132 322 132 322 130 369 c 128,-1,55
 128 416 128 416 128 448 c 2,56,-1
 128 832 l 2,0,1
384 448 m 2,57,58
 384 400 384 400 386 354 c 128,-1,59
 388 308 388 308 400 272 c 128,-1,60
 412 236 412 236 438 214 c 128,-1,61
 464 192 464 192 512 192 c 256,62,63
 560 192 560 192 586 214 c 128,-1,64
 612 236 612 236 624 272 c 128,-1,65
 636 308 636 308 638 354 c 128,-1,66
 640 400 640 400 640 448 c 2,67,-1
 640 832 l 2,68,69
 640 880 640 880 638 926 c 128,-1,70
 636 972 636 972 624 1008 c 128,-1,71
 612 1044 612 1044 586 1066 c 128,-1,72
 560 1088 560 1088 512 1088 c 256,73,74
 464 1088 464 1088 438 1066 c 128,-1,75
 412 1044 412 1044 400 1008 c 128,-1,76
 388 972 388 972 386 926 c 128,-1,77
 384 880 384 880 384 832 c 2,78,-1
 384 448 l 2,57,58
1025 1088 m 0,79,80
 977 1088 977 1088 951 1056 c 128,-1,81
 925 1024 925 1024 912.5 976 c 128,-1,82
 900 928 900 928 898 872 c 128,-1,83
 896 816 896 816 896 768 c 1,84,-1
 1152 768 l 1,85,86
 1152 816 1152 816 1150.5 872 c 128,-1,87
 1149 928 1149 928 1137.5 976 c 128,-1,88
 1126 1024 1126 1024 1100 1056 c 128,-1,89
 1074 1088 1074 1088 1025 1088 c 0,79,80
EndSplineSet
EndChar

StartChar: florin
Encoding: 402 402 183
Width: 704
Flags: W
LayerCount: 2
Fore
SplineSet
64 1280 m 1,0,-1
 192 1280 l 1,1,-1
 192 1344 l 2,2,3
 192 1392 192 1392 193.5 1439 c 128,-1,4
 195 1486 195 1486 203 1529 c 128,-1,5
 211 1572 211 1572 228.5 1608 c 128,-1,6
 246 1644 246 1644 278 1671 c 128,-1,7
 310 1698 310 1698 359.5 1713 c 128,-1,8
 409 1728 409 1728 482 1728 c 0,9,10
 518 1728 518 1728 552 1725.5 c 128,-1,11
 586 1723 586 1723 640 1716 c 1,12,-1
 640 1526 l 1,13,14
 616 1528 616 1528 592.5 1532 c 128,-1,15
 569 1536 569 1536 554 1536 c 0,16,17
 518 1536 518 1536 496.5 1523 c 128,-1,18
 475 1510 475 1510 464.5 1488 c 128,-1,19
 454 1466 454 1466 451 1437 c 128,-1,20
 448 1408 448 1408 448 1376 c 2,21,-1
 448 1280 l 1,22,-1
 576 1280 l 1,23,-1
 576 1088 l 1,24,-1
 448 1088 l 1,25,-1
 448 128 l 2,26,27
 448 80 448 80 446.5 33 c 128,-1,28
 445 -14 445 -14 437 -57 c 128,-1,29
 429 -100 429 -100 411.5 -136 c 128,-1,30
 394 -172 394 -172 362 -199 c 128,-1,31
 330 -226 330 -226 280 -241 c 128,-1,32
 230 -256 230 -256 158 -256 c 0,33,34
 122 -256 122 -256 88 -253.5 c 128,-1,35
 54 -251 54 -251 0 -244 c 1,36,-1
 0 -54 l 1,37,38
 23 -58 23 -58 47.5 -61 c 128,-1,39
 72 -64 72 -64 86 -64 c 0,40,41
 122 -64 122 -64 143.5 -51 c 128,-1,42
 165 -38 165 -38 175.5 -16 c 128,-1,43
 186 6 186 6 189 35 c 128,-1,44
 192 64 192 64 192 96 c 2,45,-1
 192 1088 l 1,46,-1
 64 1088 l 1,47,-1
 64 1280 l 1,0,-1
EndSplineSet
EndChar

StartChar: quoteleft
Encoding: 8216 8216 184
Width: 512
Flags: W
LayerCount: 2
Fore
SplineSet
384 1280 m 1,0,-1
 128 1280 l 1,1,2
 128 1424 128 1424 131 1522 c 128,-1,3
 134 1620 134 1620 152 1680 c 128,-1,4
 170 1740 170 1740 209 1766 c 128,-1,5
 248 1792 248 1792 320 1792 c 1,6,-1
 384 1664 l 1,7,8
 336 1664 336 1664 310 1650.5 c 128,-1,9
 284 1637 284 1637 272 1617 c 128,-1,10
 260 1597 260 1597 258 1575 c 128,-1,11
 256 1553 256 1553 256 1536 c 1,12,-1
 384 1536 l 1,13,-1
 384 1280 l 1,0,-1
EndSplineSet
EndChar

StartChar: quoteright
Encoding: 8217 8217 185
Width: 512
Flags: W
LayerCount: 2
Fore
SplineSet
128 1792 m 1,0,-1
 384 1792 l 1,1,2
 384 1648 384 1648 381 1550 c 128,-1,3
 378 1452 378 1452 360 1392 c 128,-1,4
 342 1332 342 1332 303 1306 c 128,-1,5
 264 1280 264 1280 192 1280 c 1,6,-1
 128 1408 l 1,7,8
 176 1408 176 1408 202 1421.5 c 128,-1,9
 228 1435 228 1435 240 1455 c 128,-1,10
 252 1475 252 1475 254 1497 c 128,-1,11
 256 1519 256 1519 256 1536 c 1,12,-1
 128 1536 l 1,13,-1
 128 1792 l 1,0,-1
EndSplineSet
EndChar

StartChar: quotesinglbase
Encoding: 8218 8218 186
Width: 384
Flags: W
LayerCount: 2
Fore
SplineSet
62 63 m 1,0,-1
 318 63 l 1,1,-1
 254 -321 l 1,2,-1
 126 -321 l 1,3,-1
 62 63 l 1,0,-1
EndSplineSet
EndChar

StartChar: quotedblleft
Encoding: 8220 8220 187
Width: 896
Flags: W
LayerCount: 2
Fore
SplineSet
384 1280 m 1,0,-1
 128 1280 l 1,1,2
 128 1424 128 1424 131 1522 c 128,-1,3
 134 1620 134 1620 152 1680 c 128,-1,4
 170 1740 170 1740 209 1766 c 128,-1,5
 248 1792 248 1792 320 1792 c 1,6,-1
 384 1664 l 1,7,8
 336 1664 336 1664 310 1650.5 c 128,-1,9
 284 1637 284 1637 272 1617 c 128,-1,10
 260 1597 260 1597 258 1575 c 128,-1,11
 256 1553 256 1553 256 1536 c 1,12,-1
 384 1536 l 1,13,-1
 384 1280 l 1,0,-1
768 1280 m 1,14,-1
 512 1280 l 1,15,16
 512 1424 512 1424 515 1522 c 128,-1,17
 518 1620 518 1620 536 1680 c 128,-1,18
 554 1740 554 1740 593 1766 c 128,-1,19
 632 1792 632 1792 704 1792 c 1,20,-1
 768 1664 l 1,21,22
 720 1664 720 1664 694 1650.5 c 128,-1,23
 668 1637 668 1637 656 1617 c 128,-1,24
 644 1597 644 1597 642 1575 c 128,-1,25
 640 1553 640 1553 640 1536 c 1,26,-1
 768 1536 l 1,27,-1
 768 1280 l 1,14,-1
EndSplineSet
EndChar

StartChar: quotedblright
Encoding: 8221 8221 188
Width: 896
Flags: W
LayerCount: 2
Fore
SplineSet
128 1792 m 1,0,-1
 384 1792 l 1,1,2
 384 1648 384 1648 381 1550 c 128,-1,3
 378 1452 378 1452 360 1392 c 128,-1,4
 342 1332 342 1332 303 1306 c 128,-1,5
 264 1280 264 1280 192 1280 c 1,6,-1
 128 1408 l 1,7,8
 176 1408 176 1408 202 1421.5 c 128,-1,9
 228 1435 228 1435 240 1455 c 128,-1,10
 252 1475 252 1475 254 1497 c 128,-1,11
 256 1519 256 1519 256 1536 c 1,12,-1
 128 1536 l 1,13,-1
 128 1792 l 1,0,-1
512 1792 m 1,14,-1
 768 1792 l 1,15,16
 768 1648 768 1648 765 1550 c 128,-1,17
 762 1452 762 1452 744 1392 c 128,-1,18
 726 1332 726 1332 687 1306 c 128,-1,19
 648 1280 648 1280 576 1280 c 1,20,-1
 512 1408 l 1,21,22
 560 1408 560 1408 586 1421.5 c 128,-1,23
 612 1435 612 1435 624 1455 c 128,-1,24
 636 1475 636 1475 638 1497 c 128,-1,25
 640 1519 640 1519 640 1536 c 1,26,-1
 512 1536 l 1,27,-1
 512 1792 l 1,14,-1
EndSplineSet
EndChar

StartChar: quotedblbase
Encoding: 8222 8222 189
Width: 704
Flags: W
LayerCount: 2
Fore
SplineSet
62 64 m 1,0,-1
 318 64 l 1,1,-1
 254 -320 l 1,2,-1
 126 -320 l 1,3,-1
 62 64 l 1,0,-1
385 64 m 1,4,-1
 641 64 l 1,5,-1
 577 -320 l 1,6,-1
 449 -320 l 1,7,-1
 385 64 l 1,4,-1
EndSplineSet
EndChar

StartChar: daggerdbl
Encoding: 8225 8225 190
Width: 850
Flags: W
LayerCount: 2
Fore
SplineSet
550 500 m 1,0,-1
 550 0 l 1,1,-1
 300 0 l 1,2,-1
 300 500 l 1,3,-1
 100 500 l 1,4,-1
 100 700 l 1,5,-1
 300 700 l 1,6,-1
 300 1050 l 1,7,-1
 100 1050 l 1,8,-1
 100 1250 l 1,9,-1
 300 1250 l 1,10,-1
 300 1536 l 1,11,-1
 550 1536 l 1,12,-1
 550 1250 l 1,13,-1
 751 1250 l 1,14,-1
 751 1050 l 1,15,-1
 550 1050 l 1,16,-1
 550 700 l 1,17,-1
 751 700 l 1,18,-1
 751 500 l 1,19,-1
 550 500 l 1,0,-1
EndSplineSet
EndChar

StartChar: perthousand
Encoding: 8240 8240 191
Width: 2834
Flags: W
LayerCount: 2
Fore
SplineSet
78 1032 m 0,0,1
 78 1143 78 1143 98 1222 c 128,-1,2
 118 1301 118 1301 150 1355 c 128,-1,3
 182 1409 182 1409 222.5 1441 c 128,-1,4
 263 1473 263 1473 303.5 1489.5 c 128,-1,5
 344 1506 344 1506 381 1511 c 128,-1,6
 418 1516 418 1516 444 1516 c 256,7,8
 470 1516 470 1516 507 1511 c 128,-1,9
 544 1506 544 1506 585 1489.5 c 128,-1,10
 626 1473 626 1473 666.5 1441 c 128,-1,11
 707 1409 707 1409 739 1355 c 128,-1,12
 771 1301 771 1301 791 1222 c 128,-1,13
 811 1143 811 1143 811 1032 c 0,14,15
 811 899 811 899 780 806 c 128,-1,16
 749 713 749 713 697.5 654 c 128,-1,17
 646 595 646 595 580 568 c 128,-1,18
 514 541 514 541 444 541 c 256,19,20
 374 541 374 541 308 568 c 128,-1,21
 242 595 242 595 191 654 c 128,-1,22
 140 713 140 713 109 806 c 128,-1,23
 78 899 78 899 78 1032 c 0,0,1
311 1032 m 0,24,25
 311 1006 311 1006 313 973.5 c 128,-1,26
 315 941 315 941 320.5 908 c 128,-1,27
 326 875 326 875 335.5 844 c 128,-1,28
 345 813 345 813 360 788.5 c 128,-1,29
 375 764 375 764 395.5 749.5 c 128,-1,30
 416 735 416 735 444 735 c 0,31,32
 486 735 486 735 512.5 766 c 128,-1,33
 539 797 539 797 553.5 843 c 128,-1,34
 568 889 568 889 573 940 c 128,-1,35
 578 991 578 991 578 1032 c 0,36,37
 578 1072 578 1072 574 1122 c 128,-1,38
 570 1172 570 1172 556 1216.5 c 128,-1,39
 542 1261 542 1261 515.5 1291 c 128,-1,40
 489 1321 489 1321 444 1321 c 0,41,42
 400 1321 400 1321 373.5 1291 c 128,-1,43
 347 1261 347 1261 333 1216.5 c 128,-1,44
 319 1172 319 1172 315 1122 c 128,-1,45
 311 1072 311 1072 311 1032 c 0,24,25
2023 492 m 0,46,47
 2023 603 2023 603 2043 682 c 128,-1,48
 2063 761 2063 761 2095.5 814.5 c 128,-1,49
 2128 868 2128 868 2168.5 900 c 128,-1,50
 2209 932 2209 932 2249.5 948.5 c 128,-1,51
 2290 965 2290 965 2327 970 c 128,-1,52
 2364 975 2364 975 2390 975 c 0,53,54
 2415 975 2415 975 2452.5 970 c 128,-1,55
 2490 965 2490 965 2530.5 948.5 c 128,-1,56
 2571 932 2571 932 2611.5 900 c 128,-1,57
 2652 868 2652 868 2684.5 814.5 c 128,-1,58
 2717 761 2717 761 2737 682 c 128,-1,59
 2757 603 2757 603 2757 492 c 0,60,61
 2757 359 2757 359 2726 265.5 c 128,-1,62
 2695 172 2695 172 2643.5 113 c 128,-1,63
 2592 54 2592 54 2526 27 c 128,-1,64
 2460 0 2460 0 2390 0 c 256,65,66
 2320 0 2320 0 2254 27 c 128,-1,67
 2188 54 2188 54 2136.5 113 c 128,-1,68
 2085 172 2085 172 2054 265.5 c 128,-1,69
 2023 359 2023 359 2023 492 c 0,46,47
2257 492 m 256,70,71
 2257 452 2257 452 2262 400.5 c 128,-1,72
 2267 349 2267 349 2281 303.5 c 128,-1,73
 2295 258 2295 258 2321.5 226.5 c 128,-1,74
 2348 195 2348 195 2390 195 c 256,75,76
 2432 195 2432 195 2458.5 226 c 128,-1,77
 2485 257 2485 257 2499 302.5 c 128,-1,78
 2513 348 2513 348 2518 399.5 c 128,-1,79
 2523 451 2523 451 2523 492 c 0,80,81
 2523 532 2523 532 2519 582 c 128,-1,82
 2515 632 2515 632 2501 676 c 128,-1,83
 2487 720 2487 720 2461 750 c 128,-1,84
 2435 780 2435 780 2390 780 c 256,85,86
 2345 780 2345 780 2319 750 c 128,-1,87
 2293 720 2293 720 2279 676 c 128,-1,88
 2265 632 2265 632 2261 582 c 128,-1,89
 2257 532 2257 532 2257 492 c 256,70,71
1188 492 m 0,90,91
 1188 603 1188 603 1208 682 c 128,-1,92
 1228 761 1228 761 1260 814.5 c 128,-1,93
 1292 868 1292 868 1332.5 900 c 128,-1,94
 1373 932 1373 932 1413.5 948.5 c 128,-1,95
 1454 965 1454 965 1491 970 c 128,-1,96
 1528 975 1528 975 1554 975 c 256,97,98
 1580 975 1580 975 1617 970 c 128,-1,99
 1654 965 1654 965 1695 948.5 c 128,-1,100
 1736 932 1736 932 1776.5 900 c 128,-1,101
 1817 868 1817 868 1849 814.5 c 128,-1,102
 1881 761 1881 761 1901 682 c 128,-1,103
 1921 603 1921 603 1921 492 c 0,104,105
 1921 359 1921 359 1890 265.5 c 128,-1,106
 1859 172 1859 172 1807.5 113 c 128,-1,107
 1756 54 1756 54 1690 27 c 128,-1,108
 1624 0 1624 0 1554 0 c 256,109,110
 1484 0 1484 0 1418 27 c 128,-1,111
 1352 54 1352 54 1301 113 c 128,-1,112
 1250 172 1250 172 1219 265.5 c 128,-1,113
 1188 359 1188 359 1188 492 c 0,90,91
1421 492 m 256,114,115
 1421 452 1421 452 1426 400.5 c 128,-1,116
 1431 349 1431 349 1445.5 303.5 c 128,-1,117
 1460 258 1460 258 1486 226.5 c 128,-1,118
 1512 195 1512 195 1554 195 c 256,119,120
 1596 195 1596 195 1622.5 226 c 128,-1,121
 1649 257 1649 257 1663.5 302.5 c 128,-1,122
 1678 348 1678 348 1683 399.5 c 128,-1,123
 1688 451 1688 451 1688 492 c 0,124,125
 1688 532 1688 532 1684 582 c 128,-1,126
 1680 632 1680 632 1666 676 c 128,-1,127
 1652 720 1652 720 1625.5 750 c 128,-1,128
 1599 780 1599 780 1554 780 c 0,129,130
 1510 780 1510 780 1483.5 750 c 128,-1,131
 1457 720 1457 720 1443 676 c 128,-1,132
 1429 632 1429 632 1425 582 c 128,-1,133
 1421 532 1421 532 1421 492 c 256,114,115
1034 1518 m 1,134,-1
 1253 1518 l 1,135,-1
 971 0 l 1,136,-1
 751 0 l 1,137,-1
 1034 1518 l 1,134,-1
EndSplineSet
EndChar

StartChar: fraction
Encoding: 8260 8260 192
Width: 537
Flags: W
LayerCount: 2
Fore
SplineSet
301 1901 m 1,0,-1
 520 1901 l 1,1,-1
 238 383 l 1,2,-1
 18 383 l 1,3,-1
 301 1901 l 1,0,-1
EndSplineSet
EndChar

StartChar: Euro
Encoding: 8364 8364 193
Width: 971
Flags: W
LayerCount: 2
Fore
SplineSet
0 993 m 1,0,-1
 70 993 l 1,1,2
 74 1117 74 1117 96 1217 c 128,-1,3
 118 1317 118 1317 166 1388 c 128,-1,4
 214 1459 214 1459 292 1497.5 c 128,-1,5
 370 1536 370 1536 487 1536 c 0,6,7
 610 1536 610 1536 690 1494.5 c 128,-1,8
 770 1453 770 1453 817 1382.5 c 128,-1,9
 864 1312 864 1312 883 1218 c 128,-1,10
 902 1124 902 1124 903 1018 c 1,11,-1
 653 1018 l 1,12,13
 653 1115 653 1115 635.5 1172.5 c 128,-1,14
 618 1230 618 1230 593 1260.5 c 128,-1,15
 568 1291 568 1291 540.5 1300 c 128,-1,16
 513 1309 513 1309 492 1309 c 0,17,18
 437 1309 437 1309 404 1290 c 128,-1,19
 371 1271 371 1271 353 1232 c 128,-1,20
 335 1193 335 1193 329 1133.5 c 128,-1,21
 323 1074 323 1074 322 993 c 1,22,-1
 518 993 l 1,23,-1
 518 827 l 1,24,-1
 322 827 l 1,25,-1
 322 674 l 1,26,-1
 518 674 l 1,27,-1
 518 508 l 1,28,-1
 324 508 l 1,29,30
 328 418 328 418 339.5 359.5 c 128,-1,31
 351 301 351 301 372 266.5 c 128,-1,32
 393 232 393 232 424 218.5 c 128,-1,33
 455 205 455 205 499 205 c 0,34,35
 510 205 510 205 526 206.5 c 128,-1,36
 542 208 542 208 560 217.5 c 128,-1,37
 578 227 578 227 596.5 247.5 c 128,-1,38
 615 268 615 268 629.5 305.5 c 128,-1,39
 644 343 644 343 653 400 c 128,-1,40
 662 457 662 457 662 541 c 1,41,-1
 909 541 l 1,42,43
 909 472 909 472 902.5 403.5 c 128,-1,44
 896 335 896 335 879.5 271.5 c 128,-1,45
 863 208 863 208 833.5 153.5 c 128,-1,46
 804 99 804 99 758 59 c 128,-1,47
 712 19 712 19 647 -4 c 128,-1,48
 582 -27 582 -27 494 -27 c 0,49,50
 405 -27 405 -27 339 -5.5 c 128,-1,51
 273 16 273 16 226.5 53 c 128,-1,52
 180 90 180 90 150 141.5 c 128,-1,53
 120 193 120 193 102.5 252 c 128,-1,54
 85 311 85 311 77.5 376.5 c 128,-1,55
 70 442 70 442 68 508 c 1,56,-1
 0 508 l 1,57,-1
 0 674 l 1,58,-1
 68 674 l 1,59,-1
 68 827 l 1,60,-1
 0 827 l 1,61,-1
 0 993 l 1,0,-1
EndSplineSet
EndChar

StartChar: trademark
Encoding: 8482 8482 194
Width: 2204
Flags: W
LayerCount: 2
Fore
SplineSet
649 1518 m 1,0,-1
 649 1364 l 1,1,-1
 485 1364 l 1,2,-1
 485 686 l 1,3,-1
 315 686 l 1,4,-1
 315 1364 l 1,5,-1
 152 1364 l 1,6,-1
 152 1518 l 1,7,-1
 649 1518 l 1,0,-1
1139 686 m 1,8,-1
 1036 686 l 1,9,-1
 899 1241 l 1,10,-1
 899 686 l 1,11,-1
 741 686 l 1,12,-1
 741 1518 l 1,13,-1
 983 1518 l 1,14,-1
 1087 1065 l 1,15,-1
 1194 1518 l 1,16,-1
 1436 1518 l 1,17,-1
 1436 686 l 1,18,-1
 1276 686 l 1,19,-1
 1276 1241 l 1,20,-1
 1139 686 l 1,8,-1
EndSplineSet
EndChar

StartChar: Delta
Encoding: 8710 8710 195
Width: 1024
Flags: W
LayerCount: 2
Fore
SplineSet
664 192 m 1,0,-1
 512 896 l 1,1,-1
 361 192 l 1,2,-1
 664 192 l 1,0,-1
64 0 m 1,3,-1
 361 1280 l 1,4,-1
 664 1280 l 1,5,-1
 962 0 l 1,6,-1
 64 0 l 1,3,-1
EndSplineSet
EndChar

StartChar: product
Encoding: 8719 8719 196
Width: 1216
Flags: W
LayerCount: 2
Fore
SplineSet
1088 1792 m 1,0,-1
 1088 0 l 1,1,-1
 832 0 l 1,2,-1
 832 1600 l 1,3,-1
 384 1600 l 1,4,-1
 384 0 l 1,5,-1
 128 0 l 1,6,-1
 128 1792 l 1,7,-1
 1088 1792 l 1,0,-1
EndSplineSet
EndChar

StartChar: integral
Encoding: 8747 8747 197
Width: 704
Flags: W
LayerCount: 2
Fore
SplineSet
448 128 m 2,0,1
 448 80 448 80 446.5 33 c 128,-1,2
 445 -14 445 -14 437 -57 c 128,-1,3
 429 -100 429 -100 411.5 -136 c 128,-1,4
 394 -172 394 -172 362 -199 c 128,-1,5
 330 -226 330 -226 280 -241 c 128,-1,6
 230 -256 230 -256 158 -256 c 0,7,8
 122 -256 122 -256 88 -253.5 c 128,-1,9
 54 -251 54 -251 0 -244 c 1,10,-1
 0 -54 l 1,11,12
 23 -58 23 -58 47.5 -61 c 128,-1,13
 72 -64 72 -64 86 -64 c 0,14,15
 122 -64 122 -64 143.5 -51 c 128,-1,16
 165 -38 165 -38 175.5 -16 c 128,-1,17
 186 6 186 6 189 35 c 128,-1,18
 192 64 192 64 192 96 c 2,19,-1
 192 1344 l 2,20,21
 192 1392 192 1392 193.5 1439 c 128,-1,22
 195 1486 195 1486 203 1529 c 128,-1,23
 211 1572 211 1572 228.5 1608 c 128,-1,24
 246 1644 246 1644 278 1671 c 128,-1,25
 310 1698 310 1698 359.5 1713 c 128,-1,26
 409 1728 409 1728 482 1728 c 0,27,28
 518 1728 518 1728 552 1725.5 c 128,-1,29
 586 1723 586 1723 640 1716 c 1,30,-1
 640 1526 l 1,31,32
 616 1528 616 1528 592.5 1532 c 128,-1,33
 569 1536 569 1536 554 1536 c 0,34,35
 518 1536 518 1536 496.5 1523 c 128,-1,36
 475 1510 475 1510 464.5 1488 c 128,-1,37
 454 1466 454 1466 451 1437 c 128,-1,38
 448 1408 448 1408 448 1376 c 2,39,-1
 448 128 l 2,0,1
EndSplineSet
EndChar

StartChar: lozenge
Encoding: 9674 9674 198
Width: 896
Flags: W
LayerCount: 2
Fore
SplineSet
320 1536 m 1,0,-1
 578 1536 l 1,1,-1
 830 768 l 1,2,-1
 578 0 l 1,3,-1
 320 0 l 1,4,-1
 66 767 l 1,5,-1
 320 1536 l 1,0,-1
448 256 m 1,6,-1
 574 767 l 1,7,-1
 448 1280 l 1,8,-1
 322 768 l 1,9,-1
 448 256 l 1,6,-1
EndSplineSet
EndChar

StartChar: macron
Encoding: 175 175 203
Width: 640
Flags: W
LayerCount: 2
Fore
SplineSet
123 1559 m 1,0,-1
 557 1559 l 1,1,-1
 557 1407 l 1,2,-1
 123 1407 l 1,3,-1
 123 1559 l 1,0,-1
EndSplineSet
EndChar

StartChar: bullet
Encoding: 8226 8226 204
Width: 960
Flags: W
LayerCount: 2
Fore
SplineSet
486 1187 m 256,0,1
 552 1187 552 1187 602 1161.5 c 128,-1,2
 652 1136 652 1136 685 1094.5 c 128,-1,3
 718 1053 718 1053 734.5 999.5 c 128,-1,4
 751 946 751 946 751 891 c 0,5,6
 751 835 751 835 734.5 782 c 128,-1,7
 718 729 718 729 685 687.5 c 128,-1,8
 652 646 652 646 602 620.5 c 128,-1,9
 552 595 552 595 486 595 c 256,10,11
 420 595 420 595 370 620.5 c 128,-1,12
 320 646 320 646 287 687.5 c 128,-1,13
 254 729 254 729 237.5 782 c 128,-1,14
 221 835 221 835 221 891 c 0,15,16
 221 946 221 946 237.5 999.5 c 128,-1,17
 254 1053 254 1053 287 1094.5 c 128,-1,18
 320 1136 320 1136 370 1161.5 c 128,-1,19
 420 1187 420 1187 486 1187 c 256,0,1
EndSplineSet
EndChar

StartChar: emdash
Encoding: 8212 8212 205
Width: 384
Flags: W
LayerCount: 2
Fore
SplineSet
0 640 m 1,0,-1
 384 640 l 1,1,-1
 384 448 l 1,2,-1
 0 448 l 1,3,-1
 0 640 l 1,0,-1
EndSplineSet
EndChar

StartChar: endash
Encoding: 8211 8211 206
Width: 384
Flags: W
LayerCount: 2
Fore
SplineSet
0 640 m 1,0,-1
 384 640 l 1,1,-1
 384 448 l 1,2,-1
 0 448 l 1,3,-1
 0 640 l 1,0,-1
EndSplineSet
EndChar

StartChar: currency
Encoding: 164 164 208
Width: 1024
Flags: W
LayerCount: 2
Fore
SplineSet
512 1280 m 256,0,1
 585 1280 585 1280 641.5 1263 c 128,-1,2
 698 1246 698 1246 743 1217 c 1,3,-1
 829 1303 l 1,4,-1
 919 1213 l 1,5,-1
 832 1126 l 1,6,7
 865 1075 865 1075 880.5 1016.5 c 128,-1,8
 896 958 896 958 896 897 c 0,9,10
 896 834 896 834 880.5 775 c 128,-1,11
 865 716 865 716 832 665 c 1,12,-1
 919 579 l 1,13,-1
 829 489 l 1,14,-1
 743 575 l 1,15,16
 698 546 698 546 641.5 529 c 128,-1,17
 585 512 585 512 512 512 c 256,18,19
 439 512 439 512 382.5 529 c 128,-1,20
 326 546 326 546 281 575 c 1,21,-1
 195 489 l 1,22,-1
 105 579 l 1,23,-1
 191 665 l 1,24,25
 158 716 158 716 143 775 c 128,-1,26
 128 834 128 834 128 897 c 0,27,28
 128 958 128 958 143 1017 c 128,-1,29
 158 1076 158 1076 191 1127 c 1,30,-1
 105 1213 l 1,31,-1
 195 1303 l 1,32,-1
 281 1217 l 1,33,34
 326 1246 326 1246 382.5 1263 c 128,-1,35
 439 1280 439 1280 512 1280 c 256,0,1
512 682 m 256,36,37
 562 682 562 682 598.5 700.5 c 128,-1,38
 635 719 635 719 658.5 749 c 128,-1,39
 682 779 682 779 693 817.5 c 128,-1,40
 704 856 704 856 704 896 c 256,41,42
 704 936 704 936 693 974.5 c 128,-1,43
 682 1013 682 1013 658.5 1043 c 128,-1,44
 635 1073 635 1073 599 1091.5 c 128,-1,45
 563 1110 563 1110 512 1110 c 256,46,47
 461 1110 461 1110 425 1092 c 128,-1,48
 389 1074 389 1074 365.5 1044 c 128,-1,49
 342 1014 342 1014 331 975.5 c 128,-1,50
 320 937 320 937 320 897 c 256,51,52
 320 857 320 857 331 818.5 c 128,-1,53
 342 780 342 780 365.5 749.5 c 128,-1,54
 389 719 389 719 425.5 700.5 c 128,-1,55
 462 682 462 682 512 682 c 256,36,37
EndSplineSet
EndChar

StartChar: brokenbar
Encoding: 166 166 209
Width: 395
Flags: W
LayerCount: 2
Fore
SplineSet
94 614 m 1,0,-1
 297 614 l 1,1,-1
 297 -14 l 1,2,-1
 94 -14 l 1,3,-1
 94 614 l 1,0,-1
94 1518 m 1,4,-1
 297 1518 l 1,5,-1
 297 889 l 1,6,-1
 94 889 l 1,7,-1
 94 1518 l 1,4,-1
EndSplineSet
EndChar

StartChar: uni00AD
Encoding: 173 173 210
Width: 768
Flags: W
LayerCount: 2
Fore
SplineSet
128 640 m 1,0,-1
 640 640 l 1,1,-1
 640 448 l 1,2,-1
 128 448 l 1,3,-1
 128 640 l 1,0,-1
EndSplineSet
EndChar

StartChar: twosuperior
Encoding: 178 178 211
Width: 640
Flags: W
LayerCount: 2
Fore
SplineSet
64 1216 m 1,0,1
 64 1264 64 1264 77 1310 c 128,-1,2
 90 1356 90 1356 120 1392 c 128,-1,3
 150 1428 150 1428 199 1450 c 128,-1,4
 248 1472 248 1472 320 1472 c 256,5,6
 392 1472 392 1472 441 1450 c 128,-1,7
 490 1428 490 1428 520 1392 c 128,-1,8
 550 1356 550 1356 563 1310 c 128,-1,9
 576 1264 576 1264 576 1216 c 256,10,11
 576 1168 576 1168 553 1118 c 128,-1,12
 530 1068 530 1068 488 1008 c 128,-1,13
 446 948 446 948 387 874 c 128,-1,14
 328 800 328 800 256 704 c 1,15,-1
 576 704 l 1,16,-1
 576 576 l 1,17,-1
 64 576 l 1,18,-1
 64 704 l 1,19,-1
 256 960 l 2,20,21
 292 1008 292 1008 316.5 1045 c 128,-1,22
 341 1082 341 1082 356 1112 c 128,-1,23
 371 1142 371 1142 377.5 1167 c 128,-1,24
 384 1192 384 1192 384 1216 c 256,25,26
 384 1240 384 1240 383 1263 c 128,-1,27
 382 1286 382 1286 376 1304 c 128,-1,28
 370 1322 370 1322 357 1333 c 128,-1,29
 344 1344 344 1344 320 1344 c 256,30,31
 296 1344 296 1344 283 1333 c 128,-1,32
 270 1322 270 1322 264 1304 c 128,-1,33
 258 1286 258 1286 257 1263 c 128,-1,34
 256 1240 256 1240 256 1216 c 1,35,-1
 64 1216 l 1,0,1
EndSplineSet
EndChar

StartChar: threesuperior
Encoding: 179 179 212
Width: 768
Flags: W
LayerCount: 2
Fore
SplineSet
384 640 m 256,0,1
 312 640 312 640 263 662 c 128,-1,2
 214 684 214 684 184 720 c 128,-1,3
 154 756 154 756 141 802 c 128,-1,4
 128 848 128 848 128 896 c 1,5,-1
 320 896 l 1,6,7
 320 872 320 872 321 849 c 128,-1,8
 322 826 322 826 328 808 c 128,-1,9
 334 790 334 790 347 779 c 128,-1,10
 360 768 360 768 384 768 c 256,11,12
 408 768 408 768 421 779 c 128,-1,13
 434 790 434 790 440 808 c 128,-1,14
 446 826 446 826 447 849 c 128,-1,15
 448 872 448 872 448 896 c 256,16,17
 448 920 448 920 446 943 c 128,-1,18
 444 966 444 966 432 984 c 128,-1,19
 420 1002 420 1002 394 1013 c 128,-1,20
 368 1024 368 1024 320 1024 c 1,21,-1
 320 1152 l 1,22,23
 368 1152 368 1152 394 1163 c 128,-1,24
 420 1174 420 1174 432 1192 c 128,-1,25
 444 1210 444 1210 446 1233 c 128,-1,26
 448 1256 448 1256 448 1280 c 256,27,28
 448 1304 448 1304 447 1327 c 128,-1,29
 446 1350 446 1350 440 1368 c 128,-1,30
 434 1386 434 1386 421 1397 c 128,-1,31
 408 1408 408 1408 384 1408 c 256,32,33
 360 1408 360 1408 347 1397 c 128,-1,34
 334 1386 334 1386 328 1368 c 128,-1,35
 322 1350 322 1350 321 1327 c 128,-1,36
 320 1304 320 1304 320 1280 c 1,37,-1
 128 1280 l 1,38,39
 128 1328 128 1328 141 1374 c 128,-1,40
 154 1420 154 1420 184 1456 c 128,-1,41
 214 1492 214 1492 263 1514 c 128,-1,42
 312 1536 312 1536 384 1536 c 256,43,44
 456 1536 456 1536 505 1514 c 128,-1,45
 554 1492 554 1492 584 1456 c 128,-1,46
 614 1420 614 1420 627 1374 c 128,-1,47
 640 1328 640 1328 640 1280 c 0,48,49
 640 1223 640 1223 621 1186 c 128,-1,50
 602 1149 602 1149 573 1128 c 128,-1,51
 544 1107 544 1107 510.5 1098 c 128,-1,52
 477 1089 477 1089 448 1088 c 1,53,54
 477 1086 477 1086 510.5 1077.5 c 128,-1,55
 544 1069 544 1069 573 1048 c 128,-1,56
 602 1027 602 1027 621 990 c 128,-1,57
 640 953 640 953 640 896 c 0,58,59
 640 848 640 848 627 802 c 128,-1,60
 614 756 614 756 584 720 c 128,-1,61
 554 684 554 684 505 662 c 128,-1,62
 456 640 456 640 384 640 c 256,0,1
EndSplineSet
EndChar

StartChar: onesuperior
Encoding: 185 185 213
Width: 512
Flags: W
LayerCount: 2
Fore
SplineSet
64 1344 m 1,0,1
 112 1368 112 1368 150 1391 c 128,-1,2
 188 1414 188 1414 218.5 1437.5 c 128,-1,3
 249 1461 249 1461 274 1485.5 c 128,-1,4
 299 1510 299 1510 320 1536 c 1,5,-1
 384 1536 l 1,6,-1
 384 640 l 1,7,-1
 192 640 l 1,8,-1
 192 1216 l 1,9,-1
 64 1216 l 1,10,-1
 64 1344 l 1,0,1
EndSplineSet
EndChar

StartChar: foursuperior
Encoding: 8308 8308 215
Width: 768
Flags: W
LayerCount: 2
Fore
SplineSet
384 832 m 1,0,-1
 64 832 l 1,1,-1
 64 960 l 1,2,-1
 404 1536 l 1,3,-1
 576 1536 l 1,4,-1
 576 960 l 1,5,-1
 704 960 l 1,6,-1
 704 832 l 1,7,-1
 576 832 l 1,8,-1
 576 576 l 1,9,-1
 384 576 l 1,10,-1
 384 832 l 1,0,-1
384 960 m 1,11,-1
 384 1216 l 1,12,-1
 256 960 l 1,13,-1
 384 960 l 1,11,-1
EndSplineSet
EndChar

StartChar: Eth
Encoding: 208 208 218
Width: 1152
Flags: W
LayerCount: 2
Fore
SplineSet
128 0 m 1,0,-1
 128 832 l 1,1,-1
 64 832 l 1,2,-1
 64 1024 l 1,3,-1
 128 1024 l 1,4,-1
 128 1792 l 1,5,-1
 512 1792 l 2,6,7
 656 1792 656 1792 754 1766 c 128,-1,8
 852 1740 852 1740 912 1680 c 128,-1,9
 972 1620 972 1620 998 1522 c 128,-1,10
 1024 1424 1024 1424 1024 1280 c 2,11,-1
 1024 576 l 2,12,13
 1024 432 1024 432 998 324 c 128,-1,14
 972 216 972 216 912 144 c 128,-1,15
 852 72 852 72 753.5 36 c 128,-1,16
 655 0 655 0 510 0 c 2,17,-1
 128 0 l 1,0,-1
512 192 m 2,18,19
 608 192 608 192 660 217 c 128,-1,20
 712 242 712 242 736 296 c 128,-1,21
 760 350 760 350 764 435 c 128,-1,22
 768 520 768 520 768 640 c 2,23,-1
 768 1216 l 2,24,25
 768 1312 768 1312 764 1384 c 128,-1,26
 760 1456 760 1456 735.5 1504 c 128,-1,27
 711 1552 711 1552 658 1576 c 128,-1,28
 605 1600 605 1600 507 1600 c 2,29,-1
 384 1600 l 1,30,-1
 384 1024 l 1,31,-1
 448 1024 l 1,32,-1
 448 832 l 1,33,-1
 384 832 l 1,34,-1
 384 192 l 1,35,-1
 512 192 l 2,18,19
EndSplineSet
EndChar

StartChar: multiply
Encoding: 215 215 219
Width: 768
Flags: W
LayerCount: 2
Fore
SplineSet
384 512 m 1,0,-1
 192 320 l 1,1,-1
 64 448 l 1,2,-1
 256 640 l 1,3,-1
 64 832 l 1,4,-1
 192 960 l 1,5,-1
 384 768 l 1,6,-1
 576 960 l 1,7,-1
 704 832 l 1,8,-1
 512 640 l 1,9,-1
 704 448 l 1,10,-1
 576 320 l 1,11,-1
 384 512 l 1,0,-1
EndSplineSet
EndChar

StartChar: Thorn
Encoding: 222 222 221
Width: 952
Flags: W
LayerCount: 2
Fore
SplineSet
324 1536 m 1,0,-1
 324 1281 l 1,1,-1
 504 1281 l 2,2,3
 607 1281 607 1281 683.5 1250 c 128,-1,4
 760 1219 760 1219 810.5 1160.5 c 128,-1,5
 861 1102 861 1102 886 1017.5 c 128,-1,6
 911 933 911 933 911 826 c 0,7,8
 911 718 911 718 883 635.5 c 128,-1,9
 855 553 855 553 801 497 c 128,-1,10
 747 441 747 441 667.5 412 c 128,-1,11
 588 383 588 383 485 383 c 0,12,13
 478 383 478 383 471 383.5 c 128,-1,14
 464 384 464 384 457 384 c 2,15,-1
 326 384 l 1,16,-1
 326 0 l 1,17,-1
 72 0 l 1,18,-1
 72 1536 l 1,19,-1
 324 1536 l 1,0,-1
369 601 m 2,20,21
 433 601 433 601 484.5 609 c 128,-1,22
 536 617 536 617 572.5 641 c 128,-1,23
 609 665 609 665 629 709.5 c 128,-1,24
 649 754 649 754 649 828 c 0,25,26
 649 892 649 892 635 936 c 128,-1,27
 621 980 621 980 591 1007 c 128,-1,28
 561 1034 561 1034 514 1046 c 128,-1,29
 467 1058 467 1058 401 1058 c 2,30,-1
 324 1058 l 1,31,-1
 324 601 l 1,32,-1
 369 601 l 2,20,21
EndSplineSet
EndChar

StartChar: eth
Encoding: 240 240 222
Width: 1152
Flags: W
LayerCount: 2
Fore
SplineSet
256 1472 m 1,0,-1
 576 1546 l 1,1,2
 504 1578 504 1578 409.5 1589 c 128,-1,3
 315 1600 315 1600 192 1600 c 1,4,-1
 192 1810 l 1,5,6
 310 1810 310 1810 410.5 1800.5 c 128,-1,7
 511 1791 511 1791 594 1768.5 c 128,-1,8
 677 1746 677 1746 743.5 1707.5 c 128,-1,9
 810 1669 810 1669 860 1611 c 1,10,-1
 1088 1664 l 1,11,-1
 1088 1536 l 1,12,-1
 932 1500 l 1,13,14
 979 1404 979 1404 1001.5 1272 c 128,-1,15
 1024 1140 1024 1140 1024 960 c 2,16,-1
 1024 576 l 2,17,18
 1024 432 1024 432 990 321 c 128,-1,19
 956 210 956 210 896 135 c 128,-1,20
 836 60 836 60 754 21 c 128,-1,21
 672 -18 672 -18 576 -18 c 0,22,23
 444 -18 444 -18 357.5 31 c 128,-1,24
 271 80 271 80 220 167 c 128,-1,25
 169 254 169 254 149 375 c 128,-1,26
 129 496 129 496 129 640 c 0,27,28
 129 783 129 783 153 904 c 128,-1,29
 177 1025 177 1025 224.5 1112.5 c 128,-1,30
 272 1200 272 1200 344 1249 c 128,-1,31
 416 1298 416 1298 512 1298 c 0,32,33
 582 1298 582 1298 630.5 1276 c 128,-1,34
 679 1254 679 1254 709.5 1227.5 c 128,-1,35
 740 1201 740 1201 753.5 1178 c 128,-1,36
 767 1155 767 1155 768 1152 c 1,37,38
 768 1252 768 1252 751 1323.5 c 128,-1,39
 734 1395 734 1395 699 1446 c 1,40,-1
 256 1344 l 1,41,-1
 256 1472 l 1,0,-1
768 978 m 1,42,43
 757 994 757 994 740.5 1013.5 c 128,-1,44
 724 1033 724 1033 700.5 1049.5 c 128,-1,45
 677 1066 677 1066 646 1077 c 128,-1,46
 615 1088 615 1088 576 1088 c 0,47,48
 384 1088 384 1088 384 704 c 0,49,50
 384 560 384 560 396 462 c 128,-1,51
 408 364 408 364 432 304 c 128,-1,52
 456 244 456 244 492 218 c 128,-1,53
 528 192 528 192 576 192 c 256,54,55
 624 192 624 192 660 215 c 128,-1,56
 696 238 696 238 720 280 c 128,-1,57
 744 322 744 322 756 381 c 128,-1,58
 768 440 768 440 768 512 c 2,59,-1
 768 978 l 1,42,43
EndSplineSet
EndChar

StartChar: thorn
Encoding: 254 254 224
Width: 838
Flags: W
LayerCount: 2
Fore
SplineSet
72 1518 m 1,0,-1
 291 1518 l 1,1,-1
 291 1024 l 1,2,3
 335 1071 335 1071 370 1097 c 128,-1,4
 405 1123 405 1123 432.5 1135.5 c 128,-1,5
 460 1148 460 1148 481.5 1150.5 c 128,-1,6
 503 1153 503 1153 520 1153 c 0,7,8
 599 1153 599 1153 648 1116 c 128,-1,9
 697 1079 697 1079 724 1000 c 128,-1,10
 751 921 751 921 760.5 796.5 c 128,-1,11
 770 672 770 672 770 498 c 0,12,13
 770 447 770 447 767 389 c 128,-1,14
 764 331 764 331 755.5 274 c 128,-1,15
 747 217 747 217 730.5 165 c 128,-1,16
 714 113 714 113 686.5 73 c 128,-1,17
 659 33 659 33 620 9.5 c 128,-1,18
 581 -14 581 -14 526 -14 c 0,19,20
 494 -14 494 -14 461.5 -3.5 c 128,-1,21
 429 7 429 7 398.5 24 c 128,-1,22
 368 41 368 41 340.5 63.5 c 128,-1,23
 313 86 313 86 291 109 c 1,24,-1
 291 -340 l 1,25,-1
 72 -340 l 1,26,-1
 72 1518 l 1,0,-1
291 223 m 1,27,28
 392 164 392 164 446 164 c 0,29,30
 483 164 483 164 503 194 c 128,-1,31
 523 224 523 224 532.5 288.5 c 128,-1,32
 542 353 542 353 543.5 455.5 c 128,-1,33
 545 558 545 558 545 704 c 0,34,35
 545 764 545 764 542.5 814.5 c 128,-1,36
 540 865 540 865 529.5 901.5 c 128,-1,37
 519 938 519 938 498 958.5 c 128,-1,38
 477 979 477 979 440 979 c 0,39,40
 398 979 398 979 362 961 c 128,-1,41
 326 943 326 943 291 922 c 1,42,-1
 291 223 l 1,27,28
EndSplineSet
EndChar

StartChar: Aogonek
Encoding: 260 260 227
Width: 1152
Flags: W
LayerCount: 2
Fore
SplineSet
1001 17 m 1,0,1
 1001 17 1001 17 879 -143 c 0,2,3
 809 -234 809 -234 809 -309 c 0,4,5
 809 -338 809 -338 822 -350.5 c 128,-1,6
 835 -363 835 -363 870 -370 c 0,7,8
 902 -377 902 -377 1065 -377 c 1,9,-1
 1065 -505 l 1,10,11
 824 -505 824 -505 745 -481 c 0,12,13
 617 -443 617 -443 617 -313 c 0,14,15
 617 -270 617 -270 632 -230 c 128,-1,16
 647 -190 647 -190 671 -154.5 c 128,-1,17
 695 -119 695 -119 724 -89 c 128,-1,18
 753 -59 753 -59 781.5 -36.5 c 128,-1,19
 810 -14 810 -14 834.5 -0.5 c 128,-1,20
 859 13 859 13 873 17 c 1,21,-1
 1001 17 l 1,0,1
416 448 m 1,22,-1
 320 0 l 1,23,-1
 64 0 l 1,24,-1
 448 1792 l 1,25,-1
 704 1792 l 1,26,-1
 1088 0 l 1,27,-1
 832 0 l 1,28,-1
 736 448 l 1,29,-1
 416 448 l 1,22,-1
704 640 m 1,30,-1
 576 1408 l 1,31,-1
 448 640 l 1,32,-1
 704 640 l 1,30,-1
EndSplineSet
EndChar

StartChar: Eogonek
Encoding: 280 280 240
Width: 896
Flags: W
LayerCount: 2
Fore
SplineSet
764 17 m 1,0,1
 764 17 764 17 642 -143 c 0,2,3
 572 -234 572 -234 572 -309 c 0,4,5
 572 -338 572 -338 585 -350.5 c 128,-1,6
 598 -363 598 -363 633 -370 c 0,7,8
 665 -377 665 -377 828 -377 c 1,9,-1
 828 -505 l 1,10,11
 587 -505 587 -505 508 -481 c 0,12,13
 380 -443 380 -443 380 -313 c 0,14,15
 380 -270 380 -270 395 -230 c 128,-1,16
 410 -190 410 -190 434 -154.5 c 128,-1,17
 458 -119 458 -119 487 -89 c 128,-1,18
 516 -59 516 -59 544.5 -36.5 c 128,-1,19
 573 -14 573 -14 597.5 -0.5 c 128,-1,20
 622 13 622 13 636 17 c 1,21,-1
 764 17 l 1,0,1
704 832 m 1,22,-1
 384 832 l 1,23,-1
 384 192 l 1,24,-1
 832 192 l 1,25,-1
 832 0 l 1,26,-1
 128 0 l 1,27,-1
 128 1792 l 1,28,-1
 832 1792 l 1,29,-1
 832 1600 l 1,30,-1
 384 1600 l 1,31,-1
 384 1024 l 1,32,-1
 704 1024 l 1,33,-1
 704 832 l 1,22,-1
EndSplineSet
EndChar

StartChar: hbar
Encoding: 295 295 252
Width: 1024
Flags: W
LayerCount: 2
Fore
SplineSet
384 0 m 1,0,-1
 128 0 l 1,1,-1
 128 1450 l 1,2,-1
 -1 1450 l 1,3,-1
 -1 1602 l 1,4,-1
 128 1602 l 1,5,-1
 128 1792 l 1,6,-1
 384 1792 l 1,7,-1
 384 1602 l 1,8,-1
 551 1602 l 1,9,-1
 551 1450 l 1,10,-1
 384 1450 l 1,11,-1
 384 1142 l 1,12,13
 448 1200 448 1200 499 1232 c 128,-1,14
 550 1264 550 1264 589.5 1278.5 c 128,-1,15
 629 1293 629 1293 659 1295.5 c 128,-1,16
 689 1298 689 1298 712 1298 c 0,17,18
 754 1298 754 1298 788 1280.5 c 128,-1,19
 822 1263 822 1263 846 1234 c 128,-1,20
 870 1205 870 1205 883 1167.5 c 128,-1,21
 896 1130 896 1130 896 1091 c 2,22,-1
 896 0 l 1,23,-1
 640 0 l 1,24,-1
 640 960 l 2,25,26
 640 984 640 984 638.5 1007 c 128,-1,27
 637 1030 637 1030 629 1048 c 128,-1,28
 621 1066 621 1066 603 1077 c 128,-1,29
 585 1088 585 1088 552 1088 c 0,30,31
 503 1088 503 1088 461.5 1065.5 c 128,-1,32
 420 1043 420 1043 384 1013 c 1,33,-1
 384 0 l 1,0,-1
EndSplineSet
EndChar

StartChar: jcircumflex
Encoding: 309 309 255
Width: 576
Flags: W
LayerCount: 2
Fore
SplineSet
0 -121 m 1,0,1
 14 -124 14 -124 33 -126 c 128,-1,2
 52 -128 52 -128 64 -128 c 0,3,4
 112 -128 112 -128 138 -109.5 c 128,-1,5
 164 -91 164 -91 176 -66.5 c 128,-1,6
 188 -42 188 -42 190 -17 c 128,-1,7
 192 8 192 8 192 21 c 2,8,-1
 192 1280 l 1,9,-1
 448 1280 l 1,10,-1
 448 -7 l 2,11,12
 448 -84 448 -84 424 -142.5 c 128,-1,13
 400 -201 400 -201 357 -240.5 c 128,-1,14
 314 -280 314 -280 255.5 -300 c 128,-1,15
 197 -320 197 -320 128 -320 c 0,16,17
 115 -320 115 -320 98.5 -319 c 128,-1,18
 82 -318 82 -318 64.5 -316 c 128,-1,19
 47 -314 47 -314 30 -311 c 128,-1,20
 13 -308 13 -308 0 -303 c 1,21,-1
 0 -121 l 1,0,1
320 1728 m 1,22,-1
 192 1472 l 1,23,-1
 0 1472 l 1,24,-1
 192 1856 l 1,25,-1
 448 1856 l 1,26,-1
 640 1472 l 1,27,-1
 448 1472 l 1,28,-1
 320 1728 l 1,22,-1
EndSplineSet
EndChar

StartChar: Lslash
Encoding: 321 321 260
Width: 945
Flags: W
LayerCount: 2
Fore
SplineSet
177 0 m 1,0,-1
 177 858 l 1,1,-1
 49 787 l 1,2,-1
 49 993 l 1,3,-1
 177 1064 l 1,4,-1
 177 1792 l 1,5,-1
 433 1792 l 1,6,-1
 433 1207 l 1,7,-1
 699 1355 l 1,8,-1
 699 1149 l 1,9,-1
 433 1001 l 1,10,-1
 433 192 l 1,11,-1
 881 192 l 1,12,-1
 881 0 l 1,13,-1
 177 0 l 1,0,-1
EndSplineSet
EndChar

StartChar: lslash
Encoding: 322 322 261
Width: 519
Flags: W
LayerCount: 2
Fore
SplineSet
142 0 m 1,0,-1
 142 1160 l 1,1,-1
 12 1100 l 1,2,-1
 12 1292 l 1,3,-1
 142 1352 l 1,4,-1
 142 1792 l 1,5,-1
 398 1792 l 1,6,-1
 398 1469 l 1,7,-1
 556 1542 l 1,8,-1
 556 1347 l 1,9,-1
 398 1277 l 1,10,-1
 398 0 l 1,11,-1
 142 0 l 1,0,-1
EndSplineSet
EndChar

StartChar: dotlessj
Encoding: 567 567 294
Width: 576
Flags: W
LayerCount: 2
Fore
SplineSet
0 -121 m 1,0,1
 14 -124 14 -124 33 -126 c 128,-1,2
 52 -128 52 -128 64 -128 c 0,3,4
 112 -128 112 -128 138 -109.5 c 128,-1,5
 164 -91 164 -91 176 -66.5 c 128,-1,6
 188 -42 188 -42 190 -17 c 128,-1,7
 192 8 192 8 192 21 c 2,8,-1
 192 1280 l 1,9,-1
 448 1280 l 1,10,-1
 448 -7 l 2,11,12
 448 -84 448 -84 424 -142.5 c 128,-1,13
 400 -201 400 -201 357 -240.5 c 128,-1,14
 314 -280 314 -280 255.5 -300 c 128,-1,15
 197 -320 197 -320 128 -320 c 0,16,17
 115 -320 115 -320 98.5 -319 c 128,-1,18
 82 -318 82 -318 64.5 -316 c 128,-1,19
 47 -314 47 -314 30 -311 c 128,-1,20
 13 -308 13 -308 0 -303 c 1,21,-1
 0 -121 l 1,0,1
EndSplineSet
EndChar

StartChar: uni030F
Encoding: 783 783 296
Width: 640
Flags: W
LayerCount: 2
Fore
SplineSet
392 1792 m 1,0,-1
 598 1792 l 1,1,-1
 686 1408 l 1,2,-1
 558 1408 l 1,3,-1
 392 1792 l 1,0,-1
8 1792 m 1,4,-1
 264 1792 l 1,5,-1
 392 1408 l 1,6,-1
 264 1408 l 1,7,-1
 8 1792 l 1,4,-1
EndSplineSet
EndChar

StartChar: dotaccentcmb
Encoding: 775 775 309
Width: 384
Flags: W
LayerCount: 2
Fore
SplineSet
64 1702 m 1,0,-1
 320 1702 l 1,1,-1
 320 1446 l 1,2,-1
 64 1446 l 1,3,-1
 64 1702 l 1,0,-1
EndSplineSet
EndChar

StartChar: gcedilla
Encoding: 291 291 310
Width: 973
Flags: W
LayerCount: 2
Fore
SplineSet
627 1377 m 1,0,-1
 371 1377 l 1,1,2
 371 1521 371 1521 374 1619 c 128,-1,3
 377 1717 377 1717 395 1777 c 128,-1,4
 413 1837 413 1837 452 1863 c 128,-1,5
 491 1889 491 1889 563 1889 c 1,6,-1
 627 1761 l 1,7,8
 579 1761 579 1761 553 1747.5 c 128,-1,9
 527 1734 527 1734 515 1714 c 128,-1,10
 503 1694 503 1694 501 1672 c 128,-1,11
 499 1650 499 1650 499 1633 c 1,12,-1
 627 1633 l 1,13,-1
 627 1377 l 1,0,-1
993 1088 m 1,14,15
 963 1088 963 1088 938 1082 c 128,-1,16
 913 1076 913 1076 893 1066.5 c 128,-1,17
 873 1057 873 1057 858 1045.5 c 128,-1,18
 843 1034 843 1034 833 1024 c 1,19,20
 843 995 843 995 854 946.5 c 128,-1,21
 865 898 865 898 865 832 c 0,22,23
 865 736 865 736 841 651.5 c 128,-1,24
 817 567 817 567 769 504 c 128,-1,25
 721 441 721 441 649 404.5 c 128,-1,26
 577 368 577 368 481 368 c 0,27,28
 473 368 473 368 462 368.5 c 128,-1,29
 451 369 451 369 439.5 370 c 128,-1,30
 428 371 428 371 417.5 372.5 c 128,-1,31
 407 374 407 374 400 375 c 2,32,-1
 352 383 l 1,33,34
 341 363 341 363 329 342.5 c 128,-1,35
 317 322 317 322 317 301 c 0,36,37
 317 271 317 271 346 256 c 128,-1,38
 375 241 375 241 422.5 232.5 c 128,-1,39
 470 224 470 224 531 219 c 128,-1,40
 592 214 592 214 655 205.5 c 128,-1,41
 718 197 718 197 779 181 c 128,-1,42
 840 165 840 165 887.5 135 c 128,-1,43
 935 105 935 105 964 57 c 128,-1,44
 993 9 993 9 993 -64 c 0,45,46
 993 -136 993 -136 968.5 -187.5 c 128,-1,47
 944 -239 944 -239 904.5 -274.5 c 128,-1,48
 865 -310 865 -310 815.5 -331.5 c 128,-1,49
 766 -353 766 -353 716 -364.5 c 128,-1,50
 666 -376 666 -376 621 -379.5 c 128,-1,51
 576 -383 576 -383 545 -383 c 0,52,53
 510 -383 510 -383 458 -382 c 128,-1,54
 406 -381 406 -381 349.5 -375.5 c 128,-1,55
 293 -370 293 -370 236.5 -358.5 c 128,-1,56
 180 -347 180 -347 134.5 -326 c 128,-1,57
 89 -305 89 -305 61 -273 c 128,-1,58
 33 -241 33 -241 33 -195 c 0,59,60
 33 -171 33 -171 39.5 -137 c 128,-1,61
 46 -103 46 -103 70 -52 c 256,62,63
 94 -1 94 -1 135.5 32 c 128,-1,64
 177 65 177 65 225 89 c 1,65,66
 162 106 162 106 129.5 137.5 c 128,-1,67
 97 169 97 169 97 201 c 0,68,69
 97 228 97 228 111 262.5 c 128,-1,70
 125 297 125 297 145 331.5 c 128,-1,71
 165 366 165 366 187 397 c 128,-1,72
 209 428 209 428 225 448 c 1,73,74
 157 529 157 529 127 629 c 128,-1,75
 97 729 97 729 97 832 c 0,76,77
 97 952 97 952 130 1040 c 128,-1,78
 163 1128 163 1128 217 1185 c 128,-1,79
 271 1242 271 1242 340 1270 c 128,-1,80
 409 1298 409 1298 481 1298 c 0,81,82
 529 1298 529 1298 568 1290 c 128,-1,83
 607 1282 607 1282 640 1264.5 c 128,-1,84
 673 1247 673 1247 701.5 1218 c 128,-1,85
 730 1189 730 1189 757 1147 c 1,86,87
 770 1171 770 1171 790.5 1197.5 c 128,-1,88
 811 1224 811 1224 840 1246.5 c 128,-1,89
 869 1269 869 1269 907 1283.5 c 128,-1,90
 945 1298 945 1298 993 1298 c 1,91,-1
 993 1088 l 1,14,15
765 -66 m 1,92,93
 752 9 752 9 564 32 c 2,94,-1
 353 57 l 1,95,96
 338 46 338 46 321.5 25.5 c 128,-1,97
 305 5 305 5 291 -20.5 c 128,-1,98
 277 -46 277 -46 268 -75.5 c 128,-1,99
 259 -105 259 -105 259 -135 c 0,100,101
 259 -159 259 -159 281.5 -172 c 128,-1,102
 304 -185 304 -185 355 -188 c 0,103,104
 407 -192 407 -192 452 -193 c 128,-1,105
 497 -194 497 -194 545 -194 c 0,106,107
 561 -194 561 -194 584 -193.5 c 128,-1,108
 607 -193 607 -193 632 -190 c 128,-1,109
 657 -187 657 -187 681.5 -181 c 128,-1,110
 706 -175 706 -175 725.5 -164.5 c 128,-1,111
 745 -154 745 -154 757 -138 c 128,-1,112
 769 -122 769 -122 769 -99 c 0,113,114
 769 -82 769 -82 765 -66 c 1,92,93
321 832 m 256,115,116
 321 784 321 784 328 735.5 c 128,-1,117
 335 687 335 687 353 648 c 128,-1,118
 371 609 371 609 402 584.5 c 128,-1,119
 433 560 433 560 481 560 c 256,120,121
 529 560 529 560 560 584.5 c 128,-1,122
 591 609 591 609 609 648 c 128,-1,123
 627 687 627 687 634 735.5 c 128,-1,124
 641 784 641 784 641 832 c 256,125,126
 641 880 641 880 634 931 c 128,-1,127
 627 982 627 982 609 1024 c 128,-1,128
 591 1066 591 1066 560 1093 c 128,-1,129
 529 1120 529 1120 481 1120 c 256,130,131
 433 1120 433 1120 402 1093 c 128,-1,132
 371 1066 371 1066 353 1024 c 128,-1,133
 335 982 335 982 328 931 c 128,-1,134
 321 880 321 880 321 832 c 256,115,116
EndSplineSet
EndChar

StartChar: kgreenlandic
Encoding: 312 312 314
Width: 960
Flags: W
LayerCount: 2
Fore
SplineSet
384 1281 m 1,0,-1
 384 737 l 1,1,-1
 704 1280 l 1,2,-1
 960 1280 l 1,3,-1
 673 793 l 1,4,-1
 960 0 l 1,5,-1
 704 0 l 1,6,-1
 502 619 l 1,7,-1
 384 438 l 1,8,-1
 384 0 l 1,9,-1
 128 0 l 1,10,-1
 128 1281 l 1,11,-1
 384 1281 l 1,0,-1
EndSplineSet
EndChar

StartChar: uni0311
Encoding: 785 785 320
Width: 768
Flags: W
LayerCount: 2
Fore
SplineSet
384 1792 m 256,0,1
 416 1792 416 1792 452 1790 c 128,-1,2
 488 1788 488 1788 523.5 1777.5 c 128,-1,3
 559 1767 559 1767 592 1744 c 128,-1,4
 625 1721 625 1721 649.5 1678.5 c 128,-1,5
 674 1636 674 1636 689 1570 c 128,-1,6
 704 1504 704 1504 704 1408 c 1,7,-1
 512 1408 l 1,8,9
 512 1480 512 1480 501 1519 c 128,-1,10
 490 1558 490 1558 472 1576 c 128,-1,11
 454 1594 454 1594 431 1597 c 128,-1,12
 408 1600 408 1600 384 1600 c 256,13,14
 360 1600 360 1600 337 1597 c 128,-1,15
 314 1594 314 1594 296 1576 c 128,-1,16
 278 1558 278 1558 267 1519 c 128,-1,17
 256 1480 256 1480 256 1408 c 1,18,-1
 64 1408 l 1,19,20
 64 1504 64 1504 79 1570 c 128,-1,21
 94 1636 94 1636 118.5 1678.5 c 128,-1,22
 143 1721 143 1721 176 1744 c 128,-1,23
 209 1767 209 1767 244.5 1777.5 c 128,-1,24
 280 1788 280 1788 316 1790 c 128,-1,25
 352 1792 352 1792 384 1792 c 256,0,1
EndSplineSet
EndChar

StartChar: uni0326
Encoding: 806 806 321
Width: 330
Flags: W
LayerCount: 2
Fore
SplineSet
37 -79 m 1,0,-1
 293 -79 l 1,1,2
 293 -223 293 -223 290 -321 c 128,-1,3
 287 -419 287 -419 269 -479 c 128,-1,4
 251 -539 251 -539 212 -565 c 128,-1,5
 173 -591 173 -591 101 -591 c 1,6,-1
 37 -463 l 1,7,8
 85 -463 85 -463 111 -449.5 c 128,-1,9
 137 -436 137 -436 149 -416 c 128,-1,10
 161 -396 161 -396 163 -374 c 128,-1,11
 165 -352 165 -352 165 -335 c 1,12,-1
 37 -335 l 1,13,-1
 37 -79 l 1,0,-1
EndSplineSet
EndChar

StartChar: Dzcaron
Encoding: 453 453 322
Width: 1947
Flags: W
LayerCount: 2
Fore
SplineSet
1686 1792 m 1,0,-1
 1878 1792 l 1,1,-1
 1686 1408 l 1,2,-1
 1430 1408 l 1,3,-1
 1238 1792 l 1,4,-1
 1430 1792 l 1,5,-1
 1558 1536 l 1,6,-1
 1686 1792 l 1,0,-1
128 0 m 1,7,-1
 128 1792 l 1,8,-1
 512 1792 l 2,9,10
 656 1792 656 1792 754 1766 c 128,-1,11
 852 1740 852 1740 912 1680 c 128,-1,12
 972 1620 972 1620 998 1522 c 128,-1,13
 1024 1424 1024 1424 1024 1280 c 2,14,-1
 1024 576 l 2,15,16
 1024 432 1024 432 998 324 c 128,-1,17
 972 216 972 216 912 144 c 128,-1,18
 852 72 852 72 753.5 36 c 128,-1,19
 655 0 655 0 510 0 c 2,20,-1
 128 0 l 1,7,-1
512 192 m 2,21,22
 608 192 608 192 660 217 c 128,-1,23
 712 242 712 242 736 296 c 128,-1,24
 760 350 760 350 764 435 c 128,-1,25
 768 520 768 520 768 640 c 2,26,-1
 768 1216 l 2,27,28
 768 1312 768 1312 764 1384 c 128,-1,29
 760 1456 760 1456 735.5 1504 c 128,-1,30
 711 1552 711 1552 658 1576 c 128,-1,31
 605 1600 605 1600 507 1600 c 2,32,-1
 384 1600 l 1,33,-1
 384 192 l 1,34,-1
 512 192 l 2,21,22
1629 1088 m 1,35,-1
 1245 1088 l 1,36,-1
 1245 1280 l 1,37,-1
 1885 1280 l 1,38,-1
 1885 1088 l 1,39,-1
 1437 192 l 1,40,-1
 1885 192 l 1,41,-1
 1885 0 l 1,42,-1
 1181 0 l 1,43,-1
 1181 192 l 1,44,-1
 1629 1088 l 1,35,-1
EndSplineSet
EndChar

StartChar: minus
Encoding: 8722 8722 360
Width: 768
Flags: W
LayerCount: 2
Fore
SplineSet
0 699 m 1,0,-1
 750 699 l 1,1,-1
 750 548 l 1,2,-1
 0 548 l 1,3,-1
 0 699 l 1,0,-1
EndSplineSet
EndChar

